# Blender v2.75 (sub 0) OBJ File: ''
# www.blender.org
mtllib boidSegmentMed.mtl
g Cube2_default
v -0.057542 0.287093 0.630481
v -0.031302 0.279705 0.510175
v -0.000000 0.277946 0.474740
v 0.031302 0.279705 0.510175
v 0.057542 0.287093 0.630481
v 0.072562 0.293992 0.794801
v 0.078421 0.304679 1.012975
v 0.072436 0.315573 1.230664
v 0.056054 0.324266 1.400180
v 0.031302 0.328950 1.502338
v -0.000000 0.330709 1.537773
v -0.031302 0.328950 1.502338
v -0.056054 0.324266 1.400179
v -0.072436 0.315573 1.230664
v -0.078421 0.304679 1.012975
v -0.072562 0.293992 0.794801
v -0.026847 1.151604 0.650215
v -0.052819 1.015029 0.680690
v -0.067050 1.009625 0.749702
v -0.034424 1.187498 0.695107
v -0.050084 1.066547 0.906162
v -0.029808 0.949524 1.040436
v -0.027412 1.128620 0.882603
v 0.031546 0.403007 0.598959
v 0.026847 1.151604 0.650215
v 0.034424 1.187498 0.695107
v 0.052819 1.015029 0.680690
v 0.028277 1.041721 0.635053
v 0.050081 1.066555 0.906162
v 0.027413 1.128622 0.882595
v 0.067266 0.980491 0.918728
v 0.057387 0.586447 1.214257
v 0.073038 0.672562 1.062567
v 0.057054 0.856308 1.056580
v 0.030669 0.666870 1.226868
v 0.031805 0.475754 1.365906
v 0.056912 0.590055 0.724387
v 0.030599 0.652916 0.661502
v 0.073038 0.675350 0.817421
v -0.057387 0.586447 1.214257
v -0.030665 0.666870 1.226807
v -0.057045 0.856293 1.056564
v -0.031805 0.475754 1.365891
v -0.073038 0.672562 1.062567
v -0.056912 0.590055 0.724387
v -0.073038 0.675350 0.817421
v -0.031546 0.403007 0.598959
v 0.000000 0.396298 0.566709
v -0.059045 1.116808 0.789015
v -0.067266 0.980491 0.918720
v -0.000000 1.172532 0.634523
v -0.000000 1.217851 0.681979
v -0.000000 1.095961 0.932015
v -0.000000 0.964340 1.044846
v 0.029808 0.949539 1.040421
v 0.031302 0.516853 0.643476
v 0.059045 1.116808 0.789015
v 0.029273 1.195020 0.760982
v 0.000000 0.654968 1.253845
v -0.000000 0.484741 1.386627
v 0.000000 0.658201 0.643081
v -0.030599 0.652916 0.661502
v -0.000000 1.215377 0.753516
v -0.029273 1.195020 0.760982
v -0.000000 1.172188 0.839984
v -0.000000 1.064081 0.619433
v -0.028277 1.041720 0.635053
v -0.000000 0.516029 0.619437
v -0.031302 0.516853 0.643476
v 0.077454 0.858163 0.890825
v 0.067050 1.009625 0.749703
v -0.077454 0.858163 0.890825
vn -0.733300 -0.668900 -0.121900
vn -0.000000 -0.998800 0.049200
vn 0.739000 -0.658400 -0.143000
vn 0.716100 -0.697500 -0.026700
vn 0.714400 -0.698800 0.035800
vn 0.724800 -0.682300 0.095300
vn 0.747600 -0.633300 0.200100
vn -0.758000 -0.619200 0.205000
vn -0.724900 -0.682300 0.095200
vn -0.714100 -0.699100 0.036200
vn -0.716500 -0.697200 -0.024400
vn -0.814300 0.395400 0.425000
vn -0.782600 0.390100 0.485200
vn -0.995300 -0.004400 -0.096900
vn -0.968600 0.031700 -0.246700
vn -0.868500 0.361700 0.339000
vn -0.653400 0.459300 0.601700
vn -0.607300 0.629700 0.484500
vn 0.825800 0.331700 -0.456100
vn 0.816000 0.259000 -0.516800
vn -0.779400 0.259600 -0.570200
vn -0.947200 0.037100 -0.318600
vn -0.991600 0.057500 -0.116300
vn -0.863600 0.464900 -0.195300
vn 0.784200 0.225300 -0.578200
vn 0.948300 0.031400 -0.315700
vn 0.720200 0.011400 -0.693700
vn 0.705900 0.397800 0.586100
vn 0.778000 0.392200 0.490800
vn 0.959700 0.154500 0.234600
vn -0.959900 0.155000 0.233500
vn -0.705700 0.398100 0.586100
vn 0.000000 0.598500 -0.801200
vn -0.825800 0.331700 -0.456100
vn -0.819900 0.253000 -0.513500
vn -0.016900 0.528200 -0.849000
vn -0.000000 0.934500 -0.356100
vn 0.000100 0.431900 -0.901900
vn -0.967400 0.248600 0.048600
vn -0.977500 0.150600 0.147500
vn 0.846200 0.500600 -0.182600
vn -0.009900 0.675700 0.737100
vn -0.003000 0.617400 0.786600
vn 0.653200 0.454200 0.605800
vn 0.600100 0.638000 0.482600
vn 0.969600 0.030300 -0.243000
vn 0.789000 0.155300 -0.594500
vn 0.994500 0.051400 0.091200
vn 0.867400 0.361900 0.341600
vn 0.967800 0.245700 0.054400
vn 0.754300 0.626100 0.197300
vn 0.757200 0.010600 -0.653100
vn -0.921600 0.214200 0.323700
vn 0.002500 0.646700 0.762700
vn 0.001800 0.586800 0.809700
vn -0.000100 0.969400 0.245600
vn -0.759100 0.625600 0.179900
vn 0.000000 0.854000 0.520300
vn -0.006300 0.067700 -0.997700
vn 0.001400 0.032500 -0.999500
vn -0.756700 0.022600 -0.653400
vn -0.722100 0.009900 -0.691700
vn 0.999300 0.036200 0.010200
vn 0.995300 -0.004300 -0.096400
vn -0.999300 0.036600 0.011100
vn -0.994500 0.049200 0.092200
vn 0.000000 0.268800 -0.963200
vn -0.787800 0.165400 -0.593300
vn 0.991900 0.055700 -0.114100
vn 0.977100 0.152000 0.149100
vn 0.814200 0.395400 0.425100
vn -0.000000 0.690300 0.723500
vn 0.920300 0.215000 0.326700
usemtl default
s 1
f 1//1 2//2 3//2 4//2 5//3 6//4 7//5 8//6 9//7 10//2 11//2 12//2 13//8 14//9 15//10 16//11
f 13//8 12//12 43//13
f 1//1 16//11 46//14 45//15
f 21//16 22//17 23//18
f 5//3 4//19 24//20
f 17//21 18//22 19//23 20//24
f 25//25 27//26 28//27
f 35//28 36//29 32//30
f 40//31 43//13 41//32
f 3//33 2//34 47//35 48//36
f 3//33 48//36 24//20 4//19
f 52//37 51//38 17//21 20//24
f 49//39 20//24 19//23
f 49//39 50//40 21//16
f 25//25 51//38 52//37 26//41
f 53//42 23//18 22//17 54//43
f 53//42 54//43 55//44 30//45
f 37//46 5//3 24//20 56//47
f 9//7 8//6 33//48 32//30
f 29//49 57//50 58//51 30//45
f 28//27 27//26 37//46 38//52
f 18//22 45//15 46//14 19//23
f 42//53 41//32 22//17
f 60//54 59//55 41//32 43//13
f 35//28 59//55 60//54 36//29
f 63//56 64//57 23//18 65//58
f 64//57 63//56 52//37 20//24
f 52//37 63//56 58//51 26//41
f 66//59 61//60 62//61 67//62
f 66//59 28//27 38//52 61//60
f 8//6 7//5 70//63 33//48
f 7//5 6//4 39//64 70//63
f 15//10 72//65 46//14 16//11
f 72//65 15//10 14//9 44//66
f 55//44 54//43 59//55 35//28
f 59//55 54//43 22//17 41//32
f 48//36 68//67 56//47 24//20
f 48//36 47//35 69//68 68//67
f 25//25 26//41 71//69 27//26
f 31//70 33//48 70//63
f 70//63 57//50 31//70
f 72//65 44//66 50//40
f 72//65 19//23 46//14
f 47//35 2//34 1//1
f 67//62 18//22 17//21
f 36//29 10//71 9//7
f 45//15 69//68 47//35 1//1
f 62//61 69//68 45//15
f 13//8 40//31 44//66 14//9
f 11//72 10//71 36//29 60//54
f 21//16 23//18 64//57 49//39
f 51//38 25//25 28//27 66//59
f 5//3 37//46 39//64 6//4
f 30//45 65//58 53//42
f 30//45 55//44 29//49
f 38//52 56//47 68//67 61//60
f 37//46 56//47 38//52
f 29//49 31//70 57//50
f 63//56 65//58 30//45 58//51
f 11//72 60//54 43//13 12//12
f 67//62 62//61 45//15 18//22
f 51//38 66//59 67//62 17//21
f 68//67 69//68 62//61 61//60
f 55//44 35//28 34//73
f 27//26 71//69 39//64 37//46
f 71//69 26//41 57//50
f 50//40 49//39 72//65
f 32//30 33//48 34//73
f 42//53 40//31 41//32
f 40//31 13//8 43//13
f 57//50 26//41 58//51
f 31//70 34//73 33//48
f 34//73 31//70 29//49
f 21//16 42//53 22//17
f 71//69 70//63 39//64
f 72//65 49//39 19//23
f 34//73 35//28 32//30
f 40//31 42//53 44//66
f 32//30 36//29 9//7
f 29//49 55//44 34//73
f 42//53 21//16 50//40
f 65//58 23//18 53//42
f 49//39 64//57 20//24
f 70//63 71//69 57//50
f 50//40 44//66 42//53
g Cylinder1_default
v 0.323731 -0.028921 -0.104172
v 0.406111 -0.005296 2.092449
v 0.309988 0.096753 -0.107904
v 0.357408 0.186193 2.092240
v 0.205945 0.258757 -0.107813
v 0.230026 0.334727 2.092448
v 0.028921 0.323731 -0.104172
v 0.005295 0.406110 2.092449
v -0.096753 0.309988 -0.107904
v -0.186193 0.357409 2.092242
v -0.258757 0.205945 -0.107813
v -0.334727 0.230025 2.092451
v -0.323731 0.028921 -0.104172
v -0.406111 0.005295 2.092448
v -0.309988 -0.096753 -0.107904
v -0.357408 -0.186193 2.092240
v -0.205945 -0.258757 -0.107813
v -0.230025 -0.334727 2.092452
v -0.028921 -0.323731 -0.104173
v -0.005295 -0.406111 2.092448
v 0.096753 -0.309988 -0.107904
v 0.186193 -0.357409 2.092240
v 0.258757 -0.205945 -0.107814
v 0.334727 -0.230026 2.092451
v 0.331715 0.102434 2.226366
v 0.343183 -0.065702 2.227106
v 0.231279 0.061695 2.332357
v 0.245277 0.248831 2.227117
v 0.121424 0.206480 2.332158
v 0.065704 0.343184 2.227106
v -0.061690 0.231279 2.332360
v -0.102427 0.331712 2.226365
v -0.248843 0.245287 2.227105
v -0.206478 0.121423 2.332158
v -0.343184 0.065704 2.227104
v -0.231277 -0.061692 2.332357
v -0.331715 -0.102435 2.226366
v -0.245288 -0.248845 2.227110
v -0.121431 -0.206482 2.332155
v -0.065704 -0.343185 2.227106
v 0.061693 -0.231278 2.332359
v 0.102431 -0.331713 2.226364
v 0.248843 -0.245287 2.227105
v 0.206482 -0.121423 2.332158
v 0.112915 0.046770 2.372000
v 0.119870 0.023843 2.372000
v 0.086421 0.086421 2.372000
v 0.067901 0.101620 2.372000
v 0.046771 0.112914 2.372000
v 0.000000 0.122218 2.372000
v -0.023844 0.119869 2.372000
v -0.046771 0.112914 2.372000
v -0.086421 0.086421 2.372000
v -0.101621 0.067900 2.372000
v -0.112915 0.046770 2.372000
v -0.122218 -0.000000 2.372000
v -0.119870 -0.023844 2.372000
v -0.112915 -0.046771 2.372000
v -0.086421 -0.086422 2.372000
v -0.067901 -0.101621 2.372000
v -0.046771 -0.112915 2.372000
v 0.000000 -0.122218 2.372000
v 0.023844 -0.119870 2.372000
v 0.046771 -0.112915 2.372000
v 0.086421 -0.086422 2.372000
v 0.101621 -0.067901 2.372000
v 0.112915 -0.046771 2.372000
v 0.122218 -0.000000 2.372000
v 0.275072 0.077557 -0.212921
v 0.190972 0.019740 -0.301751
v 0.234977 -0.163322 -0.219708
v 0.147084 -0.118654 -0.302817
v 0.050345 -0.278644 -0.212406
v 0.019741 -0.190971 -0.301751
v -0.163322 -0.234977 -0.219708
v -0.118654 -0.147084 -0.302817
v -0.278644 -0.050345 -0.212406
v -0.190971 -0.019740 -0.301751
v -0.260983 0.104894 -0.215002
v -0.147084 0.118654 -0.302817
v -0.138076 0.248168 -0.216930
v -0.019741 0.190971 -0.301751
v 0.113312 0.266660 -0.214977
v 0.118654 0.147085 -0.302817
v 0.101296 0.000000 -0.332435
v 0.093585 -0.038764 -0.332435
v 0.084224 -0.056277 -0.332435
v 0.071627 -0.071627 -0.332435
v 0.038764 -0.093585 -0.332435
v 0.019762 -0.099349 -0.332435
v -0.000000 -0.101296 -0.332435
v -0.038764 -0.093585 -0.332435
v -0.056277 -0.084224 -0.332435
v -0.071627 -0.071627 -0.332435
v -0.093585 -0.038764 -0.332435
v -0.099349 -0.019762 -0.332435
v -0.101296 0.000000 -0.332435
v -0.093585 0.038764 -0.332435
v -0.084224 0.056277 -0.332435
v -0.071627 0.071627 -0.332435
v -0.038764 0.093585 -0.332435
v -0.019762 0.099349 -0.332435
v -0.000000 0.101296 -0.332435
v 0.038764 0.093585 -0.332435
v 0.056277 0.084224 -0.332435
v 0.071627 0.071627 -0.332435
v 0.093585 0.038764 -0.332435
v 0.099349 0.019762 -0.332435
vn 0.875000 0.455600 0.164000
vn 0.986000 -0.027800 0.164300
vn 0.924600 0.326900 -0.195500
vn 0.545400 0.821400 0.167100
vn 0.621000 0.750800 -0.225100
vn -0.973900 0.111100 -0.197800
vn -0.986300 0.028000 0.162800
vn -0.820600 0.546000 0.169000
vn -0.767400 0.604700 -0.213300
vn -0.455600 0.875000 0.164000
vn 0.028000 0.986000 0.164600
vn -0.288200 0.929200 -0.231300
vn -0.117200 -0.969500 -0.215100
vn -0.028000 -0.986300 0.162700
vn -0.546000 -0.820600 0.169000
vn -0.617200 -0.757900 -0.211100
vn -0.875000 -0.455600 0.164000
vn -0.917200 -0.335600 -0.214800
vn 0.967300 -0.113300 -0.227000
vn 0.820600 -0.546000 0.169000
vn 0.757900 -0.617200 -0.211100
vn 0.455600 -0.875000 0.164000
vn 0.335700 -0.917200 -0.214800
vn 0.392600 -0.315600 -0.863800
vn 0.678500 -0.465100 -0.568600
vn 0.165300 -0.816900 -0.552500
vn 0.057300 -0.531600 -0.845000
vn 0.793200 0.255000 0.553000
vn 0.808400 -0.174300 0.562300
vn 0.577600 0.585300 0.569000
vn 0.163000 0.814300 0.557200
vn -0.247700 0.789600 0.561400
vn -0.808500 0.168400 0.563900
vn -0.592700 0.581200 0.557600
vn -0.793200 -0.255000 0.553100
vn -0.576200 -0.593100 0.562300
vn -0.163000 -0.814300 0.557200
vn 0.255000 -0.793200 0.553000
vn 0.593100 -0.576200 0.562300
vn 0.502900 0.146100 0.851900
vn 0.440900 -0.291400 0.848900
vn 0.204000 0.067300 0.976700
vn 0.219800 0.049100 0.974300
vn 0.258200 0.469900 0.844100
vn 0.130700 0.175000 0.975800
vn 0.126700 0.187100 0.974100
vn -0.147400 0.506100 0.849800
vn -0.030200 0.217000 0.975700
vn -0.067300 0.204000 0.976700
vn -0.081200 0.148300 0.985600
vn -0.469900 0.258200 0.844100
vn -0.175000 0.130700 0.975800
vn -0.187100 0.126700 0.974100
vn -0.506100 -0.147400 0.849800
vn -0.217100 -0.030300 0.975700
vn -0.204000 -0.067300 0.976700
vn -0.148300 -0.081200 0.985600
vn -0.258200 -0.469800 0.844100
vn -0.130700 -0.175000 0.975800
vn -0.126700 -0.187100 0.974100
vn 0.147400 -0.506100 0.849800
vn 0.030200 -0.217000 0.975700
vn 0.067300 -0.204000 0.976700
vn 0.081200 -0.148300 0.985600
vn 0.175000 -0.130700 0.975800
vn 0.187100 -0.126700 0.974100
vn 0.217000 0.030300 0.975700
vn 0.030900 0.172200 0.984600
vn -0.172200 0.030900 0.984600
vn -0.030900 -0.172200 0.984600
vn 0.172200 -0.030900 0.984600
vn 0.791300 0.234500 -0.564700
vn 0.550000 0.063700 -0.832700
vn -0.816100 -0.184300 -0.547800
vn -0.472400 -0.665000 -0.578400
vn -0.348400 -0.376500 -0.858400
vn -0.522700 -0.064500 -0.850100
vn 0.081100 0.971300 -0.223400
vn 0.311100 0.775800 -0.549000
vn -0.388700 0.735300 -0.555100
vn -0.765800 0.307000 -0.565100
vn -0.394700 0.332200 -0.856600
vn -0.066000 0.533900 -0.843000
vn 0.359800 0.387400 -0.848800
vn 0.188200 -0.114700 -0.975400
vn 0.189300 -0.123800 -0.974100
vn 0.053200 -0.214900 -0.975200
vn 0.046400 -0.221800 -0.974000
vn 0.015900 -0.214000 -0.976700
vn -0.114700 -0.188200 -0.975400
vn -0.123800 -0.189300 -0.974100
vn -0.214900 -0.053200 -0.975200
vn -0.221800 -0.046400 -0.974000
vn -0.214000 -0.015900 -0.976700
vn -0.188200 0.114700 -0.975400
vn -0.189300 0.123800 -0.974100
vn -0.053200 0.214900 -0.975200
vn -0.046400 0.221800 -0.974000
vn -0.015900 0.214000 -0.976700
vn 0.114700 0.188200 -0.975400
vn 0.123800 0.189300 -0.974100
vn 0.214900 0.053200 -0.975200
vn 0.221800 0.046400 -0.974000
vn 0.212800 0.027100 -0.976700
vn 0.091400 -0.145000 -0.985200
vn -0.145000 -0.091400 -0.985200
vn -0.091400 0.145000 -0.985200
vn 0.145000 0.091400 -0.985200
usemtl default
s 1
f 76//74 74//75 75//76
f 78//77 76//74 77//78
f 85//79 86//80 84//81 83//82
f 82//83 80//84 81//85
f 84//81 82//83 83//82
f 91//86 92//87 90//88 89//89
f 88//90 86//80 87//91
f 90//88 88//90 89//89
f 73//92 74//75 96//93 95//94
f 94//95 92//87 93//96
f 96//93 94//95 95//94
f 144//97 143//98 145//99 146//100
f 74//75 97//101 98//102
f 76//74 100//103 97//101
f 97//101 74//75 76//74
f 100//103 76//74 78//77
f 78//77 102//104 100//103
f 80//84 104//105 102//104
f 84//81 107//106 105//107
f 86//80 109//108 107//106
f 88//90 110//109 109//108
f 109//108 86//80 88//90
f 90//88 112//110 110//109
f 92//87 114//111 112//110
f 94//95 115//112 114//111
f 114//111 92//87 94//95
f 96//93 98//102 115//112
f 98//102 96//93 74//75
f 99//113 116//114 98//102
f 99//113 117//115 118//116
f 99//113 101//117 119//118
f 101//117 120//119 119//118
f 103//120 122//121 101//117
f 103//120 124//122 123//123
f 103//120 106//124 125//125
f 106//124 126//126 125//125
f 108//127 128//128 106//124
f 108//127 130//129 129//130
f 108//127 111//131 131//132
f 111//131 132//133 131//132
f 113//134 134//135 111//131
f 113//134 136//136 135//137
f 113//134 116//114 137//138
f 116//114 138//139 137//138
f 99//113 140//140 116//114
f 118//116 140//140 99//113
f 118//116 117//115 99//113 119//118 120//119 121//141 101//117 122//121 123//123 124//122 103//120 125//125 126//126 127//142 106//124 128//128 129//130 130//129 108//127 131//132 132//133 133//143 111//131 134//135 135//137 136//136 113//134 137//138 138//139 139//144 116//114 140//140
f 73//92 143//98 141//145
f 143//98 144//97 142//146
f 143//98 73//92 95//94
f 145//99 143//98 95//94 93//96
f 89//89 87//91 149//147 147//148
f 93//96 91//86 145//99
f 147//148 148//149 146//100
f 148//149 147//148 149//147 150//150
f 79//151 155//152 153//153 81//85
f 85//79 151//154 149//147
f 151//154 152//155 150//150
f 153//153 83//82 81//85
f 153//153 155//152 154//156
f 155//152 156//157 154//156
f 155//152 79//151 77//78
f 77//78 141//145 155//152
f 155//152 141//145 156//157
f 142//146 144//97 158//158
f 144//97 159//159 158//158
f 146//100 161//160 144//97
f 146//100 162//161 161//160
f 146//100 163//162 162//161
f 146//100 148//149 164//163
f 148//149 165//164 164//163
f 150//150 167//165 148//149
f 150//150 168//166 167//165
f 150//150 169//167 168//166
f 150//150 152//155 170//168
f 152//155 171//169 170//168
f 154//156 173//170 152//155
f 154//156 174//171 173//170
f 154//156 175//172 174//171
f 154//156 156//157 176//173
f 156//157 177//174 176//173
f 142//146 179//175 156//157
f 142//146 180//176 179//175
f 157//177 142//146 158//158 159//159 160//178 144//97 161//160 162//161 163//162 146//100 164//163 165//164 166//179 148//149 167//165 168//166 169//167 150//150 170//168 171//169 172//180 152//155 173//170 174//171 175//172 154//156 176//173 177//174 178//181 156//157 179//175 180//176
f 75//76 74//75 73//92
f 77//78 76//74 75//76
f 81//85 80//84 79//151
f 83//82 82//83 81//85
f 87//91 86//80 85//79
f 89//89 88//90 87//91
f 93//96 92//87 91//86
f 95//94 94//95 93//96
f 98//102 97//101 99//113
f 97//101 100//103 99//113
f 99//113 100//103 101//117
f 100//103 102//104 101//117
f 78//77 80//84 102//104
f 101//117 102//104 103//120
f 102//104 104//105 103//120
f 80//84 82//83 104//105
f 104//105 105//107 103//120
f 82//83 84//81 105//107
f 105//107 104//105 82//83
f 103//120 105//107 106//124
f 105//107 107//106 106//124
f 84//81 86//80 107//106
f 106//124 107//106 108//127
f 107//106 109//108 108//127
f 109//108 110//109 108//127
f 88//90 90//88 110//109
f 108//127 110//109 111//131
f 110//109 112//110 111//131
f 90//88 92//87 112//110
f 111//131 112//110 113//134
f 112//110 114//111 113//134
f 114//111 115//112 113//134
f 94//95 96//93 115//112
f 113//134 115//112 116//114
f 115//112 98//102 116//114
f 120//119 101//117 121//141
f 122//121 103//120 123//123
f 126//126 106//124 127//142
f 128//128 108//127 129//130
f 132//133 111//131 133//143
f 134//135 113//134 135//137
f 138//139 116//114 139//144
f 73//92 141//145 75//76
f 141//145 143//98 142//146
f 145//99 147//148 146//100
f 91//86 89//89 147//148
f 147//148 145//99 91//86
f 85//79 149//147 87//91
f 149//147 151//154 150//150
f 85//79 83//82 151//154
f 151//154 83//82 153//153
f 151//154 153//153 152//155
f 152//155 153//153 154//156
f 79//151 80//84 78//77 77//78
f 77//78 75//76 141//145
f 156//157 141//145 142//146
f 159//159 144//97 160//178
f 165//164 148//149 166//179
f 171//169 152//155 172//180
f 177//174 156//157 178//181
f 157//177 180//176 142//146
