# Blender v2.75 (sub 0) OBJ File: ''
# www.blender.org
mtllib boidSegmentLo.mtl
g Cube2_default
v -0.057542 0.287093 0.630481
v -0.031302 0.279705 0.510175
v -0.000000 0.277946 0.474740
v 0.031302 0.279705 0.510175
v 0.057542 0.287093 0.630481
v 0.078421 0.304679 1.012975
v 0.072436 0.315573 1.230664
v 0.056054 0.324266 1.400180
v 0.031302 0.328950 1.502338
v -0.000000 0.330709 1.537773
v -0.031302 0.328950 1.502338
v -0.056054 0.324266 1.400179
v -0.072436 0.315573 1.230664
v -0.078421 0.304679 1.012975
v -0.049161 1.160128 0.684892
v -0.038460 1.110571 0.890087
v -0.012427 0.956924 1.050293
v 0.031681 0.449887 0.626291
v 0.026653 1.118791 0.635020
v 0.034504 1.198960 0.717860
v 0.059611 1.022252 0.698551
v 0.038460 1.110571 0.890087
v 0.073737 1.041142 0.847453
v 0.031492 0.537391 1.313294
v 0.043308 0.627039 0.676797
v 0.074284 0.298321 0.848368
v -0.040961 0.559364 1.285828
v -0.043309 0.627039 0.676797
v -0.074284 0.298321 0.848369
v -0.031681 0.449887 0.626291
v 0.000000 0.438940 0.594272
v -0.073737 1.041142 0.847453
v -0.000000 1.151789 0.621181
v -0.007602 1.225486 0.713170
v -0.000000 1.152912 0.871100
v 0.048095 0.927002 1.036881
v -0.000000 0.550323 1.327339
v 0.000000 0.658201 0.643081
v -0.026653 1.118791 0.635021
vn -0.739500 -0.666100 -0.097600
vn -0.000000 -0.998800 0.049000
vn 0.745500 -0.655800 -0.119000
vn 0.720500 -0.693300 -0.015300
vn 0.714200 -0.698900 0.036700
vn 0.728300 -0.676700 0.107900
vn 0.748300 -0.630600 0.205900
vn -0.747300 -0.632300 0.204500
vn -0.729500 -0.674500 0.113600
vn -0.713900 -0.699300 0.037000
vn -0.719700 -0.694200 -0.013000
vn -0.801700 0.395500 0.448200
vn -0.852800 0.304200 0.424600
vn 0.822800 0.321100 -0.468900
vn 0.769600 0.196400 -0.607600
vn 0.000000 0.579200 -0.815200
vn 0.012700 0.465200 -0.885100
vn -0.105900 0.991100 -0.080300
vn 0.024800 0.553700 -0.832300
vn -0.736800 0.103600 -0.668200
vn -0.885300 0.378300 -0.270400
vn 0.771100 0.149300 -0.619000
vn 0.794200 0.602300 -0.081200
vn 0.007700 0.855200 0.518200
vn -0.259200 0.589400 0.765100
vn 0.785100 0.369200 0.497300
vn 0.707600 0.532000 0.465100
vn 0.980000 0.183100 0.077500
vn 0.001700 0.035900 -0.999400
vn -0.873000 0.045200 -0.485700
vn -0.726400 0.526900 0.441300
vn 0.867700 0.033600 -0.495900
vn -0.033700 0.629900 0.775900
vn 0.719600 0.412700 0.558400
vn -0.978300 0.186600 0.089900
vn -0.761700 0.182000 -0.621800
vn -0.822800 0.321100 -0.468900
vn 0.809000 0.395100 0.435100
vn 0.007800 0.681100 0.732100
vn 0.960600 0.049200 -0.273600
usemtl default
s 1
f 1//1 2//2 3//2 4//2 5//3 26//4 6//5 7//6 8//7 9//2 10//2 11//2 12//8 13//9 14//10 29//11
f 12//8 11//12 27//13
f 5//3 4//14 18//15
f 3//16 31//17 18//15 4//14
f 34//18 33//19 39//20 15//21
f 19//22 33//19 34//18 20//23
f 35//24 17//25 36//26 22//27
f 8//7 7//6 23//28 36//26
f 33//19 38//29 28//30 39//20
f 23//28 20//23 22//27
f 28//30 29//11 15//21
f 34//18 16//31 35//24
f 33//19 19//22 25//32 38//29
f 36//26 17//25 37//33 24//34
f 14//10 13//9 32//35
f 12//8 27//13 32//35 13//9
f 32//35 15//21 29//11
f 30//36 2//37 1//1
f 24//34 9//38 8//7
f 10//39 9//38 24//34 37//33
f 25//32 18//15 31//17 38//29
f 16//31 34//18 32//35
f 34//18 35//24 22//27 20//23
f 10//39 37//33 27//13 11//12
f 31//17 30//36 28//30 38//29
f 21//40 26//4 25//32
f 21//40 20//23 23//28
f 3//16 2//37 30//36 31//17
f 1//1 29//11 28//30
f 35//24 16//31 17//25
f 25//32 5//3 18//15
f 36//26 23//28 22//27
f 19//22 21//40 25//32
f 16//31 27//13 17//25
f 7//6 6//5 23//28
f 6//5 26//4 23//28
f 14//10 32//35 29//11
f 37//33 17//25 27//13
f 21//40 23//28 26//4
f 19//22 20//23 21//40
f 28//30 30//36 1//1
f 5//3 25//32 26//4
f 36//26 24//34 8//7
f 27//13 16//31 32//35
f 32//35 34//18 15//21
f 39//20 28//30 15//21
g Cylinder1_default
v 0.302604 0.028185 -0.225720
v 0.406111 -0.005296 2.092449
v 0.205945 0.258757 -0.107813
v -0.037344 0.328594 -0.107813
v 0.024631 0.399977 2.154195
v -0.272154 0.306831 2.155897
v -0.258757 0.205945 -0.107813
v -0.328594 -0.037344 -0.107813
v -0.398725 0.002929 2.168162
v -0.296141 -0.286485 2.133875
v -0.190077 -0.236836 -0.223559
v 0.075156 -0.409228 2.094009
v 0.236836 -0.190077 -0.223558
v 0.345181 -0.200177 2.177646
v 0.306831 0.272153 2.155897
v 0.231279 0.061695 2.332357
v 0.121424 0.206480 2.332158
v -0.061690 0.231279 2.332360
v -0.206478 0.121423 2.332158
v -0.231277 -0.061692 2.332357
v -0.121431 -0.206482 2.332155
v 0.017588 -0.307430 2.296811
v 0.206482 -0.121423 2.332158
v 0.112915 0.046770 2.372000
v 0.119870 0.023843 2.372000
v 0.086421 0.086421 2.372000
v 0.067901 0.101620 2.372000
v 0.046771 0.112914 2.372000
v 0.000000 0.122218 2.372000
v -0.023844 0.119869 2.372000
v -0.046771 0.112914 2.372000
v -0.086421 0.086421 2.372000
v -0.101621 0.067900 2.372000
v -0.112915 0.046770 2.372000
v -0.122218 -0.000000 2.372000
v -0.119870 -0.023844 2.372000
v -0.112915 -0.046771 2.372000
v -0.086421 -0.086422 2.372000
v -0.067901 -0.101621 2.372000
v -0.046771 -0.112915 2.372000
v 0.000000 -0.122218 2.372000
v 0.023844 -0.119870 2.372000
v 0.046771 -0.112915 2.372000
v 0.086421 -0.086422 2.372000
v 0.101621 -0.067901 2.372000
v 0.112915 -0.046771 2.372000
v 0.122218 -0.000000 2.372000
v 0.027135 -0.302711 -0.225929
v -0.252284 0.021336 -0.267436
v -0.132048 0.204605 -0.274998
v -0.019741 0.190971 -0.301751
v 0.101248 0.227786 -0.272585
v 0.101296 0.000000 -0.332435
v 0.093585 -0.038764 -0.332435
v 0.084224 -0.056277 -0.332435
v 0.071627 -0.071627 -0.332435
v 0.038764 -0.093585 -0.332435
v 0.019762 -0.099349 -0.332435
v -0.000000 -0.101296 -0.332435
v -0.038764 -0.093585 -0.332435
v -0.056277 -0.084224 -0.332435
v -0.071627 -0.071627 -0.332435
v -0.093585 -0.038764 -0.332435
v -0.099349 -0.019762 -0.332435
v -0.101296 0.000000 -0.332435
v -0.093585 0.038764 -0.332435
v -0.084224 0.056277 -0.332435
v -0.071627 0.071627 -0.332435
v -0.038764 0.093585 -0.332435
v -0.019762 0.099349 -0.332435
v -0.000000 0.101296 -0.332435
v 0.038764 0.093585 -0.332435
v 0.056277 0.084224 -0.332435
v 0.071627 0.071627 -0.332435
v 0.093585 0.038764 -0.332435
v 0.099349 0.019762 -0.332435
vn 0.703000 0.627800 0.334100
vn 0.961400 0.041000 0.272200
vn 0.849600 0.093400 -0.519100
vn -0.970900 -0.114000 -0.210600
vn -0.944100 0.002300 0.329600
vn -0.649200 0.693200 0.313000
vn -0.753000 0.616600 -0.229900
vn 0.038400 0.949400 0.311800
vn -0.087800 0.966500 -0.241300
vn 0.085700 -0.856800 -0.508500
vn 0.170500 -0.968100 0.183500
vn -0.666200 -0.691300 0.279800
vn -0.563300 -0.660900 -0.495900
vn 0.796900 -0.465800 0.384700
vn 0.668700 -0.569200 -0.478400
vn 0.024400 -0.705400 0.708400
vn 0.594900 0.142800 0.791000
vn 0.440600 -0.298100 0.846800
vn 0.207300 0.061900 0.976300
vn 0.223100 0.044000 0.973800
vn 0.267400 0.505400 0.820400
vn 0.134300 0.169900 0.976300
vn 0.130000 0.182300 0.974600
vn -0.151300 0.544600 0.824900
vn -0.026700 0.212100 0.976900
vn -0.063900 0.199000 0.977900
vn -0.078000 0.143500 0.986600
vn -0.501700 0.269700 0.821900
vn -0.171700 0.125600 0.977100
vn -0.184000 0.121800 0.975300
vn -0.539800 -0.171700 0.824100
vn -0.213600 -0.035600 0.976300
vn -0.200700 -0.072700 0.977000
vn -0.145000 -0.086200 0.985700
vn -0.308100 -0.484300 0.818900
vn -0.127100 -0.180200 0.975400
vn -0.123300 -0.192000 0.973600
vn 0.044100 -0.236400 0.970700
vn 0.081500 -0.244300 0.966300
vn 0.100000 -0.201700 0.974300
vn 0.170700 -0.166200 0.971200
vn 0.190200 -0.131500 0.972900
vn 0.220500 0.025000 0.975100
vn 0.034600 0.167100 0.985300
vn -0.168900 0.025500 0.985300
vn -0.027200 -0.177400 0.983800
vn 0.175600 -0.036300 0.983800
vn -0.694800 0.061000 -0.716600
vn -0.385000 0.570900 -0.725100
vn 0.306500 0.655600 -0.690100
vn -0.049600 0.491300 -0.869600
vn 0.645200 0.734000 -0.211800
vn 0.243000 -0.184000 -0.952400
vn 0.261900 -0.196800 -0.944800
vn 0.066600 -0.305300 -0.949900
vn 0.064300 -0.325200 -0.943500
vn 0.025700 -0.316400 -0.948300
vn -0.154500 -0.267200 -0.951200
vn -0.168600 -0.285000 -0.943600
vn -0.267900 -0.098100 -0.958500
vn -0.271600 -0.086700 -0.958500
vn -0.254800 -0.047300 -0.965800
vn -0.199400 0.140400 -0.969800
vn -0.245100 0.127500 -0.961100
vn -0.018600 0.167900 -0.985600
vn -0.044400 0.197600 -0.979300
vn -0.013500 0.188300 -0.982000
vn 0.131900 0.169300 -0.976700
vn 0.150800 0.189900 -0.970200
vn 0.291600 0.064500 -0.954400
vn 0.304600 0.036700 -0.951800
vn 0.294400 0.003100 -0.955700
vn 0.152700 -0.222300 -0.962900
vn -0.192700 -0.178700 -0.964800
vn -0.105800 0.122700 -0.986800
vn 0.182700 0.111400 -0.976800
usemtl default
s 1
f 54//41 41//42 40//43
f 47//44 48//45 45//46 46//47
f 45//46 44//48 43//49
f 87//50 51//51 49//52 50//53
f 49//52 48//45 47//44
f 40//43 41//42 53//54 52//55
f 53//54 51//51 52//55
f 41//42 54//41 53//54
f 51//51 53//54 61//56
f 55//57 62//58 53//54
f 55//57 63//59 64//60
f 55//57 56//61 65//62
f 56//61 66//63 65//62
f 57//64 68//65 56//61
f 57//64 70//66 69//67
f 57//64 58//68 71//69
f 58//68 72//70 71//69
f 59//71 74//72 58//68
f 59//71 76//73 75//74
f 59//71 60//75 77//76
f 60//75 78//77 77//76
f 61//56 80//78 60//75
f 61//56 82//79 81//80
f 61//56 62//58 83//81
f 62//58 84//82 83//81
f 55//57 86//83 62//58
f 64//60 86//83 55//57
f 64//60 63//59 55//57 65//62 66//63 67//84 56//61 68//65 69//67 70//66 57//64 71//69 72//70 73//85 58//68 74//72 75//74 76//73 59//71 77//76 78//77 79//86 60//75 80//78 81//80 82//79 61//56 83//81 84//82 85//87 62//58 86//83
f 47//44 88//88 50//53
f 89//89 46//47 43//49
f 89//89 91//90 90//91
f 91//90 89//89 43//49
f 91//90 43//49 42//92
f 42//92 40//43 91//90
f 40//43 52//55 93//93
f 52//55 94//94 93//93
f 87//50 96//95 52//55
f 87//50 97//96 96//95
f 87//50 98//97 97//96
f 87//50 50//53 99//98
f 50//53 100//99 99//98
f 88//88 102//100 50//53
f 88//88 103//101 102//100
f 88//88 104//102 103//101
f 88//88 89//89 105//103
f 89//89 106//104 105//103
f 90//91 108//105 89//89
f 90//91 109//106 108//105
f 90//91 110//107 109//106
f 90//91 91//90 111//108
f 91//90 112//109 111//108
f 40//43 114//110 91//90
f 40//43 115//111 114//110
f 92//112 40//43 93//93 94//94 95//113 52//55 96//95 97//96 98//97 87//50 99//98 100//99 101//114 50//53 102//100 103//101 104//102 88//88 105//103 106//104 107//115 89//89 108//105 109//106 110//107 90//91 111//108 112//109 113//116 91//90 114//110 115//111
f 42//92 54//41 40//43
f 46//47 45//46 43//49
f 50//53 49//52 47//44
f 52//55 51//51 87//50
f 53//54 54//41 55//57
f 55//57 54//41 56//61
f 54//41 44//48 56//61
f 56//61 44//48 57//64
f 44//48 45//46 57//64
f 57//64 45//46 58//68
f 45//46 48//45 58//68
f 58//68 48//45 59//71
f 48//45 49//52 59//71
f 59//71 49//52 60//75
f 49//52 61//56 60//75
f 49//52 51//51 61//56
f 61//56 53//54 62//58
f 66//63 56//61 67//84
f 68//65 57//64 69//67
f 72//70 58//68 73//85
f 74//72 59//71 75//74
f 78//77 60//75 79//86
f 80//78 61//56 81//80
f 84//82 62//58 85//87
f 43//49 44//48 54//41 42//92
f 47//44 46//47 88//88
f 88//88 46//47 89//89
f 94//94 52//55 95//113
f 100//99 50//53 101//114
f 106//104 89//89 107//115
f 112//109 91//90 113//116
f 92//112 115//111 40//43
