# Blender v2.75 (sub 0) OBJ File: ''
# www.blender.org
mtllib boidLo.mtl
o Cylinder1_default
v 0.216293 0.051139 0.153113
v 0.450524 -0.029663 0.139962
v 1.273232 -0.033671 -0.427597
v -0.216293 -0.051139 0.153113
v -0.450524 0.029663 0.139962
v -1.273232 0.033671 -0.427597
v -0.543094 0.047645 0.246344
v -0.225821 0.053926 0.522895
v -0.451705 -0.029537 0.139472
v 0.543094 -0.047645 0.246344
v 0.225821 -0.053926 0.522895
v 0.451705 0.029537 0.139472
v -0.649617 0.049214 0.361923
v -1.016151 -0.050345 0.037201
v -0.666904 0.022303 0.044587
v -0.669922 -0.027202 0.042416
v -0.678476 -0.052216 0.343610
v 0.748848 -0.049764 0.288675
v 1.016151 0.050345 0.037201
v 0.666904 -0.022303 0.044587
v 0.669922 0.027202 0.042416
v 0.678476 0.052216 0.343610
v -1.268600 0.048411 -0.316949
v -1.098873 0.019506 -0.356581
v -1.097145 -0.024657 -0.349003
v -1.260796 -0.049233 -0.302217
v -1.269784 -0.026902 -0.433403
v 1.268600 -0.048411 -0.316949
v 1.098873 -0.019506 -0.356581
v 1.097145 0.024657 -0.349003
v 1.260796 0.049233 -0.302217
v 1.269784 0.026902 -0.433403
v 0.496704 -0.046486 0.428926
v 1.059525 -0.050230 -0.013382
v -1.059525 0.050230 -0.013382
v -0.021829 0.064133 -0.769945
v -0.049605 0.000000 -0.841684
v 0.012972 0.008093 -1.009268
v -0.007190 0.080120 0.906448
v -0.037096 -0.015631 0.971018
v -0.225680 -0.052335 0.524175
v -0.016910 -0.114677 0.798344
v 0.039263 -0.036276 0.950741
v 0.009269 0.016262 1.002510
v -0.092181 0.178186 0.260276
v 0.003260 0.208409 0.268751
v -0.053620 0.175031 0.549320
v -0.070042 -0.147961 -0.115643
v -0.084158 -0.180123 0.447226
v -0.003260 -0.208409 0.268751
v 0.004640 -0.054470 -0.859239
v 0.053620 -0.175032 0.549320
v 0.092181 -0.178187 0.260276
v 0.070042 0.147961 -0.115643
v 0.084158 0.180122 0.447226
v 0.225680 0.052335 0.524175
v -0.215514 0.053155 0.155250
v 0.215514 -0.053155 0.155250
vn -0.381300 0.708400 -0.594000
vn 0.406500 0.662400 0.629300
vn 0.671200 0.716200 0.191100
vn -0.116200 -0.668900 -0.734200
vn -0.451600 -0.606500 -0.654400
vn -0.087700 -0.982400 -0.164900
vn 0.381300 -0.708400 -0.594000
vn -0.423700 -0.680800 0.597600
vn -0.671200 -0.716200 0.191100
vn 0.116200 0.668900 -0.734200
vn 0.451600 0.606500 -0.654400
vn 0.084900 0.982400 -0.166500
vn -0.375100 0.661300 0.649600
vn -0.569300 0.675700 0.468400
vn -0.536700 -0.669700 0.513300
vn 0.464300 -0.683800 0.562900
vn 0.646300 -0.614400 0.452500
vn 0.704200 -0.691700 0.160400
vn 0.575300 -0.671400 0.467200
vn 0.528800 0.688800 0.495900
vn -0.704500 0.690900 0.162400
vn -0.501300 0.551500 -0.666800
vn -0.448400 -0.489600 -0.747800
vn 0.474200 0.542100 -0.693700
vn 0.501300 -0.551500 -0.666800
vn 0.448400 0.489600 -0.747800
vn -0.474200 -0.542100 -0.693700
vn -0.442300 0.648700 -0.619300
vn 0.442300 -0.648700 -0.619300
vn -0.660300 0.659700 -0.359000
vn -0.622000 -0.690900 -0.368400
vn 0.222400 0.584000 -0.780700
vn 0.657900 -0.659800 -0.363100
vn 0.622800 0.689500 -0.369700
vn -0.222400 -0.584000 -0.780700
vn 0.438100 0.887200 -0.145100
vn 0.395100 0.911800 0.111900
vn 0.667000 0.635700 0.388700
vn 0.323000 -0.578400 0.749100
vn -0.712400 -0.583800 0.389400
vn -0.261300 0.942000 0.210800
vn 0.055600 0.997900 -0.034600
vn -0.508700 0.859300 -0.052800
vn -0.297200 0.932500 -0.205100
vn -0.449000 -0.882900 -0.137500
vn 0.075400 -0.941900 -0.327200
vn -0.054200 -0.997900 -0.035400
vn -0.403000 -0.909300 0.104200
vn 0.276100 -0.939600 0.202400
vn -0.156500 -0.919200 0.361300
vn 0.482800 -0.874400 -0.048000
vn 0.594200 -0.549300 0.587500
vn -0.115700 0.859400 0.498100
vn -0.968700 -0.036100 -0.245700
vn -0.660400 0.605600 0.443900
vn 0.073400 0.031800 -0.996800
vn -0.626200 -0.312300 0.714400
vn 0.113700 0.237700 0.964700
usemtl default
s 1
f 21//1 22//2 31//3
f 2//4 20//5 10//6
f 16//7 17//8 26//9
f 5//10 15//11 7//12
f 17//8 13//13 35//14 14//15
f 18//16 11//17 28//18 34//19
f 14//15 26//9 17//8
f 22//2 18//16 34//19 19//20
f 26//9 23//21 6//22 27//23
f 19//20 31//3 22//2
f 24//24 27//23 6//22
f 31//3 28//18 3//25 32//26
f 29//27 32//26 3//25
f 30//28 29//27 20//5 21//1
f 25//29 24//24 15//11 16//7
f 28//18 31//3 34//19
f 57//30 4//31 9//32 5//10
f 23//21 26//9 35//14
f 58//33 1//34 12//35 2//4
f 54//36 55//37 56//38 1//34
f 2//4 21//1 20//5
f 5//10 16//7 15//11
f 57//30 5//10 7//12
f 18//16 33//39 11//17
f 58//33 2//4 10//6
f 1//34 56//38 22//2
f 4//31 41//40 17//8
f 47//41 46//42 45//43
f 45//43 36//44 57//30
f 48//45 51//46 50//47
f 49//48 50//47 52//49
f 49//48 52//49 42//50
f 52//49 50//47 53//51
f 52//49 43//52 42//50
f 53//51 51//46 58//33
f 48//45 49//48 41//40 4//31
f 54//36 36//44 46//42
f 55//37 46//42 47//41
f 55//37 47//41 39//53
f 48//45 4//31 37//54 51//46
f 57//30 37//54 4//31
f 8//55 45//43 57//30
f 47//41 45//43 8//55
f 8//55 39//53 47//41
f 58//33 38//56 1//34
f 11//17 53//51 58//33
f 52//49 53//51 11//17
f 11//17 43//52 52//49
f 39//53 8//55 40//57
f 41//40 42//50 40//57
f 56//38 39//53 44//58
f 41//40 40//57 8//55
f 56//38 43//52 11//17
f 38//56 37//54 36//44
f 38//56 51//46 37//54
f 44//58 39//53 40//57
f 44//58 40//57 43//52
f 1//34 22//2 21//1
f 11//17 10//6 28//18
f 3//25 28//18 10//6
f 4//31 17//8 16//7
f 8//55 7//12 23//21
f 6//22 23//21 7//12
f 41//40 8//55 13//13
f 17//8 41//40 13//13
f 56//38 11//17 33//39
f 22//2 56//38 33//39
f 25//29 27//23 24//24
f 30//28 32//26 29//27
f 12//35 21//1 2//4
f 10//6 29//27 3//25
f 9//32 16//7 5//10
f 7//12 24//24 6//22
f 1//34 21//1 12//35
f 30//28 21//1 31//3
f 4//31 16//7 9//32
f 25//29 16//7 26//9
f 15//11 24//24 7//12
f 20//5 29//27 10//6
f 57//30 7//12 8//55
f 58//33 10//6 11//17
f 33//39 18//16 22//2
f 32//26 30//28 31//3
f 19//20 34//19 31//3
f 13//13 8//55 23//21 35//14
f 27//23 25//29 26//9
f 14//15 35//14 26//9
f 54//36 38//56 36//44
f 43//52 40//57 42//50
f 45//43 46//42 36//44
f 53//51 50//47 51//46
f 37//54 57//30 36//44
f 38//56 58//33 51//46
f 54//36 1//34 38//56
f 44//58 43//52 56//38
f 42//50 41//40 49//48
f 50//47 49//48 48//45
f 39//53 56//38 55//37
f 46//42 55//37 54//36
