# Blender v2.75 (sub 0) OBJ File: ''
# www.blender.org
mtllib boidMed.mtl
o Cylinder1_default
v 0.737974 0.051183 0.128275
v 0.746899 0.033421 0.015400
v 0.427047 0.052412 0.257418
v 0.482290 0.027849 0.131896
v 0.479015 0.054492 0.405822
v 1.043413 0.042422 -0.204044
v 0.737974 -0.051183 0.128275
v 1.202461 -0.051720 -0.212166
v 0.746899 -0.033420 0.015396
v 0.427047 -0.052412 0.257418
v 0.479013 -0.054492 0.405822
v 0.493508 -0.036491 0.164380
v 0.599322 -0.024785 0.082220
v 1.043427 -0.042421 -0.204056
v -0.737974 -0.051183 0.128275
v -0.746899 -0.033421 0.015400
v -0.427047 -0.052412 0.257418
v -0.482290 -0.027849 0.131896
v -0.479015 -0.054492 0.405822
v -1.043413 -0.042422 -0.204044
v -0.737974 0.051183 0.128275
v -1.202461 0.051720 -0.212166
v -0.746899 0.033420 0.015396
v -0.427047 0.052412 0.257418
v -0.479013 0.054492 0.405822
v -0.493508 0.036491 0.164380
v -0.599322 0.024785 0.082220
v -1.043427 0.042421 -0.204056
v -0.281791 0.054497 0.326387
v -0.226463 0.052863 0.522583
v -0.380722 0.030077 0.474922
v -0.502857 0.049415 0.422211
v -0.215203 -0.046335 0.150185
v -0.350370 -0.018534 0.145667
v -0.217333 -0.052966 0.156700
v -0.338571 -0.039629 0.154007
v -0.281791 -0.054497 0.326387
v -0.401230 -0.048406 0.463043
v -0.226097 -0.052701 0.524281
v 0.281791 -0.054497 0.326387
v 0.226463 -0.052863 0.522583
v 0.380722 -0.030077 0.474922
v 0.502857 -0.049415 0.422211
v 0.215203 0.046335 0.150185
v 0.350370 0.018534 0.145667
v 0.217333 0.052966 0.156700
v 0.338571 0.039629 0.154007
v 0.281791 0.054497 0.326387
v 0.401230 0.048406 0.463043
v 0.226097 0.052701 0.524280
v -0.700027 0.051748 0.313007
v -0.976875 0.048784 0.076309
v -0.833775 0.048750 0.216476
v -0.972946 -0.029111 0.086929
v -0.830822 -0.029045 0.224918
v -0.709774 0.019852 0.003807
v -0.822540 0.018317 -0.095886
v -0.592974 -0.017014 0.080051
v -0.610835 -0.034584 0.115375
v -0.823608 -0.020109 -0.094604
v -0.702061 -0.017028 0.006626
v -0.692116 -0.048714 0.321960
v -0.688412 0.028959 0.329754
v -0.986076 -0.051975 0.061432
v -0.827641 -0.051506 0.217945
v 0.700027 -0.051748 0.313007
v 0.976875 -0.048785 0.076309
v 0.833775 -0.048750 0.216476
v 0.972946 0.029111 0.086929
v 0.830822 0.029045 0.224918
v 0.709774 -0.019852 0.003807
v 0.822540 -0.018316 -0.095886
v 0.592974 0.017014 0.080051
v 0.610835 0.034584 0.115375
v 0.823608 0.020109 -0.094604
v 0.702061 0.017028 0.006626
v 0.692116 0.048714 0.321960
v 0.688412 -0.028959 0.329754
v 0.986076 0.051975 0.061432
v 0.827641 0.051506 0.217945
v -1.275179 0.045687 -0.337878
v -1.288157 0.034036 -0.404499
v -1.124104 0.021236 -0.372236
v -1.205231 -0.021053 -0.419250
v -1.202873 0.020194 -0.416917
v -1.028412 0.009135 -0.294800
v -1.122566 -0.020945 -0.368888
v -1.271945 -0.046063 -0.334974
v -1.286608 -0.034848 -0.402435
v -1.212273 -0.029070 -0.217430
v 1.275179 -0.045686 -0.337878
v 1.288157 -0.034036 -0.404499
v 1.124104 -0.021236 -0.372236
v 1.205231 0.021054 -0.419250
v 1.202873 -0.020194 -0.416917
v 1.028412 -0.009135 -0.294800
v 1.122566 0.020945 -0.368888
v 1.271945 0.046063 -0.334974
v 1.286608 0.034848 -0.402435
v 1.212273 0.029070 -0.217430
v 0.478468 -0.021444 0.128495
v 0.545692 0.048709 0.402744
v 0.541130 -0.028870 0.409740
v 1.260673 0.023230 -0.429512
v 1.261437 -0.021829 -0.430727
v 1.030609 0.021682 -0.290833
v 1.101898 0.048908 -0.071213
v 1.106125 -0.028823 -0.068634
v 1.198910 0.051877 -0.211029
v 0.345598 -0.038266 0.150755
v 1.096008 -0.051482 -0.067993
v -0.478468 0.021444 0.128495
v -0.545692 -0.048709 0.402744
v -0.541130 0.028870 0.409740
v -1.260673 -0.023230 -0.429512
v -1.261437 0.021829 -0.430727
v -1.030609 -0.021682 -0.290833
v -1.101898 -0.048908 -0.071213
v -1.106125 0.028823 -0.068634
v -1.198910 -0.051877 -0.211029
v -0.345598 0.038266 0.150755
v -1.096008 0.051482 -0.067993
v -0.020728 0.045392 -0.844421
v 0.014767 0.045229 -0.861914
v -0.042449 0.103063 -0.477005
v -0.000000 0.118777 -0.432667
v -0.051747 0.013514 -0.815140
v -0.050320 -0.018798 -0.810907
v -0.014767 -0.045229 -0.861914
v 0.020728 -0.045392 -0.844421
v 0.051747 -0.013514 -0.815140
v 0.050320 0.018798 -0.810907
v -0.015846 0.050173 0.941210
v -0.014307 0.122179 0.763199
v -0.061123 0.101336 0.762680
v -0.126438 0.060808 0.718906
v -0.057642 0.014389 0.923183
v -0.160569 -0.000000 0.689811
v -0.056263 -0.019650 0.921144
v -0.126438 -0.060808 0.718906
v -0.021636 -0.049846 0.935132
v -0.044547 -0.109141 0.772308
v 0.014307 -0.122179 0.763199
v 0.015846 -0.050173 0.941210
v 0.061123 -0.101337 0.762680
v 0.126438 -0.060808 0.718906
v 0.057641 -0.014391 0.923183
v 0.160569 -0.000000 0.689811
v 0.056263 0.019649 0.921144
v 0.126438 0.060808 0.718906
v 0.021636 0.049846 0.935132
v 0.044547 0.109140 0.772308
v -0.041829 0.175789 0.042267
v -0.098536 0.145464 0.037012
v 0.020634 0.179718 0.018648
v -0.109051 0.163298 0.336560
v -0.022482 0.203334 0.322310
v -0.020979 0.183947 0.530721
v -0.102979 0.142339 0.552289
v -0.216607 0.052574 0.155017
v -0.179796 0.096762 0.341885
v -0.163898 0.091775 0.528703
v -0.098538 -0.145464 0.037003
v -0.042442 -0.103056 -0.477013
v -0.194710 -0.058297 0.064747
v -0.102978 -0.142339 0.552281
v -0.109052 -0.163298 0.336562
v -0.163898 -0.091775 0.528703
v -0.179796 -0.096762 0.341885
v -0.020634 -0.179718 0.018648
v -0.000000 -0.118777 -0.432667
v 0.022482 -0.203335 0.322310
v -0.048173 -0.195211 0.332400
v -0.042025 -0.176625 0.536433
v 0.020979 -0.183948 0.530721
v 0.041829 -0.175789 0.042267
v 0.042449 -0.103063 -0.477005
v 0.098536 -0.145464 0.037012
v 0.109051 -0.163298 0.336560
v 0.102979 -0.142339 0.552289
v 0.216607 -0.052574 0.155017
v 0.179796 -0.096762 0.341885
v 0.163898 -0.091775 0.528703
v 0.098538 0.145464 0.037003
v 0.109052 0.163298 0.336562
v 0.179796 0.096762 0.341885
v 0.194710 0.058297 0.064747
v 0.042442 0.103056 -0.477013
v 0.102978 0.142339 0.552281
v 0.048173 0.195211 0.332400
v 0.042025 0.176624 0.536433
v -0.196671 0.051640 0.051544
v -0.152299 0.000000 -0.238358
v 0.196671 -0.051640 0.051544
v 0.152299 0.000000 -0.238358
v 0.163898 0.091775 0.528703
v -0.000000 0.000000 -1.000000
v -0.000000 -0.000000 1.000000
vn -0.070800 0.992400 -0.100900
vn -0.118600 0.981800 -0.148500
vn -0.202800 0.949200 -0.240700
vn 0.046100 0.992400 0.113900
vn 0.471300 0.831800 0.293200
vn -0.001500 0.996100 -0.088300
vn -0.184000 0.687500 -0.702500
vn 0.042800 0.796200 -0.603500
vn 0.646900 0.749700 0.139700
vn -0.191600 -0.953200 -0.234100
vn -0.122300 -0.981100 -0.150100
vn -0.071500 -0.992300 -0.101400
vn 0.003100 0.997300 -0.073100
vn 0.059300 0.957100 -0.283600
vn 0.346800 0.674200 -0.652100
vn 0.069700 0.992000 -0.104800
vn 0.070800 -0.992400 -0.100900
vn 0.118600 -0.981800 -0.148500
vn 0.202800 -0.949200 -0.240700
vn -0.046100 -0.992400 0.113900
vn -0.471300 -0.831800 0.293200
vn 0.001500 -0.996100 -0.088300
vn 0.184000 -0.687500 -0.702500
vn -0.042800 -0.796200 -0.603500
vn -0.646900 -0.749700 0.139700
vn 0.191600 0.953500 -0.232700
vn 0.122300 0.981100 -0.150100
vn -0.736200 -0.103100 -0.668800
vn -0.550200 -0.764600 -0.335500
vn 0.083400 -0.142400 -0.986300
vn -0.653200 0.563200 0.506100
vn -0.300200 0.689000 0.659600
vn -0.342200 0.144100 0.928500
vn 0.736200 0.103100 -0.668800
vn 0.550200 0.764600 -0.335500
vn -0.083400 0.142400 -0.986300
vn 0.653200 -0.563200 0.506100
vn 0.300200 -0.689000 0.659600
vn 0.342200 -0.144100 0.928500
vn -0.338200 0.787200 0.515700
vn -0.037700 0.995500 0.087200
vn -0.564800 0.756600 0.329400
vn -0.471000 0.801000 0.369500
vn -0.489200 0.667200 0.561800
vn -0.537900 0.674700 0.505400
vn -0.643800 -0.136000 0.753000
vn -0.712500 -0.138400 0.687900
vn 0.524000 -0.508700 -0.683100
vn 0.483500 0.585600 -0.650600
vn 0.394000 -0.506200 -0.767200
vn -0.459400 -0.790800 0.404400
vn -0.400100 -0.800200 0.446700
vn 0.561800 -0.556500 -0.612100
vn 0.582500 0.501500 -0.639700
vn -0.408500 -0.653900 0.636800
vn -0.516000 0.142800 0.844600
vn 0.338200 -0.787200 0.515700
vn 0.037700 -0.995500 0.087200
vn 0.567300 -0.755000 0.328800
vn 0.471000 -0.801000 0.369500
vn 0.489200 -0.667200 0.561800
vn 0.537900 -0.674700 0.505400
vn 0.643800 0.136000 0.753000
vn 0.712500 0.138400 0.687900
vn -0.524000 0.508700 -0.683100
vn -0.483500 -0.585600 -0.650600
vn -0.338400 -0.674300 -0.656300
vn -0.394000 0.506200 -0.767200
vn 0.459400 0.790800 0.404400
vn 0.400100 0.800200 0.446700
vn -0.561800 0.556500 -0.612100
vn -0.582500 -0.501500 -0.639700
vn 0.408500 0.653900 0.636800
vn 0.516000 -0.142800 0.844600
vn -0.664300 0.732400 0.149500
vn -0.707900 0.634300 -0.310700
vn -0.701700 -0.640700 -0.311800
vn 0.457600 0.591500 -0.663900
vn 0.318000 -0.580200 -0.749800
vn 0.311500 0.591400 -0.743700
vn 0.662800 -0.734000 0.148100
vn 0.707900 -0.634300 -0.310700
vn 0.701700 0.640700 -0.311800
vn -0.457600 -0.591500 -0.663900
vn -0.318000 0.580200 -0.749800
vn -0.311500 -0.591400 -0.743700
vn 0.339700 0.648800 0.681000
vn 0.297700 0.615800 0.729500
vn 0.441600 -0.137000 0.886700
vn -0.186900 -0.533200 -0.825100
vn 0.204300 -0.536200 -0.819000
vn 0.180000 0.448300 -0.875600
vn -0.501300 0.642000 -0.580100
vn -0.651200 -0.236100 -0.721200
vn -0.007000 -0.672300 -0.740300
vn -0.339700 -0.648800 0.681000
vn -0.297700 -0.615800 0.729500
vn -0.441600 0.137000 0.886700
vn 0.782000 -0.130400 0.609500
vn 0.843900 0.136300 0.519000
vn 0.186900 0.533200 -0.825100
vn -0.204300 0.536200 -0.819000
vn -0.180000 -0.448300 -0.875600
vn 0.501300 -0.642000 -0.580100
vn 0.651200 0.236100 -0.721200
vn 0.007000 0.672300 -0.740300
vn 0.452000 -0.623400 -0.638000
vn -0.782000 0.130400 0.609500
vn -0.843900 -0.136300 0.519000
vn -0.452000 0.623400 -0.638000
vn -0.127500 0.949200 -0.287700
vn 0.127500 -0.949200 -0.287700
vn -0.636300 0.709500 -0.302900
vn -0.621600 -0.612400 0.488300
vn 0.621600 0.612400 0.488300
vn 0.010000 0.999900 -0.004000
vn -0.009100 1.000000 -0.002700
vn -0.010000 -0.999900 -0.004000
vn 0.008300 -0.996100 -0.088100
vn 0.009100 -1.000000 -0.002700
vn 0.636300 -0.709500 -0.302900
vn -0.060500 -0.961400 -0.268500
vn 0.370200 0.877900 -0.303800
vn -0.489000 0.847300 -0.207300
vn -0.464800 0.869100 -0.168900
vn 0.023300 0.989100 -0.145100
vn 0.683500 0.613600 0.395300
vn -0.685100 -0.612800 0.393900
vn -0.842900 0.262500 0.469700
vn -0.348700 0.771700 0.531900
vn -0.529600 0.787300 0.315800
vn -0.685000 0.650300 0.328500
vn -0.134200 0.940900 0.311100
vn 0.298800 -0.811500 0.502100
vn -0.366000 -0.772600 0.518700
vn -0.405600 -0.852100 0.330800
vn 0.131900 -0.941000 0.311600
vn -0.920300 0.002800 0.391100
vn -0.772900 -0.393700 0.497600
vn -0.674400 -0.662800 0.325300
vn 0.842900 -0.262500 0.469700
vn 0.529600 -0.787300 0.315800
vn 0.685000 -0.650300 0.328500
vn 0.366000 0.772600 0.518700
vn 0.405600 0.852100 0.330800
vn 0.920300 -0.002800 0.391100
vn 0.772900 0.393700 0.497600
vn 0.674400 0.662800 0.325300
vn -0.292900 0.950900 -0.100300
vn 0.154800 0.981600 -0.111600
vn -0.576100 0.810100 -0.108400
vn -0.557800 0.829900 0.013100
vn -0.166900 0.985900 0.009500
vn -0.551100 0.814700 0.180700
vn -0.151400 0.973400 0.172000
vn -0.891300 0.423500 -0.161800
vn -0.656000 0.754700 0.000200
vn -0.599800 0.782700 0.166300
vn -0.567000 -0.801100 0.191900
vn -0.598300 -0.783700 0.166700
vn -0.656900 -0.754000 -0.001200
vn -0.572900 -0.819600 0.006500
vn -0.283400 -0.943000 0.174600
vn -0.292500 -0.956100 0.015700
vn 0.167100 -0.985900 0.006400
vn 0.153000 -0.973300 0.170900
vn -0.488700 -0.857000 -0.163500
vn -0.023300 -0.989200 -0.144700
vn -0.154700 -0.981600 -0.111600
vn -0.564700 -0.819300 -0.099600
vn 0.292900 -0.951000 -0.099300
vn 0.576100 -0.810100 -0.108400
vn 0.554500 -0.832100 0.011100
vn 0.467800 -0.867300 -0.170100
vn 0.551100 -0.814700 0.180700
vn 0.891300 -0.423500 -0.161800
vn 0.656100 -0.754700 -0.001600
vn 0.599800 -0.782700 0.166300
vn 0.566600 0.817400 -0.104500
vn 0.566600 0.823900 0.013900
vn 0.657600 0.753300 -0.009500
vn 0.805300 0.581500 -0.115200
vn 0.283400 0.943000 0.174600
vn 0.292500 0.956100 0.015700
vn 0.485300 0.858500 -0.165600
vn 0.566200 0.804700 0.178400
vn -0.809800 -0.575900 -0.111600
vn -0.986000 0.004900 -0.166600
vn 0.986000 -0.004900 -0.166600
vn -0.934300 0.272400 -0.229900
vn 0.598600 0.783500 0.166700
vn -0.891500 -0.412800 -0.186500
vn -0.341200 -0.898000 -0.277900
vn 0.489000 -0.847300 -0.207300
vn 0.934300 -0.272400 -0.229900
vn 0.891500 0.412800 -0.186500
vn 0.000000 0.000000 -1.000000
vn 0.000000 -0.000000 1.000000
usemtl default
s 1
f 1//1 6//2 2//3
f 1//1 5//4 109//5
f 3//6 4//7 47//8
f 109//5 98//9 6//2
f 9//10 14//11 7//12
f 24//13 26//14 27//15 21//16
f 15//17 20//18 16//19
f 15//17 19//20 120//21
f 17//22 18//23 36//24
f 120//21 88//25 20//18
f 23//26 28//27 21//16
f 33//28 35//29 36//24 34//30
f 30//31 32//32 31//33
f 44//34 46//35 47//8 45//36
f 41//37 43//38 42//39
f 51//40 25//41 22//42 122//43
f 53//44 51//40 122//43 52//45
f 55//46 53//44 52//45 54//47
f 61//48 56//49 27//15 58//50
f 55//46 54//47 64//51 65//52
f 16//19 60//53 61//48
f 60//53 57//54 61//48
f 62//55 63//56 55//46
f 65//52 64//51 120//21 19//20
f 66//57 11//58 8//59 111//60
f 68//61 66//57 111//60 67//62
f 70//63 68//61 67//62 69//64
f 76//65 71//66 13//67 73//68
f 70//63 69//64 79//69 80//70
f 2//3 75//71 76//65
f 75//71 72//72 76//65
f 77//73 78//74 70//63
f 80//70 79//69 109//5 5//4
f 88//25 81//75 82//76 89//77
f 83//78 84//79 85//80
f 98//9 91//81 92//82 99//83
f 93//84 94//85 95//86
f 102//87 49//88 42//39 103//89
f 4//7 101//90 45//36
f 4//7 45//36 47//8
f 105//91 104//92 99//83 92//82
f 5//4 49//88 102//87
f 104//92 105//91 94//85
f 106//93 96//94 72//72 75//71
f 105//91 92//82 93//84 95//86
f 103//89 42//39 43//38
f 101//90 110//95 45//36
f 105//91 95//86 94//85
f 113//96 38//97 31//33 114//98
f 108//99 69//64 67//62
f 8//59 100//100 108//99
f 18//23 112//101 34//30
f 18//23 34//30 36//24
f 116//102 115//103 89//77 82//76
f 19//20 38//97 113//96
f 115//103 116//102 84//79
f 117//104 86//105 57//54 60//53
f 116//102 82//76 83//78 85//80
f 114//98 31//33 32//32
f 112//101 121//106 34//30
f 116//102 85//80 84//79
f 84//79 87//107 117//104 20//18
f 119//108 54//47 52//45
f 22//42 90//109 119//108
f 94//85 97//110 106//93 6//2
f 3//6 1//1 74//111 4//7
f 17//22 15//17 59//112 18//23
f 13//67 9//10 7//12
f 113//96 62//55 65//52 19//20
f 27//15 23//26 21//16
f 102//87 77//73 80//70 5//4
f 160//113 33//28 34//30 121//106
f 64//51 54//47 118//114
f 79//69 69//64 107//115
f 25//41 29//116 24//13
f 3//6 48//117 5//4
f 11//58 40//118 10//119
f 17//22 37//120 19//20
f 181//121 44//34 45//36 110//95
f 121//106 26//14 24//13
f 61//48 58//50 59//112 16//19
f 110//95 12//122 10//119
f 56//49 57//54 23//26
f 76//65 73//68 74//111 2//3
f 71//66 72//72 9//10
f 83//78 86//105 117//104 87//107
f 90//109 22//42 81//75
f 93//84 96//94 106//93 97//110
f 100//100 8//59 91//81
f 103//89 78//74 77//73 102//87
f 103//89 43//38 66//57 78//74
f 114//98 63//56 62//55 113//96
f 101//90 73//68 13//67
f 14//11 91//81 8//59
f 114//98 32//32 51//40 63//56
f 124//123 123//124 125//125 126//126
f 112//101 58//50 27//15
f 28//27 81//75 22//42
f 51//40 32//32 25//41
f 59//112 58//50 18//23
f 13//67 71//66 9//10
f 117//104 60//53 16//19
f 160//113 121//106 24//13
f 88//25 120//21 90//109
f 106//93 75//71 2//3
f 5//4 50//127 49//88
f 27//15 56//49 23//26
f 74//111 73//68 4//7
f 98//9 109//5 100//100
f 19//20 39//128 38//97
f 66//57 43//38 11//58
f 96//94 93//84 72//72
f 181//121 110//95 10//119
f 86//105 83//78 57//54
f 35//29 17//22 36//24
f 46//35 3//6 47//8
f 29//116 25//41 30//31
f 29//116 160//113 24//13
f 48//117 3//6 46//35
f 48//117 50//127 5//4
f 37//120 17//22 35//29
f 37//120 39//128 19//20
f 40//118 11//58 41//37
f 40//118 181//121 10//119
f 43//38 41//37 11//58
f 32//32 30//31 25//41
f 137//129 133//130 135//131 136//132
f 133//130 134//133 135//131
f 144//134 141//135 142//136 143//137
f 30//31 138//138 137//129
f 139//139 39//128 140//140
f 147//141 144//134 145//142 146//143
f 144//134 143//137 145//142
f 133//130 151//144 152//145 134//133
f 41//37 148//146 147//141
f 149//147 50//127 150//148
f 153//149 155//150 126//126 125//125
f 153//149 154//151 156//152 157//153
f 159//154 158//155 157//153 156//152
f 158//155 159//154 135//131 134//133
f 160//113 154//151 125//125 192//156
f 154//151 160//113 161//157 156//152
f 159//154 156//152 161//157 162//158
f 135//131 159//154 162//158 136//132
f 166//159 168//160 169//161 167//162
f 174//163 173//164 172//165 175//166
f 164//167 171//168 170//169
f 170//169 163//170 164//167
f 142//136 174//163 175//166 143//137
f 173//164 174//163 166//159 167//162
f 176//171 178//172 179//173 172//165
f 176//171 170//169 171//168 177//174
f 180//175 175//166 172//165 179//173
f 175//166 180//175 145//142 143//137
f 181//121 178//172 177//174 194//176
f 180//175 179//173 182//177 183//178
f 145//142 180//175 183//178 146//143
f 184//179 185//180 186//181 187//182
f 191//183 190//184 157//153 158//155
f 188//185 126//126 155//150
f 155//150 184//179 188//185
f 152//145 191//183 158//155 134//133
f 190//184 191//183 189//186 185//180
f 163//170 167//162 169//161 165//187
f 160//113 192//156 193//188 33//28
f 181//121 194//176 195//189 44//34
f 30//31 161//157 160//113
f 162//158 161//157 30//31
f 30//31 136//132 162//158
f 39//128 169//161 168//160
f 127//190 192//156 125//125 123//124
f 41//37 182//177 181//121
f 183//178 182//177 41//37
f 41//37 146//143 183//178
f 50//127 186//181 196//191
f 128//192 33//28 193//188 127//190
f 127//190 193//188 192//156
f 165//187 33//28 128//192
f 164//167 165//187 128//192 129//193
f 177//174 171//168 129//193 130//194
f 171//168 164//167 129//193
f 131//195 194//176 177//174 130//194
f 132//196 44//34 195//189 131//195
f 131//195 195//189 194//176
f 187//182 44//34 132//196
f 188//185 187//182 132//196 124//123
f 139//139 137//129 138//138 39//128
f 136//132 30//31 137//129
f 139//139 140//140 142//136 141//135
f 149//147 147//141 148//146 50//127
f 146//143 41//37 147//141
f 149//147 150//148 152//145 151//144
f 142//136 140//140 168//160 166//159
f 157//153 155//150 153//149
f 170//169 173//164 167//162 163//170
f 152//145 150//148 196//191 189//186
f 172//165 170//169 176//171
f 155//150 190//184 185//180 184//179
f 178//172 181//121 182//177 179//173
f 189//186 196//191 186//181 185//180
f 39//128 138//138 30//31
f 165//187 169//161 35//29
f 35//29 169//161 39//128
f 168//160 140//140 39//128
f 50//127 148//146 41//37
f 187//182 186//181 46//35
f 46//35 186//181 50//127
f 196//191 150//148 50//127
f 165//187 35//29 33//28
f 187//182 46//35 44//34
f 197//197 123//124 124//123
f 197//197 127//190 123//124
f 197//197 128//192 127//190
f 197//197 129//193 128//192
f 197//197 130//194 129//193
f 197//197 131//195 130//194
f 197//197 132//196 131//195
f 197//197 124//123 132//196
f 198//198 133//130 137//129
f 198//198 137//129 139//139
f 198//198 139//139 141//135
f 198//198 141//135 144//134
f 198//198 144//134 147//141
f 198//198 147//141 149//147
f 198//198 149//147 151//144
f 198//198 151//144 133//130
f 3//6 5//4 1//1
f 11//58 7//12 8//59
f 14//11 8//59 7//12
f 17//22 19//20 15//17
f 25//41 21//16 22//42
f 28//27 22//42 21//16
f 39//128 30//31 31//33
f 38//97 39//128 31//33
f 35//29 39//128 37//120
f 50//127 41//37 42//39
f 49//88 50//127 42//39
f 46//35 50//127 48//117
f 56//49 61//48 57//54
f 71//66 76//65 72//72
f 10//119 12//122 13//67 7//12
f 87//107 84//79 83//78
f 81//75 88//25 90//109
f 97//110 94//85 93//84
f 91//81 98//9 100//100
f 4//7 73//68 101//90
f 99//83 94//85 6//2
f 107//115 69//64 108//99
f 12//122 110//95 101//90
f 92//82 91//81 14//11
f 111//60 108//99 67//62
f 9//10 93//84 14//11
f 18//23 58//50 112//101
f 89//77 84//79 20//18
f 118//114 54//47 119//108
f 26//14 121//106 112//101
f 82//76 81//75 28//27
f 122//43 119//108 52//45
f 23//26 83//78 28//27
f 2//3 74//111 1//1
f 6//2 1//1 109//5
f 10//119 7//12 11//58
f 16//19 59//112 15//17
f 20//18 15//17 120//21
f 24//13 21//16 25//41
f 26//14 112//101 27//15
f 12//122 101//90 13//67
f 57//54 83//78 23//26
f 118//114 120//21 64//51
f 72//72 93//84 9//10
f 107//115 109//5 79//69
f 160//113 29//116 30//31
f 181//121 40//118 41//37
f 53//44 55//46 63//56
f 65//52 62//55 55//46
f 68//61 70//63 78//74
f 80//70 77//73 70//63
f 104//92 94//85 99//83
f 99//83 6//2 98//9
f 2//3 6//2 106//93
f 107//115 108//99 100//100
f 92//82 14//11 93//84
f 111//60 8//59 108//99
f 115//103 84//79 89//77
f 89//77 20//18 88//25
f 16//19 20//18 117//104
f 118//114 119//108 90//109
f 82//76 28//27 83//78
f 122//43 22//42 119//108
f 63//56 51//40 53//44
f 90//109 120//21 118//114
f 78//74 66//57 68//61
f 100//100 109//5 107//115
f 188//185 124//123 126//126
f 154//151 153//149 125//125
f 164//167 163//170 165//187
f 173//164 170//169 172//165
f 178//172 176//171 177//174
f 188//185 184//179 187//182
f 190//184 155//150 157//153
f 174//163 142//136 166//159
f 191//183 152//145 189//186
