# Blender v2.75 (sub 0) OBJ File: ''
# www.blender.org
mtllib boidHeadLo.mtl
o Cylinder1_default
v 0.304760 0.145357 -0.076225
v 0.110054 0.315464 -0.093288
v 0.000003 0.386845 0.349704
v -0.145140 0.295839 -0.106303
v -0.187384 0.243187 0.562994
v -0.311597 0.131005 -0.081328
v -0.329998 -0.050873 -0.079454
v -0.283332 -0.176762 -0.066102
v -0.138646 -0.301347 -0.085744
v 0.057509 -0.326855 -0.101088
v 0.209164 -0.269891 -0.001885
v 0.322731 -0.088268 -0.085446
v 0.187734 0.252301 0.396652
v -0.218029 -0.215716 0.354487
v 0.000000 -0.339578 0.396633
v 0.163552 0.017604 1.170959
v 0.099380 -0.001374 1.287217
v 0.108708 0.184217 1.139628
v -0.009017 0.340683 0.882934
v -0.046352 0.223331 1.166006
v -0.163551 0.017604 1.170958
v -0.104703 -0.054179 1.159925
v -0.114244 -0.143470 1.070497
v 0.011574 -0.227420 0.987521
v 0.113857 -0.142890 1.076712
v 0.008289 0.082904 1.372988
v -0.055717 0.027383 1.361952
v 0.006914 -0.048677 1.235963
v 0.236705 0.054257 -0.273265
v 0.202556 -0.146003 -0.268248
v 0.032185 -0.235084 -0.275918
v -0.146003 -0.202556 -0.268248
v -0.252284 0.021336 -0.267436
v -0.132048 0.204605 -0.274998
v -0.019741 0.190971 -0.301751
v 0.101248 0.227786 -0.272585
v 0.101296 0.000000 -0.332435
v 0.093585 -0.038764 -0.332435
v 0.084224 -0.056277 -0.332435
v 0.071627 -0.071627 -0.332435
v 0.038764 -0.093585 -0.332435
v 0.019762 -0.099349 -0.332435
v -0.000000 -0.101296 -0.332435
v -0.038764 -0.093585 -0.332435
v -0.056277 -0.084224 -0.332435
v -0.071627 -0.071627 -0.332435
v -0.093585 -0.038764 -0.332435
v -0.099349 -0.019762 -0.332435
v -0.101296 0.000000 -0.332435
v -0.093585 0.038764 -0.332435
v -0.084224 0.056277 -0.332435
v -0.071627 0.071627 -0.332435
v -0.038764 0.093585 -0.332435
v -0.019762 0.099349 -0.332435
v -0.000000 0.101296 -0.332435
v 0.038764 0.093585 -0.332435
v 0.056277 0.084224 -0.332435
v 0.071627 0.071627 -0.332435
v 0.093585 0.038764 -0.332435
v 0.099349 0.019762 -0.332435
vn 0.331200 0.907300 -0.259300
vn 0.014100 0.999200 0.037500
vn 0.769900 0.631000 0.095200
vn -0.804200 0.584000 0.110400
vn -0.433500 0.856300 -0.280700
vn -0.407100 -0.889100 -0.209000
vn 0.016500 -0.990700 0.135100
vn -0.852600 -0.503300 0.140700
vn 0.650400 -0.754000 -0.091700
vn 0.168200 -0.946900 -0.274000
vn -0.928800 -0.050200 0.367300
vn -0.968700 -0.189200 -0.161000
vn -0.799500 -0.574900 -0.174000
vn -0.679300 -0.638400 0.361900
vn -0.327100 0.839300 0.434200
vn -0.898400 0.408100 -0.162500
vn 0.675000 0.648700 0.351600
vn 0.083000 0.336600 0.938000
vn 0.618500 -0.350000 0.703500
vn 0.926000 -0.253300 0.280100
vn -0.679300 -0.585900 0.441900
vn 0.006500 -0.955600 0.294600
vn 0.952600 -0.249400 -0.174100
vn 0.706600 -0.583400 0.400300
vn 0.103700 -0.695500 -0.711000
vn 0.601700 -0.415200 -0.682400
vn -0.406100 -0.240100 0.881700
vn 0.016000 -0.850400 0.525900
vn 0.673800 0.179900 -0.716600
vn -0.713300 0.072900 -0.697100
vn -0.423400 -0.571300 -0.703200
vn -0.362600 0.603200 -0.710400
vn 0.301500 0.678500 -0.669900
vn -0.050000 0.492800 -0.868700
vn 0.892000 0.422200 -0.161400
vn 0.221800 -0.130600 -0.966300
vn 0.220800 -0.153800 -0.963100
vn 0.061300 -0.246000 -0.967300
vn 0.050200 -0.260800 -0.964100
vn 0.017000 -0.253600 -0.967200
vn -0.133700 -0.219300 -0.966400
vn -0.149700 -0.228400 -0.962000
vn -0.271500 -0.070400 -0.959800
vn -0.275700 -0.067000 -0.958900
vn -0.259400 -0.026400 -0.965400
vn -0.202800 0.160500 -0.966000
vn -0.248400 0.146700 -0.957500
vn -0.023100 0.187700 -0.982000
vn -0.048400 0.216100 -0.975200
vn -0.017900 0.208000 -0.978000
vn 0.126900 0.189400 -0.973700
vn 0.146000 0.208700 -0.967000
vn 0.235700 0.080500 -0.968500
vn 0.254400 0.044400 -0.966100
vn 0.245500 0.032600 -0.968900
vn 0.122100 -0.179000 -0.976200
vn -0.174600 -0.130600 -0.975900
vn -0.109800 0.143100 -0.983600
vn 0.177300 0.132300 -0.975200
vn -0.053100 0.977000 0.206300
usemtl default
s 1
f 2//1 3//2 13//3
f 5//4 3//2 4//5
f 9//6 15//7 14//8
f 11//9 15//7 10//10
f 21//11 7//12 8//13 22//14
f 5//4 21//11 20//15
f 6//16 7//12 21//11
f 18//17 26//18 17//19 16//20
f 14//8 22//14 8//13
f 23//21 22//14 14//8
f 15//7 11//9 24//22
f 12//23 17//19 25//24
f 25//24 11//9 12//23
f 31//25 30//26 11//9 10//10
f 20//15 26//18 18//17
f 21//11 22//14 27//27
f 23//21 14//8 15//7
f 23//21 28//28 22//14
f 25//24 24//22 11//9
f 25//24 17//19 28//28
f 28//28 23//21 24//22
f 28//28 24//22 25//24
f 17//19 27//27 28//28
f 12//23 30//26 29//29
f 12//23 11//9 30//26
f 8//13 7//12 33//30 32//31
f 9//6 8//13 32//31
f 33//30 6//16 4//5 34//32
f 2//1 36//33 34//32 4//5
f 34//32 36//33 35//34
f 1//35 29//29 36//33
f 29//29 30//26 38//36
f 30//26 39//37 38//36
f 31//25 41//38 30//26
f 31//25 42//39 41//38
f 31//25 43//40 42//39
f 31//25 32//31 44//41
f 32//31 45//42 44//41
f 33//30 47//43 32//31
f 33//30 48//44 47//43
f 33//30 49//45 48//44
f 33//30 34//32 50//46
f 34//32 51//47 50//46
f 35//34 53//48 34//32
f 35//34 54//49 53//48
f 35//34 55//50 54//49
f 35//34 36//33 56//51
f 36//33 57//52 56//51
f 29//29 59//53 36//33
f 29//29 60//54 59//53
f 37//55 29//29 38//36 39//37 40//56 30//26 41//38 42//39 43//40 31//25 44//41 45//42 46//57 32//31 47//43 48//44 49//45 33//30 50//46 51//47 52//58 34//32 53//48 54//49 55//50 35//34 56//51 57//52 58//59 36//33 59//53 60//54
f 26//18 20//15 27//27
f 26//18 27//27 17//19
f 4//5 3//2 2//1
f 1//35 2//1 13//3
f 6//16 5//4 4//5
f 8//13 9//6 14//8
f 9//6 10//10 15//7
f 18//17 13//3 3//2 19//60
f 12//23 1//35 16//20
f 16//20 17//19 12//23
f 1//35 13//3 18//17
f 18//17 16//20 1//35
f 18//17 19//60 20//15
f 3//2 5//4 19//60
f 19//60 5//4 20//15
f 5//4 6//16 21//11
f 23//21 15//7 24//22
f 20//15 21//11 27//27
f 22//14 28//28 27//27
f 12//23 29//29 1//35
f 10//10 9//6 32//31
f 32//31 31//25 10//10
f 6//16 33//30 7//12
f 1//35 36//33 2//1
f 39//37 30//26 40//56
f 45//42 32//31 46//57
f 51//47 34//32 52//58
f 57//52 36//33 58//59
f 37//55 60//54 29//29
