# Exported from Wings 3D 1.5.3
mtllib branch.mtl
o Cylinder1
#80 vertices, 74 faces
v 0.18000000 2.00000000 -6.3143935e-18
v 0.12727922 2.00000000 0.12727922
v -4.0187216e-17 2.00000000 0.18000000
v -0.12727922 2.00000000 0.12727922
v -0.18000000 2.00000000 1.5729249e-17
v -0.12727922 2.00000000 -0.12727922
v -8.4274501e-17 2.00000000 -0.18000000
v 0.12727922 2.00000000 -0.12727922
v 0.30000000 0.0000000e+0 -9.7144515e-18
v 0.21213203 0.0000000e+0 0.21213203
v -2.5345330e-17 0.0000000e+0 0.30000000
v -0.21213203 0.0000000e+0 0.21213203
v -0.30000000 0.0000000e+0 2.7024953e-17
v -0.21213203 0.0000000e+0 -0.21213203
v -9.8824138e-17 0.0000000e+0 -0.30000000
v 0.21213203 0.0000000e+0 -0.21213203
v 0.30000000 -4.2118400e-2 -9.7144515e-18
v 0.27179483 -0.13274660 -6.3250457e-18
v 0.21213203 -4.2118400e-2 0.21213203
v 0.19218797 -0.13274660 0.19218797
v -2.5345330e-17 -4.2118400e-2 0.30000000
v -2.7887384e-17 -0.13274660 0.27179483
v -0.21213203 -4.2118400e-2 0.21213203
v -0.19218797 -0.13274660 0.19218797
v -0.30000000 -4.2118400e-2 2.7024953e-17
v -0.27179483 -0.13274660 2.2788195e-17
v -0.21213203 -4.2118400e-2 -0.21213203
v -0.19218797 -0.13274660 -0.19218797
v -9.8824138e-17 -4.2118400e-2 -0.30000000
v -9.4587380e-17 -0.13274660 -0.27179483
v 0.21213203 -4.2118400e-2 -0.21213203
v 0.19218797 -0.13274660 -0.19218797
v 0.23122283 -0.18544860 -1.4495208e-18
v 0.16349923 -0.18544860 0.16349923
v -3.1544028e-17 -0.18544860 0.23122283
v -0.16349923 -0.18544860 0.16349923
v -0.23122283 -0.18544860 1.6693789e-17
v -0.16349923 -0.18544860 -0.16349923
v -8.8492974e-17 -0.18544860 -0.23122283
v 0.16349923 -0.18544860 -0.16349923
v 0.16145380 -0.22208640 8.1832793e-18
v 0.11416508 -0.22208640 0.11416508
v -3.9080797e-17 -0.22208640 0.16145380
v -0.11416508 -0.22208640 0.11416508
v -0.16145380 -0.22208640 7.4623165e-18
v -0.11416508 -0.22208640 -0.11416508
v -8.0510180e-17 -0.22208640 -0.16145380
v 0.11416508 -0.22208640 -0.11416508
v 0.12727922 2.00978204 0.12727922
v 0.11062709 2.06360086 0.11062709
v 0.18000000 2.00978204 -9.0877830e-17
v 0.15645033 2.06360086 -1.7216523e-16
v 0.12727922 2.00978204 -0.12727922
v 0.11062709 2.06360086 -0.11062709
v -8.4274501e-17 2.00978204 -0.18000000
v -8.0029567e-17 2.06360086 -0.15645033
v -0.12727922 2.00978204 -0.12727922
v -0.11062709 2.06360086 -0.11062709
v -0.18000000 2.00978204 -6.8834188e-17
v -0.15645033 2.06360086 -1.5719648e-16
v -0.12727922 2.00978204 0.12727922
v -0.11062709 2.06360086 0.11062709
v -4.0187216e-17 2.00978204 0.18000000
v -4.3017172e-17 2.06360086 0.15645033
v 8.5651207e-2 2.09623342 8.5651207e-2
v 0.12112910 2.09623342 -2.1892451e-16
v 8.5651207e-2 2.09623342 -8.5651207e-2
v -7.3662755e-17 2.09623342 -0.12112910
v -8.5651207e-2 2.09623342 -8.5651207e-2
v -0.12112910 2.09623342 -2.1456711e-16
v -8.5651207e-2 2.09623342 8.5651207e-2
v -4.7261713e-17 2.09623342 0.12112910
v 4.4460069e-2 2.11799048 4.4460069e-2
v 6.2876032e-2 2.11799048 -2.4384481e-16
v 4.4460069e-2 2.11799048 -4.4460069e-2
v -6.2119803e-17 2.11799048 -6.2876032e-2
v -4.4460069e-2 2.11799048 -4.4460069e-2
v -6.2876032e-2 2.11799048 -2.6220091e-16
v -4.4460069e-2 2.11799048 4.4460069e-2
v -5.3219391e-17 2.11799048 6.2876032e-2
vn 0.99955099 2.9963530e-2 0.0000000e+0
vn 0.70678929 2.9963530e-2 0.70678929
vn 1.0518187e-16 2.9963530e-2 0.99955099
vn -0.70678929 2.9963530e-2 0.70678929
vn -0.99955099 2.9963530e-2 3.3057158e-16
vn -0.70678929 2.9963530e-2 -0.70678929
vn -1.6528579e-16 2.9963530e-2 -0.99955099
vn 0.70678929 2.9963530e-2 -0.70678929
vn 0.99955099 2.9963530e-2 -1.2020785e-16
vn 0.70678929 2.9963530e-2 0.70678929
vn 1.2020785e-16 2.9963530e-2 0.99955099
vn -0.70678929 2.9963530e-2 0.70678929
vn -0.99955099 2.9963530e-2 1.6528579e-16
vn -0.70678929 2.9963530e-2 -0.70678929
vn -1.0518187e-16 2.9963530e-2 -0.99955099
vn 0.70678929 2.9963530e-2 -0.70678929
vn 0.98856797 -0.15077591 -1.2115465e-16
vn 0.88661474 -0.46250870 -1.1998433e-16
vn 0.69902311 -0.15077591 0.69902311
vn 0.62693130 -0.46250870 0.62693130
vn 6.0577323e-17 -0.15077591 0.98856797
vn 2.9996081e-17 -0.46250870 0.88661474
vn -0.69902311 -0.15077591 0.69902311
vn -0.62693130 -0.46250870 0.62693130
vn -0.98856797 -0.15077591 1.3629898e-16
vn -0.88661474 -0.46250870 1.3498237e-16
vn -0.69902311 -0.15077591 -0.69902311
vn -0.62693130 -0.46250870 -0.62693130
vn -9.0865985e-17 -0.15077591 -0.98856797
vn -7.4990203e-17 -0.46250870 -0.88661474
vn 0.69902311 -0.15077591 -0.69902311
vn 0.62693130 -0.46250870 -0.62693130
vn 0.64078994 -0.76771626 -9.5588434e-17
vn 0.45310691 -0.76771626 0.45310691
vn 4.4117739e-17 -0.76771626 0.64078994
vn -0.45310691 -0.76771626 0.45310691
vn -0.64078994 -0.76771626 9.5588434e-17
vn -0.45310691 -0.76771626 -0.45310691
vn -5.1470695e-17 -0.76771626 -0.64078994
vn 0.45310691 -0.76771626 -0.45310691
vn 0.31627557 -0.94866736 -6.7299122e-17
vn 0.22364060 -0.94866736 0.22364060
vn 1.9228321e-17 -0.94866736 0.31627557
vn -0.22364060 -0.94866736 0.22364060
vn -0.31627557 -0.94866736 2.8842481e-17
vn -0.22364060 -0.94866736 -0.22364060
vn -2.8842481e-17 -0.94866736 -0.31627557
vn 0.22364060 -0.94866736 -0.22364060
vn 0.69194133 0.20599608 0.69194133
vn 0.57477224 0.58247210 0.57477224
vn 0.97855282 0.20599608 1.5255040e-16
vn 0.81285070 0.58247210 7.4714830e-17
vn 0.69194133 0.20599608 -0.69194133
vn 0.57477224 0.58247210 -0.57477224
vn -1.5255040e-16 0.20599608 -0.97855282
vn -8.9657796e-17 0.58247210 -0.81285070
vn -0.69194133 0.20599608 -0.69194133
vn -0.57477224 0.58247210 -0.57477224
vn -0.97855282 0.20599608 4.4239615e-16
vn -0.81285070 0.58247210 3.5863119e-16
vn -0.69194133 0.20599608 0.69194133
vn -0.57477224 0.58247210 0.57477224
vn 6.1020158e-17 0.20599608 0.97855282
vn 5.9771864e-17 0.58247210 0.81285070
vn 0.36895257 0.85308147 0.36895257
vn 0.52177773 0.85308147 -3.6221955e-17
vn 0.36895257 0.85308147 -0.36895257
vn -8.6932693e-17 0.85308147 -0.52177773
vn -0.36895257 0.85308147 -0.36895257
vn -0.52177773 0.85308147 1.9559856e-16
vn -0.36895257 0.85308147 0.36895257
vn 7.2443911e-17 0.85308147 0.52177773
vn 0.16673160 0.97180304 0.16673160
vn 0.23579410 0.97180304 -8.6942033e-16
vn 0.16673160 0.97180304 -0.16673160
vn -5.6701326e-17 0.97180304 -0.23579410
vn -0.16673160 0.97180304 -0.16673160
vn -0.23579410 0.97180304 -7.7491812e-16
vn -0.16673160 0.97180304 0.16673160
vn 3.7800884e-17 0.97180304 0.23579410
g Cylinder1_default
usemtl default
s 1
f 1//1 9//9 16//16 8//8
f 1//1 51//51 49//49 2//2
f 2//2 10//10 9//9 1//1
f 2//2 49//49 63//63 3//3
f 3//3 11//11 10//10 2//2
f 3//3 63//63 61//61 4//4
f 4//4 12//12 11//11 3//3
f 4//4 61//61 59//59 5//5
f 5//5 13//13 12//12 4//4
f 5//5 59//59 57//57 6//6
f 6//6 14//14 13//13 5//5
f 6//6 57//57 55//55 7//7
f 7//7 15//15 14//14 6//6
f 7//7 55//55 53//53 8//8
f 8//8 16//16 15//15 7//7
f 8//8 53//53 51//51 1//1
f 9//9 17//17 31//31 16//16
f 10//10 19//19 17//17 9//9
f 11//11 21//21 19//19 10//10
f 12//12 23//23 21//21 11//11
f 13//13 25//25 23//23 12//12
f 14//14 27//27 25//25 13//13
f 15//15 29//29 27//27 14//14
f 16//16 31//31 29//29 15//15
f 18//18 20//20 34//34 33//33
f 18//18 32//32 31//31 17//17
f 19//19 21//21 22//22 20//20
f 20//20 18//18 17//17 19//19
f 20//20 22//22 35//35 34//34
f 21//21 23//23 24//24 22//22
f 22//22 24//24 36//36 35//35
f 24//24 26//26 37//37 36//36
f 25//25 27//27 28//28 26//26
f 26//26 24//24 23//23 25//25
f 26//26 28//28 38//38 37//37
f 27//27 29//29 30//30 28//28
f 28//28 30//30 39//39 38//38
f 29//29 31//31 32//32 30//30
f 30//30 32//32 40//40 39//39
f 33//33 40//40 32//32 18//18
f 34//34 35//35 43//43 42//42
f 35//35 36//36 44//44 43//43
f 36//36 37//37 45//45 44//44
f 37//37 38//38 46//46 45//45
f 38//38 39//39 47//47 46//46
f 39//39 40//40 48//48 47//47
f 40//40 33//33 41//41 48//48
f 42//42 41//41 33//33 34//34
f 42//42 43//43 44//44 45//45 46//46 47//47 48//48 41//41
f 50//50 52//52 66//66 65//65
f 51//51 53//53 54//54 52//52
f 52//52 50//50 49//49 51//51
f 52//52 54//54 67//67 66//66
f 53//53 55//55 56//56 54//54
f 54//54 56//56 68//68 67//67
f 56//56 58//58 69//69 68//68
f 57//57 59//59 60//60 58//58
f 58//58 56//56 55//55 57//57
f 58//58 60//60 70//70 69//69
f 60//60 62//62 71//71 70//70
f 61//61 63//63 64//64 62//62
f 62//62 60//60 59//59 61//61
f 62//62 64//64 72//72 71//71
f 63//63 49//49 50//50 64//64
f 65//65 72//72 64//64 50//50
f 66//66 67//67 75//75 74//74
f 67//67 68//68 76//76 75//75
f 68//68 69//69 77//77 76//76
f 69//69 70//70 78//78 77//77
f 70//70 71//71 79//79 78//78
f 71//71 72//72 80//80 79//79
f 72//72 65//65 73//73 80//80
f 74//74 73//73 65//65 66//66
f 74//74 75//75 76//76 77//77 78//78 79//79 80//80 73//73
