# Blender v2.75 (sub 0) OBJ File: ''
# www.blender.org
mtllib branchLo.mtl
o Cylinder1_default
v 0.172022 2.054786 0.000648
v 0.300839 -0.038319 -0.000364
v 0.212468 -0.038319 -0.212982
v 0.118199 2.072985 -0.116351
v 0.127211 2.010077 0.127095
v 0.212982 -0.038319 0.212468
v -0.000648 2.054786 0.172023
v 0.000364 -0.038319 0.300839
v -0.124853 2.037246 0.124557
v -0.212468 -0.038320 0.212982
v -0.172022 2.054786 -0.000647
v -0.300839 -0.038319 0.000364
v -0.116351 2.072985 -0.118199
v -0.212982 -0.038319 -0.212468
v 0.000648 2.054786 -0.172022
v -0.000364 -0.038319 -0.300839
v 0.251537 -0.169721 0.002524
v 0.164132 -0.188195 0.170898
v 0.170898 -0.188196 -0.164133
v -0.002524 -0.169720 0.251537
v -0.170898 -0.188196 0.164132
v -0.251537 -0.169721 -0.002524
v -0.164132 -0.188195 -0.170898
v 0.002524 -0.169720 -0.251537
v -0.000000 -0.222086 0.161454
v -0.161454 -0.222086 -0.000000
v -0.000000 -0.222086 -0.161454
v 0.161454 -0.222086 -0.000000
v 0.090125 2.096391 0.090126
v -0.071667 2.107148 0.071667
v 0.062876 2.117990 0.000000
v -0.000000 2.117990 -0.062876
v -0.062876 2.117990 0.000000
v -0.000000 2.117990 0.062876
vn 0.683200 0.241200 0.689200
vn 0.697500 -0.152000 0.700300
vn 0.987700 -0.156100 -0.006800
vn 0.899400 0.437200 -0.001900
vn -0.030000 0.464200 0.885200
vn -0.004000 -0.153300 0.988200
vn -0.647100 0.378500 0.661800
vn -0.700400 -0.151600 0.697500
vn -0.891300 0.453000 -0.019000
vn -0.988200 -0.153100 -0.008700
vn -0.549100 0.585800 -0.596000
vn -0.697200 -0.150100 -0.701000
vn 0.025500 0.441000 -0.897200
vn 0.003400 -0.152900 -0.988200
vn 0.563800 0.595700 -0.572100
vn 0.699100 -0.147300 -0.699700
vn 0.818000 -0.574900 0.020800
vn 0.492100 -0.743300 -0.453200
vn -0.014200 -0.625700 0.779900
vn 0.487300 -0.714600 0.501800
vn -0.508800 -0.728100 0.459400
vn -0.459400 -0.728100 -0.508800
vn -0.783700 -0.620400 -0.030100
vn 0.014200 -0.625700 -0.779900
vn -0.015000 -0.958100 0.285900
vn -0.285900 -0.958200 -0.015000
vn 0.015000 -0.958100 -0.285900
vn 0.285900 -0.958200 0.015000
vn 0.426400 0.824100 0.372900
vn -0.293100 0.915200 0.276700
vn -0.004400 0.952300 -0.305000
vn -0.264400 0.964100 -0.026600
vn 0.010000 0.971000 0.239000
vn 0.274200 0.959800 -0.059800
usemtl default
s 1
f 5//1 6//2 2//3 1//4
f 7//5 8//6 6//2 5//1
f 9//7 10//8 8//6 7//5
f 11//9 12//10 10//8 9//7
f 13//11 14//12 12//10 11//9
f 15//13 16//14 14//12 13//11
f 4//15 3//16 16//14 15//13
f 17//17 19//18 3//16 2//3
f 6//2 8//6 20//19 18//20
f 18//20 17//17 2//3 6//2
f 8//6 10//8 21//21 20//19
f 12//10 14//12 23//22 22//23
f 22//23 21//21 10//8 12//10
f 14//12 16//14 24//24 23//22
f 16//14 3//16 19//18 24//24
f 20//19 25//25 18//20
f 22//23 26//26 21//21
f 24//24 27//27 23//22
f 17//17 28//28 19//18
f 18//20 28//28 17//17
f 18//20 25//25 21//21 26//26 23//22 27//27 19//18 28//28
f 1//4 29//29 5//1
f 1//4 2//3 3//16 4//15
f 9//7 30//30 11//9
f 5//1 29//29 7//5
f 4//15 15//13 32//31
f 13//11 11//9 33//32
f 30//30 7//5 34//33
f 31//34 4//15 32//31 13//11 33//32 30//30 34//33 29//29
f 25//25 20//19 21//21
f 26//26 22//23 23//22
f 27//27 24//24 19//18
f 30//30 9//7 7//5
f 1//4 4//15 31//34
f 15//13 13//11 32//31
f 11//9 30//30 33//32
f 7//5 29//29 34//33
f 1//4 31//34 29//29
