# Exported from Wings 3D 1.5.3
mtllib column.mtl
o Cylinder2
#144 vertices, 134 faces
v 0.25718400 2.00000000 8.3747638e-18
v 0.22272788 2.00000000 0.12859200
v 0.12859200 2.00000000 0.22272788
v -6.3980301e-17 2.00000000 0.25718400
v -0.12859200 2.00000000 0.22272788
v -0.22272788 2.00000000 0.12859200
v -0.25718400 2.00000000 3.9870720e-17
v -0.22272788 2.00000000 -0.12859200
v -0.12859200 2.00000000 -0.22272788
v -1.2697221e-16 2.00000000 -0.25718400
v 0.12859200 2.00000000 -0.22272788
v 0.22272788 2.00000000 -0.12859200
v 0.25718400 0.0000000e+0 8.3747638e-18
v 0.22272788 0.0000000e+0 0.12859200
v 0.12859200 0.0000000e+0 0.22272788
v -6.3980301e-17 0.0000000e+0 0.25718400
v -0.12859200 0.0000000e+0 0.22272788
v -0.22272788 0.0000000e+0 0.12859200
v -0.25718400 0.0000000e+0 3.9870720e-17
v -0.22272788 0.0000000e+0 -0.12859200
v -0.12859200 0.0000000e+0 -0.22272788
v -1.2697221e-16 0.0000000e+0 -0.25718400
v 0.12859200 0.0000000e+0 -0.22272788
v 0.22272788 0.0000000e+0 -0.12859200
v 0.25718400 -0.23498588 8.3747638e-18
v 0.22272788 -0.23498588 0.12859200
v 0.12859200 -0.23498588 0.22272788
v -6.3980301e-17 -0.23498588 0.25718400
v -0.12859200 -0.23498588 0.22272788
v -0.22272788 -0.23498588 0.12859200
v -0.25718400 -0.23498588 3.9870720e-17
v -0.22272788 -0.23498588 -0.12859200
v -0.12859200 -0.23498588 -0.22272788
v -1.2697221e-16 -0.23498588 -0.25718400
v 0.12859200 -0.23498588 -0.22272788
v 0.22272788 -0.23498588 -0.12859200
v 0.22272788 2.23498588 0.12859200
v 0.25718400 2.23498588 -3.3698980e-17
v 0.22272788 2.23498588 -0.12859200
v 0.12859200 2.23498588 -0.22272788
v -1.2697221e-16 2.23498588 -0.25718400
v -0.12859200 2.23498588 -0.22272788
v -0.22272788 2.23498588 -0.12859200
v -0.25718400 2.23498588 -2.2030236e-18
v -0.22272788 2.23498588 0.12859200
v -0.12859200 2.23498588 0.22272788
v -6.3980301e-17 2.23498588 0.25718400
v 0.12859200 2.23498588 0.22272788
v 0.37947819 -1.6986931e-2 -9.1956625e-18
v 0.36249126 0.0000000e+0 -6.7550918e-18
v 0.32863776 -1.6986931e-2 0.18973910
v 0.31392664 0.0000000e+0 0.18124563
v 0.18973910 -1.6986931e-2 0.32863776
v 0.18124563 0.0000000e+0 0.31392664
v -7.1008472e-17 -1.6986931e-2 0.37947819
v -7.0032244e-17 0.0000000e+0 0.36249126
v -0.18973910 -1.6986931e-2 0.32863776
v -0.18124563 0.0000000e+0 0.31392664
v -0.32863776 -1.6986931e-2 0.18973910
v -0.31392664 0.0000000e+0 0.18124563
v -0.37947819 -1.6986931e-2 5.7441146e-17
v -0.36249126 0.0000000e+0 5.5000576e-17
v -0.32863776 -1.6986931e-2 -0.18973910
v -0.31392664 0.0000000e+0 -0.18124563
v -0.18973910 -1.6986931e-2 -0.32863776
v -0.18124563 0.0000000e+0 -0.31392664
v -1.9022575e-16 -1.6986931e-2 -0.37947819
v -1.8143969e-16 0.0000000e+0 -0.36249126
v 0.18973910 -1.6986931e-2 -0.32863776
v 0.18124563 0.0000000e+0 -0.31392664
v 0.32863776 -1.6986931e-2 -0.18973910
v 0.31392664 0.0000000e+0 -0.18124563
v 0.37947819 -0.21799895 -9.1956625e-18
v 0.36249126 -0.23498588 -6.7550918e-18
v 0.32863776 -0.21799895 0.18973910
v 0.31392664 -0.23498588 0.18124563
v 0.18973910 -0.21799895 0.32863776
v 0.18124563 -0.23498588 0.31392664
v -7.1008472e-17 -0.21799895 0.37947819
v -7.0032244e-17 -0.23498588 0.36249126
v -0.18973910 -0.21799895 0.32863776
v -0.18124563 -0.23498588 0.31392664
v -0.32863776 -0.21799895 0.18973910
v -0.31392664 -0.23498588 0.18124563
v -0.37947819 -0.21799895 5.7441146e-17
v -0.36249126 -0.23498588 5.5000576e-17
v -0.32863776 -0.21799895 -0.18973910
v -0.31392664 -0.23498588 -0.18124563
v -0.18973910 -0.21799895 -0.32863776
v -0.18124563 -0.23498588 -0.31392664
v -1.9022575e-16 -0.21799895 -0.37947819
v -1.8143969e-16 -0.23498588 -0.36249126
v 0.18973910 -0.21799895 -0.32863776
v 0.18124563 -0.23498588 -0.31392664
v 0.32863776 -0.21799895 -0.18973910
v 0.31392664 -0.23498588 -0.18124563
v 0.37947819 2.01698693 -1.5751223e-17
v 0.36249126 2.00000000 -9.7810630e-18
v 0.32863776 2.01698693 0.18973910
v 0.31392664 2.00000000 0.18124563
v 0.18973910 2.01698693 0.32863776
v 0.18124563 2.00000000 0.31392664
v -7.4522557e-17 2.01698693 0.37947819
v -7.3058215e-17 2.00000000 0.36249126
v -0.18973910 2.01698693 0.32863776
v -0.18124563 2.00000000 0.31392664
v -0.32863776 2.01698693 0.18973910
v -0.31392664 2.00000000 0.18124563
v -0.37947819 2.01698693 5.4399671e-17
v -0.36249126 2.00000000 5.5000576e-17
v -0.32863776 2.01698693 -0.18973910
v -0.31392664 2.00000000 -0.18124563
v -0.18973910 2.01698693 -0.32863776
v -0.18124563 2.00000000 -0.31392664
v -1.8319758e-16 2.01698693 -0.37947819
v -1.7538775e-16 2.00000000 -0.36249126
v 0.18973910 2.01698693 -0.32863776
v 0.18124563 2.00000000 -0.31392664
v 0.32863776 2.01698693 -0.18973910
v 0.31392664 2.00000000 -0.18124563
v 0.32863776 2.21799895 0.18973910
v 0.31392664 2.23498588 0.18124563
v 0.37947819 2.21799895 -5.1742016e-17
v 0.36249126 2.23498588 -5.1854807e-17
v 0.32863776 2.21799895 -0.18973910
v 0.31392664 2.23498588 -0.18124563
v 0.18973910 2.21799895 -0.32863776
v 0.18124563 2.23498588 -0.31392664
v -1.8319758e-16 2.21799895 -0.37947819
v -1.7538775e-16 2.23498588 -0.36249126
v -0.18973910 2.21799895 -0.32863776
v -0.18124563 2.23498588 -0.31392664
v -0.32863776 2.21799895 -0.18973910
v -0.31392664 2.23498588 -0.18124563
v -0.37947819 2.21799895 1.8408878e-17
v -0.36249126 2.23498588 1.2926832e-17
v -0.32863776 2.21799895 0.18973910
v -0.31392664 2.23498588 0.18124563
v -0.18973910 2.21799895 0.32863776
v -0.18124563 2.23498588 0.31392664
v -7.4522557e-17 2.21799895 0.37947819
v -7.3058215e-17 2.23498588 0.36249126
v 0.18973910 2.21799895 0.32863776
v 0.18124563 2.23498588 0.31392664
vn 0.69474659 -0.71925460 -9.9816627e-17
vn 0.60166820 -0.71925460 0.34737330
vn 0.34737330 -0.71925460 0.60166820
vn -5.9889976e-17 -0.71925460 0.69474659
vn -0.34737330 -0.71925460 0.60166820
vn -0.60166820 -0.71925460 0.34737330
vn -0.69474659 -0.71925460 3.9926651e-17
vn -0.60166820 -0.71925460 -0.34737330
vn -0.34737330 -0.71925460 -0.60166820
vn -3.7930318e-16 -0.71925460 -0.69474659
vn 0.34737330 -0.71925460 -0.60166820
vn 0.60166820 -0.71925460 -0.34737330
vn 0.69474659 0.71925460 -9.9816627e-17
vn 0.60166820 0.71925460 0.34737330
vn 0.34737330 0.71925460 0.60166820
vn -5.9889976e-17 0.71925460 0.69474659
vn -0.34737330 0.71925460 0.60166820
vn -0.60166820 0.71925460 0.34737330
vn -0.69474659 0.71925460 3.9926651e-17
vn -0.60166820 0.71925460 -0.34737330
vn -0.34737330 0.71925460 -0.60166820
vn -3.7930318e-16 0.71925460 -0.69474659
vn 0.34737330 0.71925460 -0.60166820
vn 0.60166820 0.71925460 -0.34737330
vn 0.0000000e+0 -1.00000000 0.0000000e+0
vn 0.0000000e+0 -1.00000000 0.0000000e+0
vn 0.0000000e+0 -1.00000000 0.0000000e+0
vn 0.0000000e+0 -1.00000000 0.0000000e+0
vn 0.0000000e+0 -1.00000000 0.0000000e+0
vn 0.0000000e+0 -1.00000000 0.0000000e+0
vn 0.0000000e+0 -1.00000000 0.0000000e+0
vn 0.0000000e+0 -1.00000000 0.0000000e+0
vn 0.0000000e+0 -1.00000000 0.0000000e+0
vn 0.0000000e+0 -1.00000000 0.0000000e+0
vn 0.0000000e+0 -1.00000000 0.0000000e+0
vn 0.0000000e+0 -1.00000000 0.0000000e+0
vn 0.0000000e+0 1.00000000 -3.4968830e-16
vn 0.0000000e+0 1.00000000 -3.4968830e-16
vn 0.0000000e+0 1.00000000 -3.4968830e-16
vn 0.0000000e+0 1.00000000 -3.4968830e-16
vn 0.0000000e+0 1.00000000 -3.4968830e-16
vn 0.0000000e+0 1.00000000 -3.4968830e-16
vn 0.0000000e+0 1.00000000 -3.4968830e-16
vn 0.0000000e+0 1.00000000 -3.4968830e-16
vn 0.0000000e+0 1.00000000 -3.4968830e-16
vn 0.0000000e+0 1.00000000 -3.4968830e-16
vn 0.0000000e+0 1.00000000 -3.4968830e-16
vn 0.0000000e+0 1.00000000 -3.4968830e-16
vn 0.92252380 0.38594021 -1.2334849e-16
vn 0.37930677 0.92527097 -6.0614203e-17
vn 0.79892904 0.38594021 0.46126190
vn 0.32848930 0.92527097 0.18965338
vn 0.46126190 0.38594021 0.79892904
vn 0.18965338 0.92527097 0.32848930
vn -1.0022065e-16 0.38594021 0.92252380
vn -3.7883877e-17 0.92527097 0.37930677
vn -0.46126190 0.38594021 0.79892904
vn -0.18965338 0.92527097 0.32848930
vn -0.79892904 0.38594021 0.46126190
vn -0.32848930 0.92527097 0.18965338
vn -0.92252380 0.38594021 1.5418561e-17
vn -0.37930677 0.92527097 1.5153551e-17
vn -0.79892904 0.38594021 -0.46126190
vn -0.32848930 0.92527097 -0.18965338
vn -0.46126190 0.38594021 -0.79892904
vn -0.18965338 0.92527097 -0.32848930
vn -6.7070740e-16 0.38594021 -0.92252380
vn -2.8034069e-16 0.92527097 -0.37930677
vn 0.46126190 0.38594021 -0.79892904
vn 0.18965338 0.92527097 -0.32848930
vn 0.79892904 0.38594021 -0.46126190
vn 0.32848930 0.92527097 -0.18965338
vn 0.92252380 -0.38594021 -1.1563921e-16
vn 0.37930677 -0.92527097 -5.3037428e-17
vn 0.79892904 -0.38594021 0.46126190
vn 0.32848930 -0.92527097 0.18965338
vn 0.46126190 -0.38594021 0.79892904
vn 0.18965338 -0.92527097 0.32848930
vn -1.0022065e-16 -0.38594021 0.92252380
vn -3.7883877e-17 -0.92527097 0.37930677
vn -0.46126190 -0.38594021 0.79892904
vn -0.18965338 -0.92527097 0.32848930
vn -0.79892904 -0.38594021 0.46126190
vn -0.32848930 -0.92527097 0.18965338
vn -0.92252380 -0.38594021 7.7092805e-18
vn -0.37930677 -0.92527097 7.5767754e-18
vn -0.79892904 -0.38594021 -0.46126190
vn -0.32848930 -0.92527097 -0.18965338
vn -0.46126190 -0.38594021 -0.79892904
vn -0.18965338 -0.92527097 -0.32848930
vn -6.6299812e-16 -0.38594021 -0.92252380
vn -2.7276391e-16 -0.92527097 -0.37930677
vn 0.46126190 -0.38594021 -0.79892904
vn 0.18965338 -0.92527097 -0.32848930
vn 0.79892904 -0.38594021 -0.46126190
vn 0.32848930 -0.92527097 -0.18965338
vn 0.92252380 -0.38594021 -1.5418561e-16
vn 0.37930677 -0.92527097 -4.5460652e-17
vn 0.79892904 -0.38594021 0.46126190
vn 0.32848930 -0.92527097 0.18965338
vn 0.46126190 -0.38594021 0.79892904
vn 0.18965338 -0.92527097 0.32848930
vn -6.9383525e-17 -0.38594021 0.92252380
vn -3.7883877e-17 -0.92527097 0.37930677
vn -0.46126190 -0.38594021 0.79892904
vn -0.18965338 -0.92527097 0.32848930
vn -0.79892904 -0.38594021 0.46126190
vn -0.32848930 -0.92527097 0.18965338
vn -0.92252380 -0.38594021 2.3127842e-17
vn -0.37930677 -0.92527097 7.5767754e-18
vn -0.79892904 -0.38594021 -0.46126190
vn -0.32848930 -0.92527097 -0.18965338
vn -0.46126190 -0.38594021 -0.79892904
vn -0.18965338 -0.92527097 -0.32848930
vn -6.3216100e-16 -0.38594021 -0.92252380
vn -2.7276391e-16 -0.92527097 -0.37930677
vn 0.46126190 -0.38594021 -0.79892904
vn 0.18965338 -0.92527097 -0.32848930
vn 0.79892904 -0.38594021 -0.46126190
vn 0.32848930 -0.92527097 -0.18965338
vn 0.79892904 0.38594021 0.46126190
vn 0.32848930 0.92527097 0.18965338
vn 0.92252380 0.38594021 -1.7731345e-16
vn 0.37930677 0.92527097 -6.8190978e-17
vn 0.79892904 0.38594021 -0.46126190
vn 0.32848930 0.92527097 -0.18965338
vn 0.46126190 0.38594021 -0.79892904
vn 0.18965338 0.92527097 -0.32848930
vn -5.7819604e-16 0.38594021 -0.92252380
vn -2.1972649e-16 0.92527097 -0.37930677
vn -0.46126190 0.38594021 -0.79892904
vn -0.18965338 0.92527097 -0.32848930
vn -0.79892904 0.38594021 -0.46126190
vn -0.32848930 0.92527097 -0.18965338
vn -0.92252380 0.38594021 1.5418561e-17
vn -0.37930677 0.92527097 0.0000000e+0
vn -0.79892904 0.38594021 0.46126190
vn -0.32848930 0.92527097 0.18965338
vn -0.46126190 0.38594021 0.79892904
vn -0.18965338 0.92527097 0.32848930
vn -1.5418561e-17 0.38594021 0.92252380
vn 1.5153551e-17 0.92527097 0.37930677
vn 0.46126190 0.38594021 0.79892904
vn 0.18965338 0.92527097 0.32848930
g Cylinder2_default
usemtl default
s 1
f 1//1 13//13 24//24 12//12
f 1//1 98//98 100//100 2//2
f 2//2 14//14 13//13 1//1
f 2//2 100//100 102//102 3//3
f 3//3 15//15 14//14 2//2
f 3//3 102//102 104//104 4//4
f 4//4 16//16 15//15 3//3
f 4//4 104//104 106//106 5//5
f 5//5 17//17 16//16 4//4
f 5//5 106//106 108//108 6//6
f 6//6 18//18 17//17 5//5
f 6//6 108//108 110//110 7//7
f 7//7 19//19 18//18 6//6
f 7//7 110//110 112//112 8//8
f 8//8 20//20 19//19 7//7
f 8//8 112//112 114//114 9//9
f 9//9 21//21 20//20 8//8
f 9//9 114//114 116//116 10//10
f 10//10 22//22 21//21 9//9
f 10//10 116//116 118//118 11//11
f 11//11 23//23 22//22 10//10
f 11//11 118//118 120//120 12//12
f 12//12 24//24 23//23 11//11
f 12//12 120//120 98//98 1//1
f 13//13 50//50 72//72 24//24
f 14//14 52//52 50//50 13//13
f 15//15 54//54 52//52 14//14
f 16//16 56//56 54//54 15//15
f 17//17 58//58 56//56 16//16
f 18//18 60//60 58//58 17//17
f 19//19 62//62 60//60 18//18
f 20//20 64//64 62//62 19//19
f 21//21 66//66 64//64 20//20
f 22//22 68//68 66//66 21//21
f 23//23 70//70 68//68 22//22
f 24//24 72//72 70//70 23//23
f 25//25 74//74 76//76 26//26
f 26//26 27//27 28//28 29//29 30//30 31//31 32//32 33//33 34//34 35//35 36//36 25//25
f 26//26 76//76 78//78 27//27
f 27//27 78//78 80//80 28//28
f 28//28 80//80 82//82 29//29
f 29//29 82//82 84//84 30//30
f 30//30 84//84 86//86 31//31
f 31//31 86//86 88//88 32//32
f 32//32 88//88 90//90 33//33
f 33//33 90//90 92//92 34//34
f 34//34 92//92 94//94 35//35
f 35//35 94//94 96//96 36//36
f 36//36 96//96 74//74 25//25
f 37//37 122//122 124//124 38//38
f 38//38 39//39 40//40 41//41 42//42 43//43 44//44 45//45 46//46 47//47 48//48 37//37
f 38//38 124//124 126//126 39//39
f 39//39 126//126 128//128 40//40
f 40//40 128//128 130//130 41//41
f 41//41 130//130 132//132 42//42
f 42//42 132//132 134//134 43//43
f 43//43 134//134 136//136 44//44
f 44//44 136//136 138//138 45//45
f 45//45 138//138 140//140 46//46
f 46//46 140//140 142//142 47//47
f 47//47 142//142 144//144 48//48
f 48//48 144//144 122//122 37//37
f 49//49 51//51 75//75 73//73
f 51//51 49//49 50//50 52//52
f 51//51 53//53 77//77 75//75
f 52//52 54//54 53//53 51//51
f 53//53 55//55 79//79 77//77
f 54//54 56//56 55//55 53//53
f 55//55 57//57 81//81 79//79
f 57//57 55//55 56//56 58//58
f 57//57 59//59 83//83 81//81
f 58//58 60//60 59//59 57//57
f 59//59 61//61 85//85 83//83
f 60//60 62//62 61//61 59//59
f 61//61 63//63 87//87 85//85
f 63//63 61//61 62//62 64//64
f 63//63 65//65 89//89 87//87
f 64//64 66//66 65//65 63//63
f 65//65 67//67 91//91 89//89
f 66//66 68//68 67//67 65//65
f 67//67 69//69 93//93 91//91
f 68//68 70//70 69//69 67//67
f 69//69 71//71 95//95 93//93
f 71//71 69//69 70//70 72//72
f 72//72 50//50 49//49 71//71
f 73//73 75//75 76//76 74//74
f 73//73 95//95 71//71 49//49
f 74//74 96//96 95//95 73//73
f 75//75 77//77 78//78 76//76
f 79//79 81//81 82//82 80//80
f 80//80 78//78 77//77 79//79
f 81//81 83//83 84//84 82//82
f 85//85 87//87 88//88 86//86
f 86//86 84//84 83//83 85//85
f 87//87 89//89 90//90 88//88
f 91//91 93//93 94//94 92//92
f 92//92 90//90 89//89 91//91
f 93//93 95//95 96//96 94//94
f 97//97 99//99 100//100 98//98
f 97//97 119//119 125//125 123//123
f 98//98 120//120 119//119 97//97
f 99//99 101//101 102//102 100//100
f 101//101 103//103 104//104 102//102
f 105//105 107//107 108//108 106//106
f 106//106 104//104 103//103 105//105
f 107//107 109//109 110//110 108//108
f 111//111 113//113 114//114 112//112
f 112//112 110//110 109//109 111//111
f 113//113 115//115 116//116 114//114
f 117//117 119//119 120//120 118//118
f 118//118 116//116 115//115 117//117
f 121//121 123//123 124//124 122//122
f 121//121 143//143 101//101 99//99
f 122//122 144//144 143//143 121//121
f 123//123 121//121 99//99 97//97
f 123//123 125//125 126//126 124//124
f 127//127 125//125 119//119 117//117
f 127//127 129//129 130//130 128//128
f 128//128 126//126 125//125 127//127
f 129//129 127//127 117//117 115//115
f 131//131 129//129 115//115 113//113
f 131//131 133//133 134//134 132//132
f 132//132 130//130 129//129 131//131
f 133//133 131//131 113//113 111//111
f 135//135 133//133 111//111 109//109
f 135//135 137//137 138//138 136//136
f 136//136 134//134 133//133 135//135
f 137//137 135//135 109//109 107//107
f 139//139 137//137 107//107 105//105
f 139//139 141//141 142//142 140//140
f 140//140 138//138 137//137 139//139
f 141//141 139//139 105//105 103//103
f 143//143 141//141 103//103 101//101
f 144//144 142//142 141//141 143//143
