# Exported from Wings 3D 1.5.3
mtllib crystal.mtl
o Cylinder1
#50 vertices, 52 faces
v 0.37246896 -0.19655213 1.0405523e-17
v 9.9934154e-2 -0.19655213 0.37511197
v -0.34103642 -0.19655213 0.23183195
v -0.34103642 -0.19655213 -0.23183195
v 9.9934154e-2 -0.19655213 -0.37511197
v -4.6099853e-2 2.58010651 0.15047774
v 6.0357447e-2 2.54434367 1.2610949e-17
v -4.6099853e-2 2.58010651 -0.15047774
v -0.22011825 2.63856556 -9.2410782e-2
v -0.22011825 2.63856556 9.2410782e-2
v 0.60227864 1.85003689 -4.9554126e-2
v 0.20617341 1.84758301 -0.58863820
v 2.6388739e-2 2.52160829 -0.19937931
v 0.12580510 2.48232014 -4.8250428e-2
v 0.63539267 1.74889835 4.4432150e-2
v 0.22343954 1.74889835 0.61143700
v 0.15511611 -0.14200261 0.40115910
v 0.41429340 -0.14200261 4.4432150e-2
v -0.51752328 1.85332993 0.40711875
v 0.11451923 1.85495928 0.61658463
v -6.8747811e-2 2.53169456 0.22034381
v -0.23744627 2.59053647 0.17112462
v -0.57048081 1.85627593 -0.33455234
v -0.57048081 1.85627593 0.33455234
v -0.28660093 2.60318620 9.2273865e-2
v -0.28660093 2.60318620 -9.2273865e-2
v 0.11451923 1.85495928 -0.61658463
v -0.51752328 1.85332993 -0.40711875
v -0.23744627 2.59053647 -0.17112462
v -6.8747811e-2 2.53169456 -0.22034381
v 0.20617341 1.84758301 0.58863820
v 0.60227864 1.85003689 4.9554126e-2
v 0.12580510 2.48232014 4.8250428e-2
v 2.6388739e-2 2.52160829 0.19937931
v -0.52762961 1.74889835 -0.42232100
v 0.13892456 1.74889835 -0.63889758
v 7.0601133e-2 -0.14200261 -0.42861968
v -0.34875655 -0.14200261 -0.29236211
v 0.22343954 1.74889835 -0.61143700
v 0.63539267 1.74889835 -4.4432150e-2
v 0.41429340 -0.14200261 -4.4432150e-2
v 0.15511611 -0.14200261 -0.40115910
v -0.57986274 1.74889835 0.35042827
v -0.57986274 1.74889835 -0.35042827
v -0.40098967 -0.14200261 -0.22046938
v -0.40098967 -0.14200261 0.22046938
v 0.13892456 1.74889835 0.63889758
v -0.52762961 1.74889835 0.42232100
v -0.34875655 -0.14200261 0.29236211
v 7.0601133e-2 -0.14200261 0.42861968
vn 0.52054993 -0.85383123 1.5349970e-17
vn 0.16085878 -0.85383123 0.49507240
vn -0.42113374 -0.85383123 0.30597157
vn -0.42113374 -0.85383123 -0.30597157
vn 0.16085878 -0.85383123 -0.49507240
vn 0.31739475 0.87901810 0.35579171
vn 0.54714189 0.83703987 -3.5451943e-17
vn 0.31739475 0.87901810 -0.35579171
vn -0.13178554 0.95521225 -0.26495684
vn -0.13178554 0.95521225 0.26495684
vn 0.85454794 0.43837979 -0.27851566
vn 0.54277304 0.40959288 -0.73323332
vn 0.46571470 0.69231970 -0.55118350
vn 0.71357302 0.67870431 -0.17370668
vn 0.94612892 9.3407120e-2 0.31002448
vn 0.58598675 8.0256508e-2 0.80633642
vn 0.52293578 -0.42846578 0.73685497
vn 0.86238676 -0.42846578 0.26964077
vn -0.55064262 0.30711684 0.77619067
vn -6.9074553e-4 0.35795162 0.93373988
vn 8.5271178e-2 0.66329241 0.74348639
vn -0.35432101 0.67690628 0.64517789
vn -0.91414419 0.27740430 -0.29561334
vn -0.91414419 0.27740430 0.29561334
vn -0.69287843 0.67551262 0.25219473
vn -0.69287843 0.67551262 -0.25219473
vn -6.9074553e-4 0.35795162 -0.93373988
vn -0.55064262 0.30711684 -0.77619067
vn -0.35432101 0.67690628 -0.64517789
vn 8.5271178e-2 0.66329241 -0.74348639
vn 0.54277304 0.40959288 0.73323332
vn 0.85454794 0.43837979 0.27851566
vn 0.71357302 0.67870431 0.17370668
vn 0.46571470 0.69231970 0.55118350
vn -0.58718173 2.5198434e-2 -0.80906283
vn -2.6072659e-3 5.3082208e-2 -0.99858674
vn 1.0048556e-2 -0.42846578 -0.90350213
vn -0.53919468 -0.42846578 -0.72504219
vn 0.58598675 8.0256508e-2 -0.80633642
vn 0.94612892 9.3407120e-2 -0.31002448
vn 0.86238676 -0.42846578 -0.26964077
vn 0.52293578 -0.42846578 -0.73685497
vn -0.95101279 9.4268445e-3 0.30900777
vn -0.95101279 9.4268445e-3 -0.30900777
vn -0.85617642 -0.42846578 -0.28875426
vn -0.85617642 -0.42846578 0.28875426
vn -2.6072659e-3 5.3082208e-2 0.99858674
vn -0.58718173 2.5198434e-2 0.80906283
vn -0.53919468 -0.42846578 0.72504219
vn 1.0048556e-2 -0.42846578 0.90350213
g Cylinder1_default
usemtl default
s 1
f 1//1 18//18 17//17 2//2
f 2//2 3//3 4//4 5//5 1//1
f 2//2 50//50 49//49 3//3
f 3//3 46//46 45//45 4//4
f 4//4 38//38 37//37 5//5
f 5//5 42//42 41//41 1//1
f 6//6 34//34 33//33 7//7
f 7//7 8//8 9//9 10//10 6//6
f 7//7 14//14 13//13 8//8
f 8//8 30//30 29//29 9//9
f 9//9 26//26 25//25 10//10
f 10//10 22//22 21//21 6//6
f 11//11 40//40 39//39 12//12
f 12//12 13//13 14//14 11//11
f 12//12 27//27 30//30 13//13
f 13//13 30//30 8//8
f 14//14 33//33 32//32 11//11
f 15//15 32//32 31//31 16//16
f 15//15 40//40 11//11 32//32
f 16//16 17//17 18//18 15//15
f 16//16 47//47 50//50 17//17
f 17//17 50//50 2//2
f 18//18 41//41 40//40 15//15
f 19//19 48//48 47//47 20//20
f 20//20 21//21 22//22 19//19
f 20//20 31//31 34//34 21//21
f 21//21 34//34 6//6
f 22//22 25//25 24//24 19//19
f 23//23 44//44 43//43 24//24
f 24//24 25//25 26//26 23//23
f 24//24 43//43 48//48 19//19
f 25//25 22//22 10//10
f 26//26 29//29 28//28 23//23
f 27//27 36//36 35//35 28//28
f 28//28 29//29 30//30 27//27
f 28//28 35//35 44//44 23//23
f 29//29 26//26 9//9
f 31//31 20//20 47//47 16//16
f 32//32 33//33 34//34 31//31
f 33//33 14//14 7//7
f 36//36 37//37 38//38 35//35
f 36//36 39//39 42//42 37//37
f 37//37 42//42 5//5
f 38//38 45//45 44//44 35//35
f 39//39 36//36 27//27 12//12
f 40//40 41//41 42//42 39//39
f 41//41 18//18 1//1
f 44//44 45//45 46//46 43//43
f 45//45 38//38 4//4
f 46//46 49//49 48//48 43//43
f 48//48 49//49 50//50 47//47
f 49//49 46//46 3//3
