# Exported from Wings 3D 1.5.3
mtllib crystal.mtl
o Cylinder1
#60 vertices, 62 faces
v 6.6278260e-3 -1.00000000 2.0797520e-17
v 3.3139130e-3 -1.00000000 5.7398657e-3
v -3.3139130e-3 -1.00000000 5.7398657e-3
v -6.6278260e-3 -1.00000000 1.5736422e-17
v -3.3139130e-3 -1.00000000 -5.7398657e-3
v 3.3139130e-3 -1.00000000 -5.7398657e-3
v 3.3139130e-3 1.00000000 5.7398657e-3
v 6.6278260e-3 1.00000000 2.0797520e-17
v 3.3139130e-3 1.00000000 -5.7398657e-3
v -3.3139130e-3 1.00000000 -5.7398657e-3
v -6.6278260e-3 1.00000000 1.5736422e-17
v -3.3139130e-3 1.00000000 5.7398657e-3
v -0.18116856 -1.1568613e-2 0.29267100
v -0.34404480 -1.1568613e-2 1.0561077e-2
v -1.8292322e-2 -0.98843139 1.0561077e-2
v -1.8292322e-2 -0.98843139 1.0561077e-2
v -0.34404480 -1.1568613e-2 -1.0561077e-2
v -0.18116856 -1.1568613e-2 -0.29267100
v -1.8292322e-2 -0.98843139 -1.0561077e-2
v -1.8292322e-2 -0.98843139 -1.0561077e-2
v 0.16287624 -1.1568613e-2 0.30323207
v -0.16287624 -1.1568613e-2 0.30323207
v -1.4224733e-16 -0.98843139 2.1122154e-2
v -1.4224733e-16 -0.98843139 2.1122154e-2
v -0.16287624 1.1568613e-2 0.30323207
v 0.16287624 1.1568613e-2 0.30323207
v -1.4224733e-16 0.98843139 2.1122154e-2
v -1.4224733e-16 0.98843139 2.1122154e-2
v 0.34404480 -1.1568613e-2 1.0561077e-2
v 0.18116856 -1.1568613e-2 0.29267100
v 1.8292322e-2 -0.98843139 1.0561077e-2
v 1.8292322e-2 -0.98843139 1.0561077e-2
v -0.34404480 1.1568613e-2 1.0561077e-2
v -0.18116856 1.1568613e-2 0.29267100
v -1.8292322e-2 0.98843139 1.0561077e-2
v -1.8292322e-2 0.98843139 1.0561077e-2
v -0.18116856 1.1568613e-2 -0.29267100
v -0.34404480 1.1568613e-2 -1.0561077e-2
v -1.8292322e-2 0.98843139 -1.0561077e-2
v -1.8292322e-2 0.98843139 -1.0561077e-2
v 0.18116856 1.1568613e-2 0.29267100
v 0.34404480 1.1568613e-2 1.0561077e-2
v 1.8292322e-2 0.98843139 1.0561077e-2
v 1.8292322e-2 0.98843139 1.0561077e-2
v 0.18116856 -1.1568613e-2 -0.29267100
v 0.34404480 -1.1568613e-2 -1.0561077e-2
v 1.8292322e-2 -0.98843139 -1.0561077e-2
v 1.8292322e-2 -0.98843139 -1.0561077e-2
v 0.16287624 1.1568613e-2 -0.30323207
v -0.16287624 1.1568613e-2 -0.30323207
v -1.5612511e-16 0.98843139 -2.1122154e-2
v -1.5785984e-16 0.98843139 -2.1122154e-2
v 0.34404480 1.1568613e-2 -1.0561077e-2
v 0.18116856 1.1568613e-2 -0.29267100
v 1.8292322e-2 0.98843139 -1.0561077e-2
v 1.8292322e-2 0.98843139 -1.0561077e-2
v -0.16287624 -1.1568613e-2 -0.30323207
v 0.16287624 -1.1568613e-2 -0.30323207
v -1.5785984e-16 -0.98843139 -2.1122154e-2
v -1.5612511e-16 -0.98843139 -2.1122154e-2
vn 0.46657777 -0.88448018 1.7066508e-15
vn 0.23328888 -0.88448018 0.40406820
vn -0.23328888 -0.88448018 0.40406820
vn -0.46657777 -0.88448018 2.3893111e-15
vn -0.23328888 -0.88448018 -0.40406820
vn 0.23328888 -0.88448018 -0.40406820
vn 0.23328888 0.88448018 0.40406820
vn 0.46657777 0.88448018 -2.2705876e-15
vn 0.23328888 0.88448018 -0.40406820
vn -0.23328888 0.88448018 -0.40406820
vn -0.46657777 0.88448018 -1.6472890e-15
vn -0.23328888 0.88448018 0.40406820
vn -0.69910213 -0.15533922 0.69794408
vn -0.95398837 -0.15533922 0.25646817
vn -0.80136957 -0.56075855 0.20822261
vn -0.58101086 -0.56075855 0.58989510
vn -0.95398837 -0.15533922 -0.25646817
vn -0.69910213 -0.15533922 -0.69794408
vn -0.58101086 -0.56075855 -0.58989510
vn -0.80136957 -0.56075855 -0.20822261
vn 0.25488624 -0.15533922 0.95441224
vn -0.25488624 -0.15533922 0.95441224
vn -0.22035872 -0.56075855 0.79811771
vn 0.22035872 -0.56075855 0.79811771
vn -0.25488624 0.15533922 0.95441224
vn 0.25488624 0.15533922 0.95441224
vn 0.22035872 0.56075855 0.79811771
vn -0.22035872 0.56075855 0.79811771
vn 0.95398837 -0.15533922 0.25646817
vn 0.69910213 -0.15533922 0.69794408
vn 0.58101086 -0.56075855 0.58989510
vn 0.80136957 -0.56075855 0.20822261
vn -0.95398837 0.15533922 0.25646817
vn -0.69910213 0.15533922 0.69794408
vn -0.58101086 0.56075855 0.58989510
vn -0.80136957 0.56075855 0.20822261
vn -0.69910213 0.15533922 -0.69794408
vn -0.95398837 0.15533922 -0.25646817
vn -0.80136957 0.56075855 -0.20822261
vn -0.58101086 0.56075855 -0.58989510
vn 0.69910213 0.15533922 0.69794408
vn 0.95398837 0.15533922 0.25646817
vn 0.80136957 0.56075855 0.20822261
vn 0.58101086 0.56075855 0.58989510
vn 0.69910213 -0.15533922 -0.69794408
vn 0.95398837 -0.15533922 -0.25646817
vn 0.80136957 -0.56075855 -0.20822261
vn 0.58101086 -0.56075855 -0.58989510
vn 0.25488624 0.15533922 -0.95441224
vn -0.25488624 0.15533922 -0.95441224
vn -0.22035872 0.56075855 -0.79811771
vn 0.22035872 0.56075855 -0.79811771
vn 0.95398837 0.15533922 -0.25646817
vn 0.69910213 0.15533922 -0.69794408
vn 0.58101086 0.56075855 -0.58989510
vn 0.80136957 0.56075855 -0.20822261
vn -0.25488624 -0.15533922 -0.95441224
vn 0.25488624 -0.15533922 -0.95441224
vn 0.22035872 -0.56075855 -0.79811771
vn -0.22035872 -0.56075855 -0.79811771
g Cylinder1_default
usemtl default
s 1
f 1//1 32//32 31//31 2//2
f 2//2 3//3 4//4 5//5 6//6 1//1
f 2//2 24//24 23//23 3//3
f 3//3 16//16 15//15 4//4
f 4//4 20//20 19//19 5//5
f 5//5 60//60 59//59 6//6
f 6//6 48//48 47//47 1//1
f 7//7 44//44 43//43 8//8
f 8//8 9//9 10//10 11//11 12//12 7//7
f 8//8 43//43 56//56
f 8//8 56//56 55//55 9//9
f 9//9 52//52 51//51 10//10
f 10//10 40//40 39//39 11//11
f 11//11 36//36 35//35 12//12
f 12//12 28//28 27//27 7//7
f 13//13 34//34 33//33 14//14
f 14//14 15//15 16//16 13//13
f 14//14 17//17 20//20 15//15
f 15//15 20//20 4//4
f 16//16 23//23 22//22 13//13
f 17//17 38//38 37//37 18//18
f 18//18 19//19 20//20 17//17
f 18//18 57//57 60//60 19//19
f 19//19 60//60 5//5
f 21//21 26//26 25//25 22//22
f 22//22 23//23 24//24 21//21
f 22//22 25//25 34//34 13//13
f 23//23 16//16 3//3
f 24//24 31//31 30//30 21//21
f 26//26 27//27 28//28 25//25
f 26//26 41//41 44//44 27//27
f 27//27 44//44 7//7
f 28//28 35//35 34//34 25//25
f 29//29 42//42 41//41 30//30
f 30//30 31//31 32//32 29//29
f 30//30 41//41 26//26 21//21
f 31//31 24//24 2//2
f 32//32 47//47 46//46 29//29
f 33//33 38//38 17//17 14//14
f 34//34 35//35 36//36 33//33
f 35//35 28//28 12//12
f 36//36 39//39 38//38 33//33
f 37//37 50//50 57//57 18//18
f 38//38 39//39 40//40 37//37
f 39//39 36//36 11//11
f 40//40 51//51 50//50 37//37
f 42//42 43//43 44//44 41//41
f 42//42 53//53 56//56 43//43
f 45//45 54//54 53//53 46//46
f 46//46 47//47 48//48 45//45
f 46//46 53//53 42//42 29//29
f 47//47 32//32 1//1
f 48//48 59//59 58//58 45//45
f 49//49 58//58 57//57 50//50
f 50//50 51//51 52//52 49//49
f 51//51 40//40 10//10
f 52//52 55//55 54//54 49//49
f 54//54 55//55 56//56 53//53
f 55//55 52//52 9//9
f 58//58 49//49 54//54 45//45
f 58//58 59//59 60//60 57//57
f 59//59 48//48 6//6
