# Exported from Wings 3D 1.5.3
mtllib crystal2.mtl
o Cylinder3
#72 vertices, 62 faces
v 4.7247024e-2 0.97899326 1.5406711e-17
v 4.0917123e-2 0.97899326 2.3623512e-2
v 2.3623512e-2 0.97899326 4.0917123e-2
v -9.0628976e-17 0.97899326 4.7247024e-2
v -2.3623512e-2 0.97899326 4.0917123e-2
v -4.0917123e-2 0.97899326 2.3623512e-2
v -4.7247024e-2 0.97899326 2.1192803e-17
v -4.0917123e-2 0.97899326 -2.3623512e-2
v -2.3623512e-2 0.97899326 -4.0917123e-2
v -1.0220116e-16 0.97899326 -4.7247024e-2
v 2.3623512e-2 0.97899326 -4.0917123e-2
v 4.0917123e-2 0.97899326 -2.3623512e-2
v 4.7247024e-2 -0.97899326 1.5406711e-17
v 4.0917123e-2 -0.97899326 2.3623512e-2
v 2.3623512e-2 -0.97899326 4.0917123e-2
v -9.0628976e-17 -0.97899326 4.7247024e-2
v -2.3623512e-2 -0.97899326 4.0917123e-2
v -4.0917123e-2 -0.97899326 2.3623512e-2
v -4.7247024e-2 -0.97899326 2.1192803e-17
v -4.0917123e-2 -0.97899326 -2.3623512e-2
v -2.3623512e-2 -0.97899326 -4.0917123e-2
v -1.0220116e-16 -0.97899326 -4.7247024e-2
v 2.3623512e-2 -0.97899326 -4.0917123e-2
v 4.0917123e-2 -0.97899326 -2.3623512e-2
v 0.23333919 2.1006739e-2 -0.13471844
v 0.23333919 -2.1006739e-2 -0.13471844
v 0.13471844 2.1006739e-2 -0.23333919
v 0.13471844 -2.1006739e-2 -0.23333919
v -9.9450299e-17 2.1006739e-2 -0.26943689
v -9.9450299e-17 -2.1006739e-2 -0.26943689
v -0.13471844 2.1006739e-2 -0.23333919
v -0.13471844 -2.1006739e-2 -0.23333919
v -0.23333919 2.1006739e-2 -0.13471844
v -0.23333919 -2.1006739e-2 -0.13471844
v -0.26943689 2.1006739e-2 3.5882903e-17
v -0.26943689 -2.1006739e-2 3.5882903e-17
v -0.23333919 2.1006739e-2 0.13471844
v -0.23333919 -2.1006739e-2 0.13471844
v -0.13471844 2.1006739e-2 0.23333919
v -0.13471844 -2.1006739e-2 0.23333919
v -4.9780411e-17 2.1006739e-2 0.26943689
v -4.9780411e-17 -2.1006739e-2 0.26943689
v 0.13471844 2.1006739e-2 0.23333919
v 0.13471844 -2.1006739e-2 0.23333919
v 0.23333919 2.1006739e-2 0.13471844
v 0.23333919 -2.1006739e-2 0.13471844
v 0.26943689 2.1006739e-2 3.4751276e-17
v 0.26943689 -2.1006739e-2 3.4751276e-17
v 1.4241997e-2 1.00000000 8.2226209e-3
v 1.6445242e-2 1.00000000 1.6712573e-17
v 1.4241997e-2 1.00000000 -8.2226209e-3
v 8.2226209e-3 1.00000000 -1.4241997e-2
v -9.4065612e-17 1.00000000 -1.6445242e-2
v -8.2226209e-3 1.00000000 -1.4241997e-2
v -1.4241997e-2 1.00000000 -8.2226209e-3
v -1.6445242e-2 1.00000000 1.3579817e-17
v -1.4241997e-2 1.00000000 8.2226209e-3
v -8.2226209e-3 1.00000000 1.4241997e-2
v -9.0354402e-17 1.00000000 1.6445242e-2
v 8.2226209e-3 1.00000000 1.4241997e-2
v 1.6445242e-2 -1.00000000 1.6712573e-17
v 1.4241997e-2 -1.00000000 8.2226209e-3
v 8.2226209e-3 -1.00000000 1.4241997e-2
v -9.0354402e-17 -1.00000000 1.6445242e-2
v -8.2226209e-3 -1.00000000 1.4241997e-2
v -1.4241997e-2 -1.00000000 8.2226209e-3
v -1.6445242e-2 -1.00000000 1.3579817e-17
v -1.4241997e-2 -1.00000000 -8.2226209e-3
v -8.2226209e-3 -1.00000000 -1.4241997e-2
v -9.4065612e-17 -1.00000000 -1.6445242e-2
v 8.2226209e-3 -1.00000000 -1.4241997e-2
v 1.4241997e-2 -1.00000000 -8.2226209e-3
vn 0.82289286 0.56819657 -9.1378568e-17
vn 0.71264612 0.56819657 0.41144643
vn 0.41144643 0.56819657 0.71264612
vn 4.5689284e-17 0.56819657 0.82289286
vn -0.41144643 0.56819657 0.71264612
vn -0.71264612 0.56819657 0.41144643
vn -0.82289286 0.56819657 2.2083154e-16
vn -0.71264612 0.56819657 -0.41144643
vn -0.41144643 0.56819657 -0.71264612
vn -2.5890594e-16 0.56819657 -0.82289286
vn 0.41144643 0.56819657 -0.71264612
vn 0.71264612 0.56819657 -0.41144643
vn 0.82289286 -0.56819657 -9.1378568e-17
vn 0.71264612 -0.56819657 0.41144643
vn 0.41144643 -0.56819657 0.71264612
vn 4.5689284e-17 -0.56819657 0.82289286
vn -0.41144643 -0.56819657 0.71264612
vn -0.71264612 -0.56819657 0.41144643
vn -0.82289286 -0.56819657 2.2083154e-16
vn -0.71264612 -0.56819657 -0.41144643
vn -0.41144643 -0.56819657 -0.71264612
vn -2.5890594e-16 -0.56819657 -0.82289286
vn 0.41144643 -0.56819657 -0.71264612
vn 0.71264612 -0.56819657 -0.41144643
vn 0.86039910 0.11380325 -0.49675165
vn 0.86039910 -0.11380325 -0.49675165
vn 0.49675165 0.11380325 -0.86039910
vn 0.49675165 -0.11380325 -0.86039910
vn -3.4676994e-16 0.11380325 -0.99350331
vn -3.4676994e-16 -0.11380325 -0.99350331
vn -0.49675165 0.11380325 -0.86039910
vn -0.49675165 -0.11380325 -0.86039910
vn -0.86039910 0.11380325 -0.49675165
vn -0.86039910 -0.11380325 -0.49675165
vn -0.99350331 0.11380325 2.8897495e-16
vn -0.99350331 -0.11380325 2.8897495e-16
vn -0.86039910 0.11380325 0.49675165
vn -0.86039910 -0.11380325 0.49675165
vn -0.49675165 0.11380325 0.86039910
vn -0.49675165 -0.11380325 0.86039910
vn 1.1558998e-16 0.11380325 0.99350331
vn 1.1558998e-16 -0.11380325 0.99350331
vn 0.49675165 0.11380325 0.86039910
vn 0.49675165 -0.11380325 0.86039910
vn 0.86039910 0.11380325 0.49675165
vn 0.86039910 -0.11380325 0.49675165
vn 0.99350331 0.11380325 -7.2243738e-17
vn 0.99350331 -0.11380325 -7.2243738e-17
vn 0.33742481 0.92097376 0.19481230
vn 0.38962461 0.92097376 -7.7643360e-17
vn 0.33742481 0.92097376 -0.19481230
vn 0.19481230 0.92097376 -0.33742481
vn -9.7054201e-17 0.92097376 -0.38962461
vn -0.19481230 0.92097376 -0.33742481
vn -0.33742481 0.92097376 -0.19481230
vn -0.38962461 0.92097376 1.2617046e-16
vn -0.33742481 0.92097376 0.19481230
vn -0.19481230 0.92097376 0.33742481
vn -1.9410840e-17 0.92097376 0.38962461
vn 0.19481230 0.92097376 0.33742481
vn 0.38962461 -0.92097376 -7.7643360e-17
vn 0.33742481 -0.92097376 0.19481230
vn 0.19481230 -0.92097376 0.33742481
vn -1.9410840e-17 -0.92097376 0.38962461
vn -0.19481230 -0.92097376 0.33742481
vn -0.33742481 -0.92097376 0.19481230
vn -0.38962461 -0.92097376 1.2617046e-16
vn -0.33742481 -0.92097376 -0.19481230
vn -0.19481230 -0.92097376 -0.33742481
vn -9.7054201e-17 -0.92097376 -0.38962461
vn 0.19481230 -0.92097376 -0.33742481
vn 0.33742481 -0.92097376 -0.19481230
g Cylinder3_default
usemtl default
s 1
f 1//1 2//2 45//45 47//47
f 1//1 12//12 51//51 50//50
f 2//2 3//3 43//43 45//45
f 2//2 49//49 60//60 3//3
f 3//3 4//4 41//41 43//43
f 3//3 60//60 59//59 4//4
f 4//4 5//5 39//39 41//41
f 4//4 59//59 58//58 5//5
f 5//5 6//6 37//37 39//39
f 5//5 58//58 57//57 6//6
f 6//6 7//7 35//35 37//37
f 6//6 57//57 56//56 7//7
f 7//7 8//8 33//33 35//35
f 7//7 56//56 55//55 8//8
f 8//8 9//9 31//31 33//33
f 8//8 55//55 54//54 9//9
f 9//9 10//10 29//29 31//31
f 9//9 54//54 53//53 10//10
f 10//10 11//11 27//27 29//29
f 10//10 53//53 52//52 11//11
f 11//11 12//12 25//25 27//27
f 12//12 11//11 52//52 51//51
f 13//13 61//61 72//72 24//24
f 14//14 13//13 48//48 46//46
f 14//14 15//15 63//63 62//62
f 15//15 14//14 46//46 44//44
f 15//15 16//16 64//64 63//63
f 16//16 15//15 44//44 42//42
f 16//16 17//17 65//65 64//64
f 17//17 16//16 42//42 40//40
f 17//17 18//18 66//66 65//65
f 18//18 17//17 40//40 38//38
f 18//18 19//19 67//67 66//66
f 19//19 18//18 38//38 36//36
f 19//19 20//20 68//68 67//67
f 20//20 19//19 36//36 34//34
f 20//20 21//21 69//69 68//68
f 21//21 20//20 34//34 32//32
f 21//21 22//22 70//70 69//69
f 22//22 21//21 32//32 30//30
f 22//22 23//23 71//71 70//70
f 23//23 22//22 30//30 28//28
f 23//23 24//24 72//72 71//71
f 24//24 23//23 28//28 26//26
f 25//25 47//47 48//48 26//26
f 26//26 28//28 27//27 25//25
f 26//26 48//48 13//13 24//24
f 28//28 30//30 29//29 27//27
f 30//30 32//32 31//31 29//29
f 32//32 34//34 33//33 31//31
f 34//34 36//36 35//35 33//33
f 36//36 38//38 37//37 35//35
f 38//38 40//40 39//39 37//37
f 40//40 42//42 41//41 39//39
f 42//42 44//44 43//43 41//41
f 44//44 46//46 45//45 43//43
f 46//46 48//48 47//47 45//45
f 47//47 25//25 12//12 1//1
f 50//50 49//49 2//2 1//1
f 50//50 51//51 52//52 53//53 54//54 55//55 56//56 57//57 58//58 59//59 60//60 49//49
f 62//62 61//61 13//13 14//14
f 62//62 63//63 64//64 65//65 66//66 67//67 68//68 69//69 70//70 71//71 72//72 61//61
