# Blender v2.75 (sub 0) OBJ File: ''
# www.blender.org
mtllib finLo.mtl
o Cube1_default
v -0.081863 -0.023047 -0.129274
v 0.047787 -0.045197 -0.231251
v 0.023546 -0.035348 0.180709
v 0.087068 0.041185 0.192795
v -0.077336 0.010533 0.126262
v 1.293453 -0.005940 -0.839567
v 1.178566 -0.052152 0.139368
v 1.532962 0.042267 -0.912840
v 3.254433 -0.004302 -0.221666
v 3.532745 -0.046961 -1.120033
v 3.522018 -0.081284 -0.814198
v 3.522019 0.081284 -0.814198
v 3.491516 0.049718 -0.471840
v 0.671706 0.056764 0.164746
v 0.862455 0.076290 -0.351433
v -0.007739 0.052817 -0.171138
v 0.126936 -0.079523 0.040265
v 0.223907 -0.019175 0.218600
v 0.928683 -0.074013 -0.418033
v 0.742455 -0.025409 -0.442427
v 3.538347 -0.051734 -0.549988
v 3.610228 -0.005427 -0.666245
v 3.622922 -0.040435 -0.915197
v 3.616521 0.052045 -0.856422
v 3.589027 0.017440 -1.079872
v 3.505519 0.049042 -1.132053
v 2.955730 0.054502 -0.199217
v 2.015976 0.005861 0.151036
v 2.947750 0.045208 -1.219361
v 3.060977 -0.054287 -1.185550
v 2.085606 -0.032302 -1.108399
v 2.850143 -0.051314 -0.146743
v -0.090046 0.045205 0.005285
v 0.126936 0.079523 0.040265
v 1.751923 -0.001067 -1.045254
v 1.295574 -0.005893 0.212197
v 3.397346 0.000000 -1.247449
v 0.713240 0.017816 -0.432824
v 2.736195 0.001311 -1.267912
v 2.675995 0.000000 0.002907
v 0.092008 0.027704 -0.260546
v -0.101860 -0.036930 0.016281
v 3.510918 -0.003323 -0.454830
vn -0.330600 -0.557100 0.761800
vn -0.821300 -0.567000 0.063000
vn -0.082300 -0.992500 0.090800
vn 0.102900 -0.949600 0.295900
vn 0.544000 -0.783200 0.301100
vn 0.492700 -0.072900 0.867100
vn 0.004600 -0.937500 -0.348000
vn 0.484800 -0.709700 -0.511200
vn 0.209200 -0.977800 0.010100
vn -0.825100 -0.359800 -0.435600
vn -0.432900 -0.621300 -0.653100
vn 0.075400 -0.067900 0.994800
vn -0.019100 -0.371200 0.928300
vn 0.021000 -0.948400 0.316400
vn 0.768100 0.640200 -0.014000
vn 0.354100 0.809200 -0.468800
vn 0.167500 0.985800 0.009200
vn -0.321700 0.436800 -0.840100
vn -0.487900 0.722300 -0.490200
vn -0.350500 -0.564000 -0.747700
vn -0.484800 -0.169000 -0.858100
vn -0.090900 -0.979900 -0.177700
vn 0.003500 0.904100 -0.427300
vn -0.082400 0.983800 -0.159500
vn -0.078700 0.993400 0.083500
vn -0.759500 0.168700 0.628300
vn -0.308600 -0.039700 -0.950400
vn -0.138300 -0.787500 -0.600600
vn 0.255700 -0.005000 -0.966700
vn 0.017400 0.899800 0.435900
vn -0.204800 0.626400 0.752100
vn -0.307900 0.553800 -0.773700
vn -0.720300 0.692700 0.037200
vn 0.239100 0.018300 0.970800
vn 0.115200 0.949700 0.291300
vn 0.163500 0.057100 0.984900
vn 0.847500 -0.519900 -0.106700
vn 0.966200 -0.030300 0.256100
vn 0.757900 -0.128300 0.639600
vn -0.203700 0.861400 -0.465300
vn -0.144100 -0.007600 -0.989500
vn 0.488600 0.794500 0.360600
vn 0.858500 0.268600 -0.437000
usemtl default.001
s 1
f 3//1 42//2 17//3
f 32//4 21//5 9//6
f 30//7 10//8 11//9
f 42//2 1//10 2//11 17//3
f 36//12 18//13 7//14
f 24//15 26//16 12//17
f 41//18 2//11 1//10 16//19
f 20//20 6//21 19//22
f 29//23 15//24 12//17
f 34//25 15//24 16//19
f 2//11 19//22 17//3
f 11//9 17//3 19//22
f 5//26 42//2 3//1
f 6//21 35//27 31//28
f 29//23 26//16 37//29
f 37//29 10//8 30//7
f 36//12 14//30 4//31
f 20//20 2//11 38//32
f 4//31 3//1 18//13
f 33//33 16//19 1//10
f 40//34 27//35 28//36
f 34//25 33//33 4//31
f 6//21 31//28 19//22
f 11//9 10//8 23//37
f 3//1 4//31 5//26
f 22//38 43//39 21//5
f 11//9 19//22 30//7
f 35//27 8//40 39//41
f 38//32 15//24 8//40
f 15//24 34//25 12//17
f 8//40 35//27 6//21
f 14//30 36//12 28//36
f 37//29 39//41 29//23
f 30//7 39//41 37//29
f 13//42 43//39 22//38
f 25//43 10//8 37//29
f 35//27 39//41 31//28
f 32//4 11//9 21//5
f 26//16 29//23 12//17
f 27//35 13//42 12//17
f 20//20 19//22 2//11
f 13//42 22//38 24//15
f 3//1 17//3 7//14
f 7//14 17//3 32//4
f 19//22 31//28 30//7
f 29//23 8//40 15//24
f 27//35 14//30 28//36
f 21//5 23//37 22//38
f 11//9 32//4 17//3
f 7//14 28//36 36//12
f 36//12 4//31 18//13
f 25//43 23//37 10//8
f 39//41 8//40 29//23
f 28//36 32//4 40//34
f 32//4 28//36 7//14
f 23//37 24//15 22//38
f 42//2 33//33 1//10
f 31//28 39//41 30//7
f 40//34 9//6 27//35
f 40//34 32//4 9//6
f 6//21 38//32 8//40
f 37//29 26//16 25//43
f 21//5 43//39 9//6
f 13//42 9//6 43//39
f 24//15 25//43 26//16
f 24//15 12//17 13//42
f 7//14 18//13 3//1
f 4//31 33//33 5//26
f 4//31 14//30 34//25
f 14//30 27//35 34//25
f 23//37 21//5 11//9
f 16//19 15//24 38//32 41//18
f 33//33 34//25 16//19
f 12//17 34//25 27//35
f 13//42 27//35 9//6
f 2//11 41//18 38//32
f 24//15 23//37 25//43
f 33//33 42//2 5//26
f 6//21 20//20 38//32
