# Exported from Wings 3D 1.5.3
mtllib grass.mtl
o image2
#21 vertices, 19 faces
v -1.00000000 5.0000000e-4 1.00000000
v 1.00000000 5.0000000e-4 1.00000000
v -1.00000000 -5.0000000e-4 -1.00000000
v -1.00000000 5.0000000e-4 -1.00000000
v 1.00000000 5.0000000e-4 -1.00000000
v -1.00000000 0.10050000 0.33333333
v -1.00000000 0.10050000 -0.33333333
v 1.00000000 0.10050000 0.33333333
v 1.00000000 0.10050000 -0.33333333
v -0.33333333 0.10050000 1.00000000
v 0.33333333 0.10050000 1.00000000
v -0.33333333 0.10050000 -1.00000000
v 0.33333333 0.10050000 -1.00000000
v -0.33333333 0.20050000 0.33333333
v 0.33333333 0.20050000 0.33333333
v -0.33333333 0.20050000 -0.33333333
v 0.33333333 0.20050000 -0.33333333
v -0.33333333 0.10050000 0.33333333
v -0.33333333 0.10050000 -0.33333333
v 0.33333333 0.10050000 -0.33333333
v 0.33333333 0.10050000 0.33333333
vt 0.0000000e+0 0.0000000e+0
vt 0.0000000e+0 0.33333333
vt 0.0000000e+0 0.66666667
vt 0.0000000e+0 1.00000000
vt 0.33333333 0.0000000e+0
vt 0.33333333 1.00000000
vt 0.33333333 0.33333333
vt 0.33333333 0.66666667
vt 0.66666667 0.0000000e+0
vt 0.66666667 1.00000000
vt 0.66666667 0.33333333
vt 0.66666667 0.66666667
vt 1.00000000 0.0000000e+0
vt 1.00000000 0.33333333
vt 1.00000000 0.66666667
vt 1.00000000 1.00000000
vn -7.4175803e-2 0.99448273 7.4175803e-2
vn 7.4175803e-2 0.99448273 7.4175803e-2
vn -7.4175803e-2 0.99448273 -7.4175803e-2
vn 7.4175803e-2 0.99448273 -7.4175803e-2
vn 1.8664944e-2 -0.99965156 -1.8664944e-2
vn 1.8664096e-2 -0.99964809 1.8850737e-2
vn -1.8664944e-2 -0.99965156 1.8664944e-2
vn -1.8664944e-2 -0.99965156 -1.8664944e-2
vn -0.14673480 0.97823198 0.14673480
vn 7.4581652e-2 -0.99442202 -7.4581652e-2
vn 0.14673480 0.97823198 0.14673480
vn -7.4581652e-2 -0.99442202 -7.4581652e-2
vn 5.4840039e-2 -0.73120052 -0.67995468
vn 5.4840039e-2 -0.73120052 -0.67995468
vn -0.14673480 0.97823198 -0.14673480
vn -2.6020852e-15 0.0000000e+0 -1.00000000
vn 7.4577483e-2 -0.99436643 7.5323257e-2
vn 0.14673480 0.97823198 -0.14673480
vn -7.4581652e-2 -0.99442202 7.4581652e-2
vn -0.14793849 0.98625663 7.3566742e-2
vn -0.14793849 0.98625663 7.3566742e-2
vn 3.7342937e-2 -0.99860453 -3.7342937e-2
vn 3.7342937e-2 -0.99860453 -3.7342937e-2
vn -0.14793849 0.98625663 -7.3566742e-2
vn -0.14793849 0.98625663 -7.3566742e-2
vn 3.7341370e-2 -0.99859062 3.7714783e-2
vn 3.7341370e-2 -0.99859062 3.7714783e-2
vn 0.14793849 0.98625663 7.3566742e-2
vn 0.14793849 0.98625663 7.3566742e-2
vn -3.7342937e-2 -0.99860453 -3.7342937e-2
vn -3.7342937e-2 -0.99860453 -3.7342937e-2
vn 0.14793849 0.98625663 -7.3566742e-2
vn 0.14793849 0.98625663 -7.3566742e-2
vn -3.7342937e-2 -0.99860453 3.7342937e-2
vn -3.7342937e-2 -0.99860453 3.7342937e-2
vn -7.3566742e-2 0.98625663 0.14793849
vn -7.3566742e-2 0.98625663 0.14793849
vn 3.7342937e-2 -0.99860453 -3.7342937e-2
vn 3.7342937e-2 -0.99860453 -3.7342937e-2
vn 7.3566742e-2 0.98625663 0.14793849
vn 7.3566742e-2 0.98625663 0.14793849
vn -3.7342937e-2 -0.99860453 -3.7342937e-2
vn -3.7342937e-2 -0.99860453 -3.7342937e-2
vn -7.3566742e-2 0.98625663 -0.14793849
vn -7.3566742e-2 0.98625663 -0.14793849
vn 3.3905559e-2 -0.90670946 -0.42039073
vn 3.3905559e-2 -0.90670946 -0.42039073
vn 3.3905559e-2 -0.90670946 -0.42039073
vn 7.3566742e-2 0.98625663 -0.14793849
vn 7.3566742e-2 0.98625663 -0.14793849
vn -3.7342937e-2 -0.99860453 3.7342937e-2
vn -3.7342937e-2 -0.99860453 3.7342937e-2
g image2_Splotches
usemtl Splotches
s 2
f 4/16/15 7/10/25 16/12/3 12/15/44
f 5/13/18 13/14/50 17/11/4 9/9/33
f 6/6/21 14/8/1 16/12/3 7/10/24
f 8/5/28 15/7/2 11/2/41 2/1/11
f 9/9/32 17/11/4 15/7/2 8/5/29
f 10/3/36 14/8/1 6/6/20 1/4/9
f 11/2/40 15/7/2 14/8/1 10/3/37
f 12/15/45 16/12/3 17/11/4 13/14/49
f 15/7/2 17/11/4 16/12/3 14/8/1
g image2_transparency_ip
usemtl transparency_ip
s 1
f 1//10 6//23 18//5 10//38
f 2//12 11//42 21//8 8//31
f 3//14 12//47 19//6 7//27 4//17
f 4//16 12//46 3//13
f 7//26 19//6 18//5 6//22
f 8//30 21//8 20//7 9//34
f 9//35 20//7 13//51 5//19
f 10//39 18//5 21//8 11//43
f 13//52 20//7 19//6 12//48
f 19//6 20//7 21//8 18//5
