# Exported from Wings 3D 1.5.3
mtllib island1.mtl
o F3:GeoDome5
#212 vertices, 238 faces
v -0.97943209 -0.17163931 -0.10607893
v -0.93222851 -0.60179234 4.0379210e-2
v -0.73002557 0.17163931 -0.66151539
v -0.73045440 -0.60179234 -0.58061764
v -0.73653293 0.52563090 0.23931406
v -0.57735027 -0.18759247 -0.79465447
v -0.64557581 0.55002410 -0.22957241
v -0.42836228 0.51234334 -0.63382313
v -0.43432177 -0.88152890 -0.51630464
v -0.43668612 0.53673655 0.54784319
v -0.38007465 0.56948435 0.11585995
v -0.18046143 -0.57776444 0.93206648
v -0.20177411 -0.17163931 -0.96427546
v -0.21724143 0.56948435 -0.30922187
v 0.0000000e+0 -0.72707577 -0.68655723
v 0.0000000e+0 0.18759247 -0.98224695
v 2.9239892e-2 0.55002410 -0.66847295
v 0.0000000e+0 0.51234334 0.77443655
v -2.6116052e-2 0.55619680 0.40208105
v 0.0000000e+0 0.56544745 -6.9388939e-18
v 0.23705393 0.56948435 -0.32274194
v 0.34660601 -1.11037435 -9.9538730e-2
v 0.39862469 0.55002410 0.54238007
v 0.35517591 0.56948435 0.11686744
v 0.42486089 -0.78992229 0.65434825
v 0.40354821 0.17163931 -0.89871508
v 0.65488892 0.53673655 -0.19933896
v 0.74846598 0.52563090 0.24537597
v 0.73002557 -0.51491792 0.44935754
v 0.73002557 0.17163931 -0.66151539
v 0.85472883 0.17163931 0.48987608
v 0.97943209 -0.17163931 -0.10607893
v 0.97943209 0.17163931 0.10607893
v -0.93756216 0.37812831 0.34911034
v -0.89678156 0.50693690 0.29138199
v -0.90296797 0.52904129 -0.10383265
v -0.92308936 0.52433917 -1.7458846e-2
v -0.96570096 0.43953101 -7.7242593e-2
v -0.75723835 0.52209179 -0.52815518
v -0.78685535 0.52939987 -0.44980151
v -0.80642783 0.44769797 -0.53507662
v -0.70848455 0.45259046 0.65615587
v -0.75808802 0.44769797 0.60161068
v -0.73653293 0.52433917 0.55670282
v -0.66953034 0.52688875 0.60894876
v -0.54683047 0.50318682 -0.76505666
v -0.62174630 0.37812831 -0.78379358
v -0.40510754 0.45259046 0.87657216
v -0.38171970 0.52654853 0.82601099
v -0.30214398 0.52195214 0.87260908
v -0.18068656 0.52879850 -0.89023813
v -0.26572184 0.52183116 -0.88169969
v -0.18749730 0.45259046 -0.94727802
v 4.2301022e-2 0.37812831 0.99955563
v 2.1649760e-3 0.36348580 1.01625262
v 0.0000000e+0 0.50335354 0.94006213
v 0.18753712 0.52930009 -0.88499745
v 0.18749730 0.45259046 -0.94727802
v 0.25968820 0.44769797 -0.93230622
v 0.33790367 0.44769797 0.90689247
v 0.30214398 0.52195214 0.87260908
v 0.37411931 0.52906163 0.82628574
v 0.50576305 0.51549377 -0.64102739
v 0.44849409 0.52048901 -0.65182157
v 0.41626566 0.51793079 -0.70088874
v 0.46836434 0.41523631 -0.74320002
v 0.52758437 0.41898796 -0.69850431
v 0.75122465 0.44842338 0.60645021
v 0.66290505 0.52921702 0.61424790
v 0.73207641 0.52433917 0.56234128
v 0.79011268 0.52656422 -0.44602443
v 0.80642783 0.44769797 -0.53507662
v 0.83344012 0.44031295 -0.51159865
v 0.92505128 0.52434056 -1.6084284e-2
v 0.89986800 0.52669041 -0.10000951
v 0.96570096 0.43953101 -7.7242593e-2
v 0.96692397 0.44769797 -4.1120306e-2
v 0.89700415 0.50732334 0.29210152
v 0.93756216 0.37812831 0.34911034
v 0.96370563 0.37812831 0.26864901
v 0.55378601 -0.12801191 -0.21963571
v -0.47768340 6.6437845e-2 0.15177936
v -8.5980472e-2 -5.0850323e-2 -0.16597885
v 0.27640745 -0.14396508 -0.52441410
v -0.57019295 -0.15010543 8.2404530e-2
v -0.23127781 -0.30432099 -0.21155596
v 7.8322329e-2 -0.43436313 -0.54619349
v -0.43923263 -0.45210941 0.24543172
v 0.14220559 -0.72152216 -0.29084264
v -0.21203400 -0.53257266 0.47270155
v 0.41536022 -0.70329078 -2.9108951e-2
v 0.59417801 -0.42450057 -3.3508395e-2
v 0.28924672 -0.89472100 -0.47691372
v 0.25492057 -0.90100007 -0.58886065
v 0.24859369 -0.98013179 -0.48959885
v 0.34852402 -1.00178670 -0.43876457
v 0.21600601 -0.51453506 -0.95812873
v 0.22309525 -0.62827933 -0.88195891
v 0.25295688 -0.55278618 -0.85768518
v 0.66747587 -6.5427387e-2 -0.87987808
v 0.57395013 -5.6958713e-2 -0.94165142
v 0.56736302 -0.15018625 -0.86813758
v 0.64742251 -0.82363377 -0.13426431
v 0.64439117 -0.93468626 -0.15873198
v 0.74334868 -0.81528517 -7.5102798e-2
v 1.00650706 -0.14145166 -0.43230828
v 0.97991852 -1.6743057e-2 -0.54320532
v 0.93679057 -4.6508536e-2 -0.58176211
v 0.91908252 -0.12994682 -0.48136816
v 1.00060739 -0.39242587 -0.21302483
v 0.90756122 -0.48107598 -0.20759681
v -0.85971906 0.22805998 0.41357448
v -0.87651658 0.29247870 0.48131673
v -0.92044803 0.29926127 0.40941963
v -0.44078579 -0.54540457 0.70336734
v -0.43113184 -0.55327449 0.78161114
v -0.50138230 -0.57863562 0.69481351
v -0.51159343 0.24803284 0.79590556
v -0.58531547 0.30835027 0.80137856
v -0.51264553 0.31898074 0.85006870
v -0.29327586 -0.20158974 0.92153896
v -0.30559398 -0.25242535 0.96779587
v -0.26797519 -0.20292471 0.99279608
v -0.77127592 -0.40775686 0.42472934
v -0.73882302 -0.43420861 0.44452976
v -0.69854615 -0.39233352 0.44042063
v -0.96326209 -7.7917655e-3 0.26911542
v -0.90980163 -4.0926756e-3 0.29573678
v -0.22320710 9.4577682e-2 0.32141033
v -0.24156207 8.0018142e-2 0.26410217
v -0.16166261 6.6969279e-2 0.26470406
v -0.17718060 8.7523833e-2 0.32286763
v 0.11812921 -4.4692857e-2 0.12695838
v 0.12643793 -5.8956957e-2 7.3706926e-2
v 0.19175648 -6.6097721e-2 7.9068683e-2
v 0.18936303 -6.6455176e-2 0.13940734
v -9.6114037e-2 -0.24978122 0.62569826
v -9.0455451e-2 -0.29413535 0.57205309
v -6.2558736e-2 -0.25542609 0.63293973
v 0.28205520 -0.35238343 0.31630390
v 0.29447188 -0.34854379 0.24652142
v 0.23617184 -0.37627318 0.26515199
v 0.11078283 -0.30480046 0.47512879
v -0.16565626 -6.0036129e-2 0.54411412
v -0.11545161 -8.2899190e-2 0.56313736
v 0.23679989 -0.20921203 0.22791951
v 0.24281410 -0.20599331 0.16211696
v 7.2784182e-2 -0.33534230 0.41859945
v 0.53396462 0.13802933 0.78420393
v 0.80297674 0.31003134 0.54816315
v 2.1614641e-2 -0.31158491 1.03666833
v -9.5959449e-3 -0.24020371 1.04484887
v 4.4311142e-2 -0.25203979 0.98448849
v 0.16144793 0.10272993 0.89602054
v 0.23066780 0.17737638 0.95209584
v 0.16208591 0.17262873 0.97305566
v 0.49356086 -0.49033609 0.80930928
v 0.47828606 -0.41188815 0.77267590
v 0.69471980 -0.16176334 0.66073316
v 0.69991120 -0.10269963 0.69221156
v 0.63520321 -8.9176303e-2 0.74684510
v 0.61787951 -0.15108161 0.67367488
v 0.24930673 -0.44356129 0.91922245
v 0.25736715 -0.36858332 0.87812788
v 7.6552226e-2 -4.6105246e-2 0.95187311
v 4.4671050e-2 -1.0048207e-3 1.00422045
v 9.0769452e-2 3.7119106e-2 1.02148932
v 0.66761525 -0.32641506 0.66966939
v 0.65911117 -0.37999800 0.67619728
v 0.59067238 -0.32516652 0.68076790
v -3.9024601e-2 -0.62890466 -0.21094859
v 0.31183883 -0.62120039 0.11894367
v 0.30722353 -0.76322185 -0.19830067
v -0.61678910 -0.85937558 0.14849624
v -0.68591272 -0.85020206 0.14874530
v -0.66209257 -0.84294782 0.18674383
v -0.64362549 -0.85937561 0.20135062
v -0.31477613 -1.04304828 -0.12621464
v -0.35951848 -1.04943854 -0.15434088
v -0.31219487 -1.06281793 -0.13752952
v 2.7043653e-2 -0.83542737 0.66581239
v 6.6504804e-2 -0.84993306 0.70019240
v 4.1622450e-2 -0.82062713 0.72497004
v -1.2833894e-3 -0.82617415 0.73129321
v 0.23817899 -1.07612503 0.25789377
v 0.23617462 -1.11037435 0.24033417
v 0.23959036 -1.08244727 0.31651139
v -0.52919721 -0.94349844 -7.4287705e-2
v -0.55182950 -0.92611321 -6.7014275e-2
v -0.50163055 -0.92590712 -4.3040830e-2
v -0.31693619 -0.78592391 0.43198205
v -0.36206865 -0.78136684 0.49134330
v -0.35172319 -0.78239287 0.49705842
v 0.18996894 -0.93572652 0.49544106
v 0.21365313 -0.93976127 0.54746061
v -8.0953928e-3 -1.10950492 2.7188171e-2
v 6.8962843e-3 -1.13691308 3.0730784e-2
v -1.5187408e-2 -1.12850321 7.7689692e-3
v -0.32563331 -0.49234103 0.35906663
v 0.44432495 -0.38652218 0.10650651
v 0.46833462 -0.85917738 -0.30558901
v -7.6477740e-2 -0.36934206 -0.37887473
v -0.23340230 -0.54748208 5.5589492e-2
v -0.17738364 -0.48827500 -8.8580928e-2
v -0.10660009 -0.61037886 -0.14236824
v -0.24905161 -0.64533398 1.4051297e-2
v 3.7105320e-3 -0.56465352 0.27864160
v 0.16167953 -0.48190002 0.22976474
v 0.23296914 -0.59872257 0.18591867
v 7.8725743e-2 -0.63636691 0.30363604
v -0.14313607 -0.51323779 0.19609948
v -0.11844719 -0.58905777 0.19418075
vn -0.98172832 -8.1879765e-2 -0.17177083
vn -0.89850920 -0.42977037 8.9323297e-2
vn -0.77828136 3.4719566e-3 -0.62790611
vn -0.74332094 -0.47663952 -0.46934929
vn -8.7577538e-2 0.99557572 3.4046396e-2
vn -0.54019537 -0.17446164 -0.82325700
vn -6.4867327e-2 0.99732049 -3.3824114e-2
vn -5.1161503e-2 0.99603268 -7.2810723e-2
vn -0.42737999 -0.74550283 -0.51144097
vn -2.6490460e-2 0.99815359 5.4659542e-2
vn -4.2197923e-2 0.99868239 2.9203187e-2
vn -0.26443954 -0.47310950 0.84038035
vn -0.26402581 -0.24581078 -0.93266684
vn -3.2953566e-2 0.99818894 -5.0327914e-2
vn -0.26093018 -0.64290185 -0.72013377
vn -3.4050488e-2 3.8950023e-2 -0.99866083
vn -3.6395558e-3 0.99752650 -7.0197063e-2
vn -7.2139521e-3 0.99725416 7.3702721e-2
vn -8.7981701e-3 0.99772725 6.6805157e-2
vn -1.2236460e-4 0.99991098 1.3341983e-2
vn 4.1231615e-2 0.99831688 -4.0784270e-2
vn 0.30971905 -0.94838212 -6.8157697e-2
vn 2.5601354e-2 0.99791185 5.9300182e-2
vn 4.3885440e-2 0.99893564 1.4200492e-2
vn 0.44452025 -0.67510284 0.58875963
vn 0.42156837 0.23833037 -0.87491642
vn 6.1790005e-2 0.99779094 -2.4397317e-2
vn 9.0229273e-2 0.99565840 2.2869906e-2
vn 0.83117890 -0.40536990 0.38054813
vn 0.55743319 0.35017149 -0.75276036
vn 0.86214660 -6.3007744e-2 0.50272584
vn 0.97873285 -8.0726075e-2 0.18858766
vn 0.98400975 -8.2834074e-2 0.15768109
vn -0.91474912 0.27709882 0.29402430
vn -0.55542076 0.81252654 0.17694181
vn -0.51134451 0.85064673 -0.12217584
vn -0.55276633 0.83322622 1.3544251e-2
vn -0.94526687 0.29729858 -0.13447712
vn -0.40049902 0.85921934 -0.31834363
vn -0.47741801 0.85327657 -0.20974065
vn -0.82552059 0.32672462 -0.46018124
vn -0.60580880 0.39890595 0.68838197
vn -0.75024085 0.33557641 0.56967284
vn -0.42552556 0.85732417 0.28969511
vn -0.30743991 0.88510454 0.34938611
vn -0.31826536 0.83306949 -0.45244048
vn -0.57775791 0.23662643 -0.78115538
vn -0.39848817 0.39953237 0.82557923
vn -0.23189047 0.89082211 0.39072085
vn -0.13741160 0.86744643 0.47817856
vn -5.6891676e-2 0.88348063 -0.46500034
vn -0.19125647 0.85562929 -0.48095684
vn -0.18868879 0.36153626 -0.91306521
vn 0.26162976 0.28241049 0.92292697
vn 1.9447863e-2 0.26176811 0.96493484
vn 3.6178029e-2 0.77765968 0.62764367
vn 0.18133921 0.85062150 -0.49351712
vn 0.10732136 0.35593724 -0.92832689
vn 0.43353416 0.40443706 -0.80528181
vn 0.43327981 0.27340971 0.85878736
vn 0.13648176 0.85948192 0.49260892
vn 0.26509510 0.85324331 0.44911072
vn 0.25530036 0.88161718 -0.39695451
vn 0.22836296 0.92572653 -0.30146434
vn 0.31345000 0.87551475 -0.36772682
vn 0.56577510 0.46677926 -0.67971734
vn 0.47418471 0.46668682 -0.74656030
vn 0.67847983 0.31944797 0.66152711
vn 0.33488888 0.84726085 0.41230872
vn 0.43038357 0.84345495 0.32148675
vn 0.40091550 0.85770012 -0.32189636
vn 0.51866912 0.46095207 -0.72007328
vn 0.78911569 0.43300135 -0.43566760
vn 0.52631905 0.85027403 -4.7248317e-3
vn 0.47506523 0.87087044 -0.12608612
vn 0.92995896 0.33387437 -0.15396182
vn 0.96057792 0.27641966 -2.9702284e-2
vn 0.63062507 0.74779729 0.20763247
vn 0.88743727 0.19275877 0.41868741
vn 0.96360306 0.19079188 0.18726346
vn -0.35011887 -0.87600694 -0.33170563
vn 0.14062083 -0.79337660 0.59226628
vn 0.22267745 -0.82075539 0.52609443
vn 0.33052081 -0.85129836 0.40748877
vn 0.61881858 6.3373207e-2 0.78297344
vn 0.71840062 2.9195142e-2 0.69501669
vn 0.79349142 8.8615098e-3 0.60851691
vn 0.46893358 0.82587659 0.31309609
vn 0.53188084 0.64615923 0.54733995
vn -0.19139927 0.94254418 -0.27381889
vn -0.62074848 0.56494872 -0.54360304
vn -0.59088737 -0.13896446 -0.79469554
vn 0.86833142 0.22748040 -0.44074167
vn 0.40525074 -0.62982429 -0.66264108
vn 0.14844455 -0.84547883 -0.51296175
vn 0.55128941 -0.58906721 -0.59082976
vn 0.37861224 -0.39064925 -0.83907445
vn 0.39194874 -0.57746496 -0.71617763
vn 0.96440310 -0.24927636 -8.8249367e-2
vn 0.64745327 -0.11100948 -0.75397689
vn 0.48642295 -0.16862828 -0.85729646
vn 0.55559043 -0.79017051 -0.25874666
vn 0.36848714 0.20509338 -0.90672704
vn 0.75198557 -0.41427495 -0.51273186
vn 0.83505689 -0.44940992 -0.31734951
vn 0.86888301 -0.29164479 -0.39998204
vn 0.80030525 -8.4182758e-2 -0.59365375
vn 0.66113221 -0.19474335 -0.72455451
vn 0.23147337 -0.79038047 -0.56720260
vn 0.85319554 -0.41731671 -0.31289635
vn -3.3167318e-3 -0.43202891 -0.90185366
vn -0.33686516 -0.68675336 0.64412086
vn -0.77078858 -0.27564184 0.57437492
vn -0.83698121 -0.18798135 0.51393138
vn -0.55818187 0.81295045 0.16596557
vn -0.77602395 -0.18026673 0.60439286
vn -0.69489386 -0.17186261 0.69827342
vn -0.67283626 -0.70448654 0.22580985
vn -0.61933887 -0.24930628 0.74449025
vn -0.52023407 -9.6076012e-2 0.84860233
vn -0.98926675 0.13819064 -4.7483135e-2
vn -0.75120584 8.8730247e-2 0.65407700
vn -0.63267921 4.1214544e-2 0.77331648
vn -0.64687203 -3.0505200e-2 0.76198820
vn -0.63633139 -8.0159126e-3 0.77137417
vn -4.3995079e-2 0.60901284 0.79193926
vn -0.78204679 -8.1924064e-2 0.61781168
vn 5.5891824e-2 -1.5731249e-2 0.99831289
vn -0.33496100 -0.93985197 -6.6928289e-2
vn -0.16288962 -0.95093861 0.26302610
vn -0.22911103 -0.94298343 0.24143402
vn 4.5303319e-2 -0.98759896 -0.15031931
vn -0.25015182 -0.95190967 0.17689560
vn -0.16774818 -0.97445497 0.14932535
vn -0.54690866 -0.82673620 -0.13190215
vn -0.70500661 -0.65781877 0.26502857
vn -0.34496069 0.19221758 -0.91872440
vn -0.27609468 0.74823172 -0.60325867
vn 0.43572459 0.61056874 -0.66132435
vn -0.52785284 0.84932978 -3.2088955e-3
vn -0.83870463 0.10622195 -0.53412680
vn -0.42550069 0.74184987 -0.51827400
vn 9.0511527e-2 0.97228926 -0.21554874
vn -0.42263218 -0.65665996 -0.62464369
vn 0.53302135 -0.49843078 -0.68370680
vn -0.96211398 -1.1698935e-2 0.27239645
vn -0.85220068 -0.44239427 -0.27935874
vn -0.26755898 0.81639222 -0.51177723
vn 0.59209483 4.2854446e-2 0.80472804
vn 0.70534068 6.1714173e-2 0.70617695
vn 0.37624806 -2.6947574e-2 0.92612700
vn 0.33737808 5.6570238e-2 0.93966794
vn 0.84832550 0.36345774 0.38502248
vn 0.40480358 -0.82775606 0.38852795
vn 0.27121247 -0.36958396 0.88873590
vn 0.51766863 -0.26831659 0.81241947
vn 0.51343032 -3.3595505e-2 0.85747341
vn 0.12930866 0.73733066 0.66304054
vn 0.65299954 -0.29637319 0.69696092
vn 0.67973994 -0.30045269 0.66909028
vn 0.37603202 -0.34445828 0.86020254
vn -0.19550287 -0.52787616 0.82651400
vn 0.40947387 -6.7284008e-2 0.90983735
vn 0.47008195 0.77006816 0.43129803
vn 0.89900960 -0.38439585 0.20981317
vn 0.17386474 -0.16040803 0.97161737
vn 0.37347018 -0.28735959 0.88201162
vn 0.62796330 -3.4838440e-2 0.77746279
vn 0.63017316 -7.4142443e-3 0.77641923
vn -0.17600980 0.30249314 0.93675955
vn 0.69059736 8.7917585e-2 0.71787588
vn -0.73574737 4.3231564e-2 -0.67587486
vn -8.3307980e-2 0.99369684 7.5009200e-2
vn 0.17541308 -0.96909571 0.17344667
vn -0.49170530 -0.85192852 0.18012136
vn -0.63378762 -0.67086220 0.38504177
vn -0.35028109 -0.87533005 0.33331736
vn -0.23570196 -0.29507865 0.92594448
vn -0.41561296 -0.89277762 0.17382173
vn -0.34507887 -0.91644688 0.20259738
vn -0.27646941 -0.95063213 -0.14093694
vn -5.4158710e-2 -0.85554685 0.51488486
vn 7.4974423e-2 -0.70795817 0.70226353
vn -0.15909840 -0.87493612 0.45735598
vn -0.97599621 -1.2585072e-3 0.21778385
vn -0.37112317 -0.81338291 0.44796856
vn -0.38793397 -0.81805259 0.42461418
vn -0.49899738 -0.83880099 0.21774872
vn -0.48705456 -0.86314086 0.13328810
vn 7.1272742e-2 -0.71944470 0.69088314
vn 0.11132479 -0.98688467 -0.11689929
vn -0.17736715 -0.93290722 0.31340869
vn -0.27021896 -0.92144726 0.27913557
vn -0.81555909 -0.54553826 -0.19300616
vn -0.23539332 -0.87230729 0.42856736
vn -0.64853787 5.3856027e-2 0.75927476
vn -0.43094375 -0.83741539 0.33618887
vn -0.41980503 -0.88024146 0.22122095
vn 0.23004447 0.97087254 6.6978032e-2
vn -0.63866268 5.9659610e-2 -0.76717059
vn 0.45550942 0.67211413 -0.58375831
vn 0.74353401 0.19677930 0.63908926
vn 0.87148741 0.49032599 9.4930061e-3
vn 0.83140206 0.22369795 0.50865493
vn 0.77500128 -2.1178229e-2 0.63160470
vn 0.91338307 -0.36719754 0.17577638
vn 7.1587145e-2 0.50648523 -0.85927178
vn -0.46035112 0.11406581 -0.88037824
vn -0.61598735 -0.10616986 -0.78056873
vn -0.15107913 -0.41095118 -0.89905185
vn 0.53356390 0.72547694 -0.43473299
vn 0.61778438 -0.40913573 -0.67152842
g F3:GeoDome5_default
usemtl default
s 1
f 1//1 4//4 2//2
f 1//1 127//127 114//114 34//34 38//38
f 2//2 4//4 189//189 175//175
f 2//2 124//124 127//127 1//1
f 3//3 1//1 38//38 41//41
f 5//5 11//11 7//7
f 5//5 37//37 35//35
f 5//5 44//44 45//45 10//10
f 6//6 4//4 1//1 3//3
f 6//6 13//13 15//15 9//9 4//4
f 7//7 14//14 8//8
f 7//7 36//36 37//37 5//5
f 7//7 40//40 36//36
f 8//8 17//17 51//51 52//52
f 8//8 39//39 40//40 7//7
f 8//8 46//46 39//39
f 9//9 188//188 189//189 4//4
f 10//10 11//11 5//5
f 10//10 19//19 11//11
f 10//10 49//49 50//50 18//18
f 11//11 14//14 7//7
f 11//11 20//20 14//14
f 12//12 116//116 193//193 184//184
f 12//12 122//122 116//116
f 14//14 17//17 8//8
f 14//14 21//21 17//17
f 15//15 13//13 97//97 98//98
f 15//15 94//94 95//95 180//180 179//179 9//9
f 15//15 98//98 94//94
f 16//16 26//26 101//101 97//97 13//13
f 16//16 53//53 58//58
f 17//17 65//65 57//57
f 18//18 19//19 10//10
f 18//18 23//23 19//19
f 18//18 56//56 61//61
f 19//19 20//20 11//11
f 19//19 24//24 20//20
f 20//20 21//21 14//14
f 20//20 24//24 21//21
f 21//21 27//27 63//63 64//64
f 21//21 64//64 65//65 17//17
f 22//22 186//186 197//197
f 22//22 197//197 198//198 95//95 96//96
f 23//23 24//24 19//19
f 23//23 28//28 24//24
f 23//23 62//62 69//69
f 24//24 27//27 21//21
f 24//24 28//28 27//27
f 25//25 29//29 169//169 157//157
f 25//25 195//195 187//187
f 26//26 30//30 100//100 101//101
f 26//26 66//66 67//67 30//30
f 27//27 75//75 71//71
f 28//28 70//70 78//78
f 28//28 74//74 75//75 27//27
f 28//28 78//78 74//74
f 29//29 105//105 110//110 32//32
f 30//30 67//67 72//72
f 31//31 160//160 159//159 32//32 33//33
f 32//32 76//76 77//77 33//33
f 32//32 106//106 107//107 73//73 76//76
f 32//32 110//110 106//106
f 32//32 168//168 169//169 29//29
f 33//33 77//77 80//80
f 33//33 80//80 79//79 31//31
f 34//34 43//43 44//44 35//35
f 35//35 37//37 38//38 34//34
f 35//35 44//44 5//5
f 36//36 38//38 37//37
f 38//38 36//36 40//40 41//41
f 39//39 41//41 40//40
f 41//41 47//47 3//3
f 42//42 43//43 113//113 119//119
f 42//42 45//45 44//44 43//43
f 45//45 42//42 48//48 49//49
f 45//45 49//49 10//10
f 46//46 52//52 53//53 47//47
f 47//47 41//41 39//39 46//46
f 47//47 53//53 16//16 13//13 6//6 3//3
f 48//48 120//120 166//166 167//167 55//55
f 49//49 48//48 50//50
f 50//50 48//48 55//55 56//56
f 50//50 56//56 18//18
f 51//51 53//53 52//52
f 52//52 46//46 8//8
f 54//54 55//55 167//167 156//156
f 54//54 56//56 55//55
f 57//57 51//51 17//17
f 57//57 58//58 53//53 51//51
f 58//58 57//57 59//59
f 58//58 59//59 26//26 16//16
f 59//59 57//57 65//65 66//66
f 59//59 66//66 26//26
f 60//60 61//61 56//56 54//54
f 60//60 155//155 161//161 149//149
f 61//61 60//60 62//62
f 61//61 62//62 23//23 18//18
f 62//62 60//60 68//68 69//69
f 66//66 65//65 64//64 63//63 67//67
f 67//67 63//63 71//71 72//72
f 68//68 60//60 149//149 150//150
f 69//69 68//68 70//70
f 69//69 70//70 28//28 23//23
f 71//71 63//63 27//27
f 72//72 71//71 73//73
f 72//72 73//73 107//107 108//108 30//30
f 75//75 76//76 73//73 71//71
f 76//76 75//75 74//74 77//77
f 78//78 80//80 77//77 74//74
f 79//79 68//68 150//150 31//31
f 79//79 78//78 70//70 68//68
f 80//80 78//78 79//79
f 81//81 84//84 102//102 109//109
f 82//82 85//85 86//86 83//83
f 82//82 112//112 128//128 85//85
f 82//82 130//130 129//129 118//118 112//112
f 83//83 86//86 202//202 87//87 84//84
f 83//83 134//134 133//133 131//131 130//130 82//82
f 84//84 81//81 135//135 134//134 83//83
f 84//84 87//87 99//99 102//102
f 85//85 88//88 203//203 204//204 86//86
f 85//85 128//128 126//126 88//88
f 86//86 204//204 205//205 171//171 202//202
f 87//87 89//89 93//93 99//99
f 87//87 202//202 171//171 89//89
f 88//88 126//126 115//115 90//90 199//199
f 88//88 199//199 211//211 203//203
f 89//89 171//171 190//190 178//178
f 89//89 173//173 201//201 93//93
f 89//89 178//178 196//196 173//173
f 90//90 115//115 121//121 137//137 138//138
f 90//90 138//138 148//148 142//142 208//208 207//207
f 91//91 92//92 111//111 103//103
f 91//91 172//172 200//200 92//92
f 91//91 173//173 196//196 185//185
f 92//92 200//200 141//141 147//147 135//135 81//81
f 94//94 93//93 96//96 95//95
f 95//95 198//198 180//180
f 96//96 93//93 201//201 103//103 104//104
f 96//96 104//104 22//22
f 97//97 99//99 98//98
f 98//98 99//99 93//93 94//94
f 99//99 97//97 101//101 102//102
f 100//100 102//102 101//101
f 102//102 100//100 108//108 109//109
f 103//103 201//201 173//173 91//91
f 104//104 103//103 105//105
f 104//104 105//105 29//29 25//25 187//187 186//186 22//22
f 107//107 106//106 109//109 108//108
f 108//108 100//100 30//30
f 109//109 111//111 92//92 81//81
f 110//110 105//105 103//103 111//111
f 111//111 109//109 106//106 110//110
f 113//113 112//112 118//118 119//119
f 114//114 112//112 113//113
f 114//114 113//113 43//43 34//34
f 116//116 115//115 117//117
f 117//117 177//177 192//192
f 117//117 192//192 193//193 116//116
f 119//119 118//118 120//120
f 119//119 120//120 48//48 42//42
f 121//121 118//118 144//144 137//137
f 121//121 123//123 120//120 118//118
f 122//122 121//121 115//115 116//116
f 123//123 121//121 122//122
f 125//125 126//126 124//124
f 125//125 176//176 177//177 117//117
f 126//126 125//125 117//117 115//115
f 127//127 124//124 126//126 128//128
f 128//128 112//112 114//114 127//127
f 129//129 144//144 118//118
f 130//130 131//131 132//132 129//129
f 133//133 136//136 162//162 154//154 132//132 131//131
f 135//135 136//136 133//133 134//134
f 136//136 146//146 170//170 162//162
f 137//137 139//139 138//138
f 139//139 145//145 165//165 153//153
f 140//140 142//142 148//148 143//143
f 140//140 143//143 164//164 158//158
f 142//142 140//140 141//141
f 143//143 148//148 138//138 139//139
f 144//144 129//129 132//132 145//145
f 145//145 139//139 137//137 144//144
f 146//146 136//136 135//135 147//147
f 146//146 147//147 141//141 140//140
f 151//151 152//152 123//123 122//122 12//12
f 151//151 153//153 152//152
f 152//152 153//153 165//165 166//166
f 152//152 166//166 120//120 123//123
f 153//153 164//164 143//143 139//139
f 154//154 156//156 167//167 165//165
f 154//154 165//165 145//145 132//132
f 156//156 154//154 155//155
f 156//156 155//155 60//60 54//54
f 157//157 163//163 183//183 182//182 25//25
f 157//157 169//169 170//170 158//158
f 158//158 164//164 163//163 157//157
f 158//158 170//170 146//146 140//140
f 159//159 168//168 32//32
f 160//160 161//161 162//162 159//159
f 161//161 160//160 31//31 150//150 149//149
f 162//162 161//161 155//155 154//154
f 164//164 153//153 151//151 163//163
f 166//166 165//165 167//167
f 168//168 170//170 169//169
f 170//170 168//168 159//159 162//162
f 171//171 205//205 206//206 174//174 190//190
f 174//174 175//175 189//189 190//190
f 175//175 176//176 125//125 124//124 2//2
f 176//176 175//175 174//174 177//177
f 177//177 174//174 191//191 192//192
f 179//179 178//178 190//190 188//188
f 179//179 188//188 9//9
f 180//180 178//178 179//179
f 182//182 195//195 25//25
f 183//183 184//184 181//181 182//182
f 184//184 183//183 163//163 151//151 12//12
f 185//185 194//194 172//172 91//91
f 187//187 185//185 186//186
f 188//188 190//190 189//189
f 191//191 174//174 206//206 212//212
f 192//192 191//191 193//193
f 193//193 191//191 181//181 184//184
f 194//194 181//181 210//210 209//209 172//172
f 194//194 185//185 187//187 195//195
f 195//195 182//182 181//181 194//194
f 196//196 197//197 186//186 185//185
f 197//197 196//196 198//198
f 198//198 196//196 178//178 180//180
f 200//200 172//172 209//209 208//208 142//142 141//141
f 203//203 206//206 204//204
f 205//205 204//204 206//206
f 207//207 211//211 199//199 90//90
f 208//208 210//210 207//207
f 209//209 210//210 208//208
f 211//211 207//207 210//210 212//212
f 212//212 206//206 203//203 211//211
f 212//212 210//210 181//181 191//191
