# Exported from Wings 3D 1.5.3
mtllib island2.mtl
o F3:GeoDome1
#114 vertices, 140 faces
v -1.05141703 4.7845890e-2 -8.2689599e-2
v -1.05141703 0.23939536 0.12946825
v -0.92671378 -0.14370358 8.8949708e-2
v -0.85472883 7.3751622e-2 -0.48987608
v -0.92671378 0.23939536 0.51326541
v -0.80201052 -0.14370358 0.47274686
v -0.80201052 4.7845890e-2 0.68490472
v -0.73002557 0.26530109 -0.66151539
v -0.68245745 -0.35393021 -0.25276487
v -0.68245745 -0.23554613 -0.59604349
v -0.73686271 0.53701740 0.20371605
v -0.57144875 0.55663477 -0.19882668
v -0.40354821 -0.23618192 0.55543646
v -0.40354821 7.3751622e-2 0.89871508
v -0.40354821 0.26530109 -0.89871508
v -0.43383492 0.52866486 -0.59713959
v -0.35598009 -0.47231429 -0.14668595
v -0.35598009 -0.23554613 -0.83324317
v -0.36583623 0.55663928 0.48159314
v -0.33761956 0.56451268 0.13268219
v -0.20177411 0.26530109 0.96427546
v -0.19258701 0.55616014 -0.26509033
v 3.6271670e-3 -0.41844996 -1.2833052e-3
v -2.5875562e-2 -0.50229061 -0.38516894
v -2.9502729e-2 -0.35393021 -0.72716425
v 3.3972619e-2 -0.38809867 0.65382130
v 0.0000000e+0 -8.0018831e-2 -0.89442719
v 0.0000000e+0 0.27420296 -0.98224695
v 3.0236484e-2 0.55663928 -0.66721378
v -3.4111070e-2 0.53702190 0.76330371
v 2.9246011e-2 0.56451718 0.35778781
v 2.7614980e-6 0.54555248 -1.3251671e-5
v 0.23937389 -0.49875015 0.32319423
v 0.23574673 -0.23200568 0.87991399
v 0.20177411 7.3751622e-2 -0.96427546
v 0.20177411 0.26530109 0.96427546
v 0.16394189 0.56451718 -0.27537120
v 0.42680615 -0.39764642 -0.54885333
v 0.39283426 -0.21157710 -0.84908270
v 0.37123820 0.54828223 0.51094849
v 0.31812602 0.56429619 7.9105233e-2
v 0.40354821 7.3751622e-2 0.89871508
v 0.45355512 0.53702190 -0.56620010
v 0.61495006 -0.41807499 0.23306847
v 0.64370717 -2.8929505e-2 -0.85110102
v 0.57735027 0.27420296 0.79465447
v 0.64445826 0.55663199 -0.17774461
v 0.55970373 -0.19422666 0.77036610
v 0.72293879 -0.35993750 -0.26988770
v 0.67920120 0.53701462 0.25607028
v 0.76399819 -0.23200568 0.49611684
v 0.73002557 0.26530109 -0.66151539
v 0.93417236 6.4849755e-2 0.30353100
v 0.93417236 0.27420296 -0.30353100
v 0.97943209 7.3751622e-2 -0.10607893
v 0.97943209 0.26530109 0.10607893
v -0.98451446 0.45271068 0.36553165
v -1.01134920 0.45270826 0.28294248
v -0.93441389 0.51766061 0.29466394
v -0.93508885 0.53562908 -9.6776266e-2
v -0.95481246 0.53260156 -2.4414614e-2
v -1.01450312 0.47255661 -3.5380664e-2
v -1.01209645 0.45902841 -7.7948777e-2
v -0.78655503 0.53108734 -0.54009449
v -0.81071747 0.53575241 -0.47358036
v -0.85790790 0.45895252 -0.52233722
v -0.82962274 0.47171778 -0.55837102
v -0.79996088 0.47255467 0.62491477
v -0.76285556 0.53246089 0.58046929
v -0.70094337 0.53575299 0.62461522
v -0.57548024 0.51525000 -0.79209765
v -0.64294931 0.45687419 -0.80911882
v -0.57082107 0.45687217 -0.86152217
v -0.34298307 0.47171895 0.93935420
v -0.38101346 0.53562593 0.85940892
v -0.31829665 0.53260230 0.90045029
v -0.18997804 0.53601247 -0.92452802
v -0.27058530 0.53108734 -0.91496845
v -0.27466100 0.47171986 -0.96157402
v -0.18787906 0.47799304 -0.98031199
v 4.4580624e-2 0.45687192 1.03248878
v -4.4575865e-2 0.45687248 1.03248898
v -8.5219279e-3 0.51765166 0.97973264
v 0.27106080 0.53243107 -0.91521570
v 0.19712778 0.53644189 -0.91917121
v 0.18788397 0.47799361 -0.98031198
v 0.42421037 0.47799231 0.90350352
v 0.34298774 0.47171952 0.93935413
v 0.31635914 0.53246099 0.90483538
v 0.38174467 0.53446815 0.85932825
v 0.58188139 0.51690263 -0.78807280
v 0.64295375 0.45687388 -0.80911859
v 0.72820907 0.47799439 0.68263551
v 0.69932036 0.53446815 0.62859601
v 0.75199377 0.53255469 0.58204952
v 0.82061020 0.53601720 -0.46635695
v 0.78594496 0.53255642 -0.53522110
v 0.82962722 0.47171819 -0.55837082
v 0.87426537 0.47799455 -0.48162732
v 0.95419470 0.53243106 -2.5014157e-2
v 0.93511262 0.53644647 -9.6655680e-2
v 0.99038256 0.47799211 -0.12425544
v 0.99937924 0.47172041 -3.5930016e-2
v 0.92932232 0.51690949 0.30977155
v 0.99574261 0.45687136 0.27665230
v 0.28233354 -0.79882331 -9.3656102e-2
v 0.27395477 -0.82263405 -0.20267962
v 0.48661804 -0.78220577 -0.16993975
v 0.45594924 -0.79871682 -2.7100199e-2
v -0.78572344 -0.45748329 0.31482995
v -0.82837195 -0.45748329 0.18357132
v -0.74483629 -0.52938080 6.6704936e-2
v -0.63318103 -0.56986816 0.10298393
v -0.64944933 -0.48911089 0.34310979
vn -0.97297559 -0.19805397 -0.11871445
vn -0.99002988 -2.6197258e-2 0.13839991
vn -0.92397046 -0.38227722 -1.1946833e-2
vn -0.81866394 -0.19154608 -0.54138660
vn -0.84551714 -3.8766030e-2 0.53253917
vn -0.66887215 -0.46557796 0.57952326
vn -0.64809845 -0.36812387 0.66667324
vn -0.69454697 -0.16381787 -0.70054850
vn -0.55668245 -0.72889765 -0.39851332
vn -0.61745944 -0.59817002 -0.51081941
vn -6.8005837e-2 0.99744123 2.2049785e-2
vn -3.2871575e-2 0.99919396 -2.3040929e-2
vn -0.12082040 -0.79760450 0.59095643
vn -0.31657057 -0.41418706 0.85336520
vn -0.37309509 -0.19497562 -0.90707473
vn -3.5206428e-2 0.99816077 -4.9351569e-2
vn 7.1311864e-3 -0.99956050 -2.8774113e-2
vn -0.25963437 -0.50418557 -0.82364246
vn -2.7344420e-2 0.99892471 3.7439345e-2
vn -9.3869659e-3 0.99995166 -2.9268840e-3
vn -0.21599515 -0.14785498 0.96513470
vn -1.1588467e-2 0.99982529 -1.4666472e-2
vn -0.42753675 -0.87731589 0.21801182
vn -0.24278809 -0.93442866 -0.26057057
vn -9.4378186e-3 -0.78115235 -0.62426911
vn -0.17038958 -0.91931159 0.35473032
vn -4.0410505e-2 -0.41074137 -0.91085593
vn 9.0390659e-3 -8.4827281e-2 -0.99635467
vn -6.8762404e-3 0.99921458 -3.9024947e-2
vn 4.6080698e-3 0.99763122 6.8634668e-2
vn 4.0602412e-3 0.99988446 1.4648545e-2
vn -8.9083853e-3 0.99995210 -4.0543471e-3
vn -0.16686693 -0.86306928 0.47672513
vn 7.6568200e-2 -0.55276524 0.82981196
vn 0.10066758 -0.21050759 -0.97239529
vn 0.22997125 -0.13885920 0.96324003
vn -1.4494784e-3 0.99997896 -6.3235574e-3
vn 0.25358535 -0.74214386 -0.62041677
vn 0.15828647 -0.57848375 -0.80018869
vn 2.9182159e-2 0.99892650 3.5975704e-2
vn 9.0495643e-3 0.99987782 1.2745983e-2
vn 0.39666615 -0.10040532 0.91245533
vn 4.1894149e-2 0.99756559 -5.5747375e-2
vn 0.62921209 -0.68690297 0.36367081
vn 0.63952716 -0.31498881 -0.70127532
vn 0.62183994 -5.3133069e-2 0.78133985
vn 4.2704575e-2 0.99900869 -1.2568466e-2
vn 0.51105301 -0.44072718 0.73795960
vn 0.79348797 -0.55033477 -0.25982394
vn 6.0833210e-2 0.99778185 2.7031537e-2
vn 0.70815188 -0.56387708 0.42492771
vn 0.76722569 -8.3232102e-2 -0.63595374
vn 0.90659373 -0.23253933 0.35215519
vn 0.95368623 -6.0621889e-2 -0.29463122
vn 0.96539142 -0.21371184 -0.14948801
vn 0.99274553 -8.5379607e-2 8.4655950e-2
vn -0.81530062 0.43106018 0.38661611
vn -0.88693650 0.43164232 0.16440362
vn -0.44255211 0.88532645 0.14263487
vn -0.41778391 0.90078707 -0.11848738
vn -0.40274868 0.91520107 -1.4159732e-2
vn -0.89241063 0.44812412 -5.2801843e-2
vn -0.89000661 0.38609685 -0.24252311
vn -0.35048550 0.90083801 -0.25622410
vn -0.41329856 0.89279799 -0.17915371
vn -0.84367167 0.33171793 -0.42211529
vn -0.77501333 0.31227447 -0.54939876
vn -0.60445669 0.48457084 0.63231575
vn -0.31831282 0.91524977 0.24697125
vn -0.26923538 0.89923229 0.34480951
vn -0.29144259 0.86841536 -0.40114334
vn -0.67005310 0.26237459 -0.69439788
vn -0.45334505 0.26236530 -0.85184665
vn -0.40272396 0.39264640 0.82682659
vn -0.24632896 0.88574256 0.39342364
vn -0.15279498 0.89032260 0.42892816
vn -6.1647425e-2 0.90569950 -0.41941389
vn -0.15829155 0.90233952 -0.40090794
vn -0.26642348 0.29153837 -0.91870774
vn -9.9143760e-2 0.32904901 -0.93909385
vn 0.13322512 0.24759668 0.95965981
vn -0.13567843 0.24809993 0.95918600
vn -1.4268875e-3 0.85226473 0.52310879
vn 0.14659843 0.88979990 -0.43216322
vn 3.6568116e-2 0.91276285 -0.40684979
vn 0.17029892 0.42848480 -0.88735509
vn 0.47928024 0.33802040 0.80995843
vn 0.33491262 0.28513784 0.89807012
vn 0.13100267 0.89679061 0.42261673
vn 0.20611888 0.91288250 0.35236423
vn 0.27353233 0.88136026 -0.38520664
vn 0.56909275 0.30915364 -0.76194321
vn 0.66792660 0.40740066 0.62281519
vn 0.25121244 0.92239962 0.29337903
vn 0.36206028 0.89479372 0.26125955
vn 0.38085224 0.90555381 -0.18687927
vn 0.33937906 0.89959122 -0.27487724
vn 0.79093983 0.29210288 -0.53767099
vn 0.86100266 0.33085333 -0.38627775
vn 0.43847679 0.89855954 1.8134157e-2
vn 0.41849522 0.90492673 -7.7261666e-2
vn 0.92215596 0.33159850 -0.19917538
vn 0.95563608 0.29237906 -3.5695414e-2
vn 0.44683954 0.88133497 0.15356790
vn 0.92051588 0.26562298 0.28652215
vn -0.33804877 -0.90071308 0.27283507
vn -0.17153860 -0.91718215 -0.35965457
vn 0.46001410 -0.84990318 -0.25700510
vn 0.30522798 -0.86700374 0.39387865
vn -0.60577135 -0.59268496 0.53081599
vn -0.82180391 -0.56651116 6.0855839e-2
vn -0.52187183 -0.81686028 -0.24574189
vn 1.1755995e-2 -0.99985486 1.2331349e-2
vn -4.0111317e-2 -0.83799405 0.54420313
g F3:GeoDome1_default
usemtl default
s 1
f 1//1 3//3 6//6 7//7 5//5 2//2
f 1//1 4//4 10//10 9//9 3//3
f 1//1 63//63 66//66 4//4
f 2//2 5//5 57//57 58//58
f 2//2 62//62 63//63 1//1
f 3//3 111//111 110//110 6//6
f 4//4 66//66 67//67 8//8
f 6//6 13//13 14//14 7//7
f 6//6 110//110 114//114 13//13
f 7//7 14//14 21//21 74//74 68//68 5//5
f 8//8 15//15 18//18 10//10 4//4
f 9//9 112//112 111//111 3//3
f 10//10 18//18 25//25 24//24 17//17 9//9
f 11//11 20//20 12//12
f 11//11 61//61 59//59
f 11//11 69//69 70//70 19//19
f 12//12 22//22 16//16
f 12//12 60//60 61//61 11//11
f 12//12 65//65 60//60
f 13//13 17//17 23//23 26//26
f 13//13 114//114 113//113 17//17
f 14//14 34//34 42//42 36//36 21//21
f 15//15 73//73 79//79
f 16//16 29//29 77//77 78//78
f 16//16 64//64 65//65 12//12
f 16//16 71//71 64//64
f 17//17 24//24 23//23
f 17//17 113//113 112//112 9//9
f 18//18 27//27 25//25
f 19//19 20//20 11//11
f 19//19 31//31 20//20
f 19//19 75//75 76//76 30//30
f 20//20 22//22 12//12
f 20//20 32//32 22//22
f 21//21 36//36 81//81 82//82
f 22//22 29//29 16//16
f 22//22 37//37 29//29
f 23//23 106//106 33//33
f 24//24 107//107 106//106 23//23
f 25//25 38//38 24//24
f 25//25 39//39 38//38
f 26//26 34//34 14//14 13//13
f 27//27 39//39 25//25
f 28//28 35//35 27//27 18//18 15//15
f 28//28 80//80 86//86
f 28//28 86//86 92//92 52//52 45//45 35//35
f 29//29 43//43 84//84 85//85
f 30//30 31//31 19//19
f 30//30 40//40 31//31
f 30//30 83//83 89//89
f 31//31 32//32 20//20
f 31//31 41//41 32//32
f 32//32 37//37 22//22
f 32//32 41//41 37//37
f 33//33 26//26 23//23
f 33//33 44//44 51//51 48//48 34//34 26//26
f 33//33 106//106 109//109
f 33//33 109//109 44//44
f 34//34 48//48 42//42
f 35//35 39//39 27//27
f 35//35 45//45 39//39
f 36//36 46//46 87//87 88//88
f 37//37 43//43 29//29
f 37//37 47//47 43//43
f 38//38 107//107 24//24
f 39//39 45//45 49//49 38//38
f 40//40 41//41 31//31
f 40//40 50//50 41//41
f 40//40 90//90 94//94
f 41//41 47//47 37//37
f 41//41 50//50 47//47
f 42//42 46//46 36//36
f 42//42 48//48 51//51 53//53 46//46
f 43//43 97//97 91//91
f 44//44 109//109 108//108 49//49
f 46//46 53//53 56//56 105//105 93//93
f 47//47 96//96 97//97 43//43
f 47//47 101//101 96//96
f 49//49 55//55 53//53 51//51 44//44
f 49//49 108//108 38//38
f 50//50 95//95 104//104
f 50//50 100//100 101//101 47//47
f 50//50 104//104 100//100
f 52//52 54//54 55//55 45//45
f 52//52 92//92 98//98
f 54//54 56//56 55//55
f 54//54 99//99 102//102
f 55//55 49//49 45//45
f 55//55 56//56 53//53
f 56//56 103//103 105//105
f 57//57 59//59 58//58
f 58//58 59//59 61//61 62//62
f 58//58 62//62 2//2
f 59//59 57//57 68//68 69//69
f 59//59 69//69 11//11
f 60//60 63//63 62//62 61//61
f 65//65 66//66 63//63 60//60
f 66//66 65//65 64//64 67//67
f 67//67 64//64 71//71 72//72
f 67//67 72//72 8//8
f 68//68 57//57 5//5
f 69//69 68//68 70//70
f 70//70 68//68 74//74 75//75
f 70//70 75//75 19//19
f 72//72 71//71 73//73
f 72//72 73//73 15//15 8//8
f 73//73 71//71 78//78 79//79
f 75//75 74//74 76//76
f 76//76 74//74 82//82 83//83
f 76//76 83//83 30//30
f 78//78 71//71 16//16
f 79//79 78//78 77//77 80//80
f 79//79 80//80 28//28 15//15
f 81//81 83//83 82//82
f 82//82 74//74 21//21
f 83//83 81//81 88//88 89//89
f 84//84 86//86 85//85
f 85//85 77//77 29//29
f 85//85 86//86 80//80 77//77
f 88//88 81//81 36//36
f 89//89 88//88 87//87 90//90
f 89//89 90//90 40//40 30//30
f 90//90 87//87 93//93 94//94
f 91//91 84//84 43//43
f 91//91 97//97 98//98 92//92
f 92//92 86//86 84//84 91//91
f 93//93 87//87 46//46
f 94//94 93//93 95//95
f 94//94 95//95 50//50 40//40
f 96//96 99//99 98//98 97//97
f 98//98 99//99 54//54 52//52
f 100//100 103//103 102//102 101//101
f 101//101 102//102 99//99 96//96
f 102//102 103//103 56//56 54//54
f 104//104 95//95 93//93 105//105
f 105//105 103//103 100//100 104//104
f 107//107 108//108 106//106
f 108//108 107//107 38//38
f 109//109 106//106 108//108
f 111//111 112//112 113//113 114//114 110//110
