# Exported from Wings 3D 1.5.3
mtllib leaves.mtl
o dodecahedron1
#60 vertices, 62 faces
v -1.39144283 -0.53136054 -1.53334840
v -2.04921406 -0.28539426 -0.20768074
v -2.08619387 0.29279633 -0.23024677
v -1.39285492 0.53373152 -1.19169859
v -1.08382929 -3.6876097e-2 -1.81702367
v 0.70366808 5.7242301e-2 2.20453872
v -0.61591788 5.8300443e-2 2.32671018
v -1.03658845 -0.71278121 1.69380185
v 1.5451440e-2 -1.09559321 1.20549933
v 1.04653494 -0.72022712 1.47293422
v 1.91929674 0.83103891 -9.9896515e-3
v 1.26419378 0.87229658 -1.18239363
v 0.31679749 1.22149901 -0.87625381
v 0.17669021 1.48043845 1.08233227
v 1.20044053 1.07681532 1.20265193
v -1.23385217 0.87953878 -0.96638198
v -1.91959007 0.61715241 1.9904781e-2
v -1.25015467 1.07456315 1.42400647
v -0.31355074 1.47235067 1.11859416
v -0.16426470 1.20335011 -0.84146193
v 2.07432255 -0.28825012 -0.22299646
v 1.40121708 -0.53559456 -1.31220575
v 0.99739750 1.0338061e-2 -1.92240746
v 1.41447600 0.54850297 -1.40908021
v 2.06105645 0.49361376 -0.21491421
v 1.08485995 0.23244442 2.02355410
v 1.40415990 -0.53162551 1.29106085
v 2.07694937 -0.28823188 0.22437594
v 2.07262712 0.52610269 0.22191665
v 1.36527141 0.78282231 1.41086483
v -0.71183298 0.18798095 -1.96224692
v -0.99950542 0.70554439 -1.36300580
v 6.6361017e-2 1.07722437 -1.25900578
v 1.02721789 0.70895390 -1.54926081
v 0.63111164 0.18798095 -2.08777381
v -1.40887640 -0.53397748 1.56376474
v -0.96324517 0.22978105 2.18254491
v -1.39915254 0.77229092 1.67216686
v -2.07437282 0.30767691 0.22295259
v -2.08256777 -0.28267240 0.22745111
v -1.02141712 -0.72624451 -1.69598751
v -0.73209810 -0.18040314 -1.95186323
v 0.62446531 -0.20284372 -2.10366388
v 1.01472804 -0.72244841 -1.45477972
v 1.5379489e-2 -1.09408996 -1.20387282
v -1.92709281 -0.60092612 0.0000000e+0
v -1.25468206 -0.84799669 -1.30993207
v -0.24099109 -1.22046724 -0.84374869
v -0.24099109 -1.22046724 0.84374869
v -1.25468206 -0.84799669 1.30993207
v 1.25253347 -0.84878616 -1.06902469
v 1.91322707 -0.60602095 0.0000000e+0
v 1.25253347 -0.84878616 1.06902469
v 0.24099109 -1.22046724 0.81018406
v 0.24099109 -1.22046724 -0.81018406
v -0.63089696 0.43873316 2.32934770
v 0.71218624 0.43873316 2.20380785
v 1.00182039 0.95698691 1.59509028
v -6.6278647e-2 1.37825600 1.49642990
v -1.03074907 0.96054228 1.78186121
vn -0.72064260 -0.33854974 -0.60502753
vn -0.94346312 -0.22655885 -0.24196783
vn -0.92371368 0.30076481 -0.23726267
vn -0.68383996 0.46940070 -0.55859278
vn -0.58555001 0.10221833 -0.80416578
vn 0.31221821 -0.30006548 0.90137700
vn -0.19312236 -0.29062903 0.93714381
vn -0.28316191 -0.69937586 0.65627185
vn 4.4754959e-2 -0.87752643 0.47743519
vn 0.37936185 -0.68958388 0.61689437
vn 0.72388198 0.68758207 -5.6795826e-2
vn 0.44855118 0.79764820 -0.40318630
vn 0.10061903 0.96085463 -0.25813598
vn 0.14951371 0.98256508 0.11050571
vn 0.50181272 0.81363505 0.29356771
vn -0.48322239 0.78444270 -0.38877471
vn -0.74049740 0.66893461 -6.4730874e-2
vn -0.51779367 0.80963734 0.27636407
vn -0.17193929 0.97932158 0.10661200
vn -0.17944804 0.94957290 -0.25711807
vn 0.92985184 -0.28701876 -0.23020813
vn 0.69741356 -0.45783169 -0.55136601
vn 0.62008399 -1.4346858e-2 -0.78440424
vn 0.67914868 0.41755498 -0.60365960
vn 0.93119261 0.25671902 -0.25879658
vn 0.65921527 3.8122846e-3 0.75194461
vn 0.72371803 -0.43861162 0.53277768
vn 0.93576989 -0.28078718 0.21329153
vn 0.94122704 0.27555699 0.19534589
vn 0.72320301 0.45652921 0.51822629
vn -0.28817236 0.31612462 -0.90389265
vn -0.35300102 0.68659705 -0.63559010
vn -4.6537272e-2 0.86172740 -0.50523279
vn 0.28497426 0.67913897 -0.67643177
vn 0.20349372 0.30512033 -0.93031816
vn -0.70306571 -0.44316735 0.55614864
vn -0.60375659 -1.0021110e-2 0.79710574
vn -0.72589061 0.42938790 0.53731635
vn -0.95063326 0.25395915 0.17832881
vn -0.94499192 -0.27436200 0.17808919
vn -0.30523167 -0.65107977 -0.69493076
vn -0.23324335 -0.22786727 -0.94534335
vn 0.24669666 -0.29356582 -0.92355826
vn 0.34433631 -0.69436327 -0.63189569
vn 3.5346781e-2 -0.87525211 -0.48237367
vn -0.75381881 -0.65663043 -2.4365533e-2
vn -0.49453957 -0.80371852 -0.33085820
vn -0.11974185 -0.97575226 -0.18321958
vn -0.11984158 -0.97544843 0.18476570
vn -0.46704440 -0.82366335 0.32163367
vn 0.47918602 -0.81115192 -0.33528096
vn 0.72332335 -0.69050948 3.2605165e-5
vn 0.49829180 -0.80442744 0.32342199
vn 0.15127031 -0.97129713 0.18357336
vn 0.15119739 -0.97027625 -0.18895328
vn -0.19998851 0.28106014 0.93862122
vn 0.31669156 0.30537597 0.89802671
vn 0.39358365 0.69537593 0.60128547
vn 3.1241439e-2 0.88377872 0.46686095
vn -0.31466059 0.69215714 0.64954384
g dodecahedron1_default
usemtl default
s 1
f 1//1 47//47 46//46 2//2
f 2//2 3//3 4//4 5//5 1//1
f 2//2 40//40 39//39 3//3
f 3//3 17//17 16//16 4//4
f 4//4 32//32 31//31 5//5
f 5//5 42//42 41//41 1//1
f 6//6 57//57 56//56 7//7
f 7//7 8//8 9//9 10//10 6//6
f 7//7 37//37 36//36 8//8
f 7//7 56//56 37//37
f 8//8 50//50 49//49 9//9
f 9//9 54//54 53//53 10//10
f 10//10 27//27 26//26 6//6
f 11//11 25//25 24//24 12//12
f 12//12 13//13 14//14 15//15 11//11
f 12//12 34//34 33//33 13//13
f 13//13 20//20 19//19 14//14
f 14//14 59//59 58//58 15//15
f 15//15 30//30 29//29 11//11
f 16//16 32//32 4//4
f 17//17 18//18 19//19 20//20 16//16
f 17//17 39//39 38//38 18//18
f 18//18 60//60 59//59 19//19
f 19//19 59//59 14//14
f 20//20 33//33 32//32 16//16
f 21//21 52//52 51//51 22//22
f 22//22 23//23 24//24 25//25 21//21
f 22//22 44//44 43//43 23//23
f 23//23 35//35 34//34 24//24
f 24//24 34//34 12//12
f 25//25 29//29 28//28 21//21
f 26//26 57//57 6//6
f 27//27 28//28 29//29 30//30 26//26
f 27//27 53//53 52//52 28//28
f 28//28 52//52 21//21
f 29//29 25//25 11//11
f 30//30 58//58 57//57 26//26
f 31//31 42//42 5//5
f 32//32 33//33 34//34 35//35 31//31
f 33//33 20//20 13//13
f 35//35 43//43 42//42 31//31
f 36//36 50//50 8//8
f 37//37 38//38 39//39 40//40 36//36
f 37//37 56//56 60//60 38//38
f 38//38 60//60 18//18
f 39//39 17//17 3//3
f 40//40 46//46 50//50 36//36
f 41//41 47//47 1//1
f 42//42 43//43 44//44 45//45 41//41
f 43//43 35//35 23//23
f 44//44 51//51 55//55 45//45
f 45//45 48//48 47//47 41//41
f 46//46 40//40 2//2
f 47//47 48//48 49//49 50//50 46//46
f 48//48 55//55 54//54 49//49
f 49//49 54//54 9//9
f 51//51 44//44 22//22
f 52//52 53//53 54//54 55//55 51//51
f 53//53 27//27 10//10
f 55//55 48//48 45//45
f 57//57 58//58 59//59 60//60 56//56
f 58//58 30//30 15//15
