# Exported from Wings 3D 1.5.3
mtllib pedestal.mtl
o Cube1
#98 vertices, 86 faces
v -0.33333333 0.0000000e+0 1.00000000
v 0.33333333 0.0000000e+0 1.00000000
v 0.33333333 0.0000000e+0 2.69066667
v -0.33333333 0.0000000e+0 2.69066667
v -0.90800000 1.00000000 -0.90800000
v -0.90800000 1.00000000 0.90800000
v 0.90800000 1.00000000 0.90800000
v 0.90800000 1.00000000 -0.90800000
v -0.33333333 1.00000000 0.98405493
v -0.31738827 1.00000000 1.00000000
v -0.33333333 0.98405493 1.00000000
v -0.34927840 1.00000000 1.00000000
v 0.31738827 1.00000000 1.00000000
v 0.33333333 0.98405493 1.00000000
v 0.34927840 1.00000000 1.00000000
v 0.33333333 1.00000000 0.98405493
v -0.33333333 1.00000000 0.92394507
v -0.31738827 1.00000000 0.90800000
v -0.34927840 1.00000000 0.90800000
v 0.33333333 1.00000000 0.92394507
v 0.34927840 1.00000000 0.90800000
v 0.31738827 1.00000000 0.90800000
v -0.91927486 1.08021606 -0.91927486
v -0.90800000 1.06427100 -0.90800000
v -0.91927486 1.08021606 0.91927486
v -0.90800000 1.06427100 0.90800000
v 0.91927486 1.08021606 0.91927486
v 0.90800000 1.06427100 0.90800000
v 0.91927486 1.08021606 -0.91927486
v 0.90800000 1.06427100 -0.90800000
v 0.34927840 1.06427100 0.90800000
v -0.34927840 1.06427100 0.90800000
v -0.34927840 1.08021606 0.98405493
v -0.34927840 1.08021606 0.92394507
v -0.34927840 1.06427100 1.00000000
v 0.34927840 1.06427100 1.00000000
v 0.34927840 1.08021606 0.92394507
v 0.34927840 1.08021606 0.98405493
v -0.33333333 1.06427100 0.92394507
v -0.33333333 1.06427100 0.98405493
v 0.33333333 1.06427100 0.98405493
v 0.33333333 1.06427100 0.92394507
v -1.00000000 0.0000000e+0 -0.93737938
v -0.93737938 0.0000000e+0 -1.00000000
v -1.00000000 0.0000000e+0 0.93737938
v -0.93737938 0.0000000e+0 1.00000000
v -1.00000000 1.00000000 -0.93737938
v -0.93737938 1.00000000 -1.00000000
v -1.00000000 1.00000000 0.93737938
v -0.93737938 1.00000000 1.00000000
v 0.93737938 0.0000000e+0 -1.00000000
v 1.00000000 0.0000000e+0 -0.93737938
v 1.00000000 0.0000000e+0 0.93737938
v 0.93737938 0.0000000e+0 1.00000000
v 0.93737938 1.00000000 -1.00000000
v 1.00000000 1.00000000 -0.93737938
v 1.00000000 1.00000000 0.93737938
v 0.93737938 1.00000000 1.00000000
v -0.98872514 1.08021606 -0.92610451
v -0.94444567 1.08021606 -0.94444567
v -0.92610451 1.08021606 -0.98872514
v -1.00000000 1.06427100 -0.93737938
v -0.93737938 1.06427100 -1.00000000
v -0.92610618 1.08021606 0.98826780
v -0.94444567 1.08021606 0.94444567
v -0.98872514 1.08021606 0.92610451
v -1.00000000 1.06427100 0.93737938
v -0.93737938 1.06427100 1.00000000
v 0.92610451 1.08021606 -0.98872514
v 0.94444567 1.08021606 -0.94444567
v 0.98872514 1.08021606 -0.92610451
v 0.93737938 1.06427100 -1.00000000
v 1.00000000 1.06427100 -0.93737938
v 0.98872514 1.08021606 0.92610451
v 0.94444567 1.08021606 0.94444567
v 0.92610618 1.08021606 0.98826780
v 1.00000000 1.06427100 0.93737938
v 0.93737938 1.06427100 1.00000000
v 0.33333333 0.38072088 2.69066667
v -0.33333333 0.38072088 2.69066667
v 0.31494310 0.0000000e+0 5.99306667
v 0.33333333 0.0000000e+0 5.97467643
v -0.31494310 0.0000000e+0 5.99306667
v -0.33333333 0.0000000e+0 5.97467643
v -0.33333333 0.98405493 1.00000000
v -0.32032947 0.99901501 1.00277137
v 0.32032947 0.99901501 1.00277137
v 0.33333333 0.98405493 1.00000000
v -0.31494310 0.40526986 2.67333835
v 0.31494310 0.40526986 2.67333835
v 0.31494310 0.39380164 4.68715377
v -0.31494310 0.39380164 4.68715377
v -0.33333333 0.38072088 4.66683418
v 0.33333333 0.38072088 4.66683418
v 0.31494310 0.39911111 2.70905690
v -0.31494310 0.39911111 2.70905690
v -0.31494310 0.39911111 4.65115643
v 0.31494310 0.39911111 4.65115643
vn -2.1021702e-2 0.93887719 0.34360983
vn 2.1021702e-2 0.93887719 0.34360983
vn 0.0000000e+0 1.00000000 0.0000000e+0
vn 0.0000000e+0 1.00000000 0.0000000e+0
vn -0.36516903 0.34804057 -0.86343462
vn 0.36516903 0.34804057 -0.86343462
vn 0.37044312 0.84592556 0.38364285
vn 0.37082278 0.84506721 -0.38516474
vn 0.36527383 0.34968502 0.86272557
vn -0.36527383 0.34968502 0.86272557
vn -0.37082278 0.84506721 -0.38516474
vn -0.37044312 0.84592556 0.38364285
vn 0.85476344 0.36700100 -0.36700100
vn 0.85476344 0.36700100 0.36700100
vn -0.85476344 0.36700100 0.36700100
vn -0.85476344 0.36700100 -0.36700100
vn -0.92387953 0.0000000e+0 -0.38268343
vn -0.38268343 0.0000000e+0 -0.92387953
vn -0.92387953 0.0000000e+0 0.38268343
vn -0.38268343 0.0000000e+0 0.92387953
vn 0.38268343 0.0000000e+0 -0.92387953
vn 0.92387953 0.0000000e+0 -0.38268343
vn 0.92387953 0.0000000e+0 0.38268343
vn 0.38268343 0.0000000e+0 0.92387953
vn -0.36839211 0.91908181 -0.13991381
vn 0.0000000e+0 1.00000000 2.8658274e-15
vn -0.13991381 0.91908181 -0.36839211
vn -0.86391792 0.36700100 -0.34490012
vn -0.34490012 0.36700100 -0.86391792
vn -0.13621501 0.92832532 0.34591557
vn 0.0000000e+0 1.00000000 2.9017281e-15
vn -0.36724939 0.91961830 0.13939179
vn -0.86348424 0.36824879 0.34465607
vn -0.34559395 0.39296689 0.85213957
vn 0.13991381 0.91908181 -0.36839211
vn 0.0000000e+0 1.00000000 2.8301715e-15
vn 0.36839211 0.91908181 -0.13991381
vn 0.34490012 0.36700100 -0.86391792
vn 0.86391792 0.36700100 -0.34490012
vn 0.36724939 0.91961830 0.13939179
vn 0.0000000e+0 1.00000000 3.8451654e-15
vn 0.13621501 0.92832532 0.34591557
vn 0.86348424 0.36824879 0.34465607
vn 0.34559395 0.39296689 0.85213957
vn 0.89887258 0.43184505 7.4417353e-2
vn -0.89887258 0.43184505 7.4417353e-2
vn -0.72931377 0.57926690 0.36407593
vn -0.28127186 0.85167805 0.44218847
vn 0.28127186 0.85167805 0.44218847
vn 0.72931377 0.57926690 0.36407593
vn -0.40363596 0.88471628 0.23314183
vn 0.40363596 0.88471628 0.23314183
vn 0.31546721 0.92600490 0.20735326
vn -0.31546721 0.92600490 0.20735326
vn -0.78487744 0.61238344 9.4625150e-2
vn 0.78487744 0.61238344 9.4625150e-2
vn 0.40033776 0.91313417 7.6913428e-2
vn -0.40033776 0.91313417 7.6913428e-2
vn -0.36664989 0.92779471 6.9027833e-2
vn 0.36664989 0.92779471 6.9027833e-2
vn 0.0000000e+0 -1.00000000 0.0000000e+0
vn 0.0000000e+0 0.0000000e+0 1.00000000
vn -1.00000000 -9.6232312e-17 0.0000000e+0
vn 0.0000000e+0 -1.00000000 0.0000000e+0
vn 0.0000000e+0 -1.00000000 0.0000000e+0
vn 0.0000000e+0 0.0000000e+0 1.00000000
vn 1.00000000 -9.6232312e-17 0.0000000e+0
vn 0.0000000e+0 -1.00000000 0.0000000e+0
vn 1.00000000 -4.8116156e-17 0.0000000e+0
vn 0.0000000e+0 -1.00000000 0.0000000e+0
vn 1.00000000 -4.8116156e-17 0.0000000e+0
vn 0.0000000e+0 -1.00000000 0.0000000e+0
vn -1.00000000 -4.8116156e-17 0.0000000e+0
vn 0.0000000e+0 -1.00000000 0.0000000e+0
vn -1.00000000 -4.8116156e-17 0.0000000e+0
vn 0.0000000e+0 -1.00000000 0.0000000e+0
vn 0.0000000e+0 1.00000000 0.0000000e+0
vn 0.0000000e+0 0.0000000e+0 1.00000000
vn 1.00000000 0.0000000e+0 0.0000000e+0
vn 0.0000000e+0 1.00000000 0.0000000e+0
vn 0.0000000e+0 0.0000000e+0 -1.00000000
vn 1.00000000 0.0000000e+0 0.0000000e+0
vn 0.0000000e+0 1.00000000 0.0000000e+0
vn -1.00000000 0.0000000e+0 0.0000000e+0
vn 0.0000000e+0 0.0000000e+0 -1.00000000
vn 0.0000000e+0 1.00000000 0.0000000e+0
vn -1.00000000 0.0000000e+0 0.0000000e+0
vn 0.0000000e+0 0.0000000e+0 1.00000000
vn -3.2236258e-2 0.93687036 0.34818782
vn 0.92387953 0.0000000e+0 0.38268343
vn 0.92387953 0.0000000e+0 0.38268343
vn -3.2236258e-2 0.93687036 0.34818782
vn 0.0000000e+0 0.0000000e+0 1.00000000
vn -0.72814916 0.51874820 0.44799454
vn -0.72814916 0.51874820 0.44799454
vn 0.25272473 0.0000000e+0 0.96753822
vn 0.25272473 0.0000000e+0 0.96753822
vn 0.25272473 0.0000000e+0 0.96753822
vn -6.0402389e-2 0.75545213 0.65241369
vn 0.0000000e+0 0.0000000e+0 1.00000000
vn 0.72814916 0.51874820 0.44799454
vn 0.72814916 0.51874820 0.44799454
vn -0.25272473 0.0000000e+0 0.96753822
vn -0.25272473 0.0000000e+0 0.96753822
vn 6.0402389e-2 0.75545213 0.65241369
vn -0.25272473 0.0000000e+0 0.96753822
vn 3.2236258e-2 0.93687036 0.34818782
vn -0.92387953 0.0000000e+0 0.38268343
vn 3.2236258e-2 0.93687036 0.34818782
vn -0.92387953 0.0000000e+0 0.38268343
vn 0.0000000e+0 1.00000000 0.0000000e+0
vn 0.92387953 0.0000000e+0 -0.38268343
vn 0.92387953 0.0000000e+0 -0.38268343
vn 0.0000000e+0 1.00000000 0.0000000e+0
vn 0.0000000e+0 1.00000000 0.0000000e+0
vn 0.38268343 0.0000000e+0 -0.92387953
vn 0.38268343 0.0000000e+0 -0.92387953
vn 0.0000000e+0 1.00000000 0.0000000e+0
vn 0.0000000e+0 1.00000000 0.0000000e+0
vn -0.92387953 0.0000000e+0 -0.38268343
vn -0.92387953 0.0000000e+0 -0.38268343
vn 0.0000000e+0 1.00000000 0.0000000e+0
vn 0.0000000e+0 1.00000000 0.0000000e+0
vn -0.38268343 0.0000000e+0 -0.92387953
vn -0.38268343 0.0000000e+0 -0.92387953
vn 0.0000000e+0 1.00000000 0.0000000e+0
vn 0.24304941 0.93907080 0.24304941
vn 0.24304941 0.93907080 0.24304941
vn 0.24304941 0.93907080 0.24304941
vn 0.24304941 0.93907080 0.24304941
vn 0.0000000e+0 0.30290545 0.95302061
vn 0.95302061 0.30290545 0.0000000e+0
vn 0.95302061 0.30290545 0.0000000e+0
vn 0.0000000e+0 0.30290545 0.95302061
vn 0.23999026 0.94492308 -0.22254223
vn 0.23999026 0.94492308 -0.22254223
vn 0.23999026 0.94492308 -0.22254223
vn 0.23999026 0.94492308 -0.22254223
vn 1.6761591e-3 0.34636935 -0.93809672
vn 0.95302061 0.30290545 0.0000000e+0
vn 1.6761591e-3 0.34636935 -0.93809672
vn 0.95302061 0.30290545 0.0000000e+0
vn -0.23999026 0.94492308 -0.22254223
vn -0.23999026 0.94492308 -0.22254223
vn -0.23999026 0.94492308 -0.22254223
vn -0.23999026 0.94492308 -0.22254223
vn -0.95302061 0.30290545 0.0000000e+0
vn -1.6761591e-3 0.34636935 -0.93809672
vn -1.6761591e-3 0.34636935 -0.93809672
vn -0.95302061 0.30290545 0.0000000e+0
vn -0.24304941 0.93907080 0.24304941
vn -0.24304941 0.93907080 0.24304941
vn -0.24304941 0.93907080 0.24304941
vn -0.24304941 0.93907080 0.24304941
vn -0.95302061 0.30290545 0.0000000e+0
vn 0.0000000e+0 0.30290545 0.95302061
vn 0.0000000e+0 0.30290545 0.95302061
vn -0.95302061 0.30290545 0.0000000e+0
vn 0.0000000e+0 -1.00000000 0.0000000e+0
vn -0.92387953 0.0000000e+0 -0.38268343
vn -0.92387953 0.0000000e+0 -0.38268343
vn 0.0000000e+0 -1.00000000 0.0000000e+0
vn -0.38268343 0.0000000e+0 -0.92387953
vn -0.38268343 0.0000000e+0 -0.92387953
vn 0.0000000e+0 -1.00000000 0.0000000e+0
vn -0.92387953 0.0000000e+0 0.38268343
vn -0.92387953 0.0000000e+0 0.38268343
vn 0.0000000e+0 -1.00000000 0.0000000e+0
vn -0.38268343 0.0000000e+0 0.92387953
vn -0.38268343 0.0000000e+0 0.92387953
vn 0.0000000e+0 -1.00000000 0.0000000e+0
vn 0.38268343 0.0000000e+0 -0.92387953
vn 0.38268343 0.0000000e+0 -0.92387953
vn 0.0000000e+0 -1.00000000 0.0000000e+0
vn 0.92387953 0.0000000e+0 -0.38268343
vn 0.92387953 0.0000000e+0 -0.38268343
vn 0.0000000e+0 -1.00000000 0.0000000e+0
vn 0.92387953 0.0000000e+0 0.38268343
vn 0.92387953 0.0000000e+0 0.38268343
vn 0.0000000e+0 -1.00000000 0.0000000e+0
vn 0.38268343 0.0000000e+0 0.92387953
vn 0.38268343 0.0000000e+0 0.92387953
vn 0.50167826 0.71193119 0.49139892
vn 0.50167826 0.71193119 0.49139892
vn 0.50167826 0.71193119 0.49139892
vn 0.98067021 -0.12262090 0.15247966
vn 0.98067021 -0.12262090 0.15247966
vn 0.98067021 -0.12262090 0.15247966
vn -0.50167826 0.71193119 0.49139892
vn -0.50167826 0.71193119 0.49139892
vn -0.50167826 0.71193119 0.49139892
vn -0.98067021 -0.12262090 0.15247966
vn -0.98067021 -0.12262090 0.15247966
vn -0.98067021 -0.12262090 0.15247966
g Cube1_default
usemtl default
s 1
f 2//68 3//70 4//74 1//64
f 5//79 24//132 26//140 6//82
f 6//81 26//139 32//6 19//116
f 7//84 28//147 30//155 8//87
f 8//88 30//156 24//131 5//78
f 11//93 12//96 50//20 46//169 1//62
f 12//98 9//91 40//14 35//9
f 16//108 41//15 42//16 20//120
f 17//112 39//13 40//14 9//90
f 21//125 20//121 42//16 31//5
f 21//124 31//5 28//148 7//85
f 23//129 25//138 26//142 24//133
f 23//127 60//26 59//25 66//32 65//31 25//135
f 24//134 30//157 29//153 23//130
f 25//137 34//8 32//6 26//141
f 27//146 29//154 30//158 28//150
f 27//144 75//41 74//40 71//37 70//36 29//151
f 28//149 31//5 37//11 27//145
f 29//152 70//36 69//35 61//27 60//26 23//128
f 32//6 39//13 17//113 19//117
f 33//7 34//8 25//136 65//31 64//30
f 33//7 40//14 39//13 34//8
f 34//8 39//13 32//6
f 35//9 40//14 33//7
f 35//9 68//34 50//20 12//97
f 36//10 41//15 16//110 15//106
f 37//11 38//12 76//42 75//41 27//143
f 37//11 42//16 41//15 38//12
f 38//12 41//15 36//10
f 42//16 37//11 31//5
f 44//163 48//18 55//21 51//172
f 45//166 49//19 47//17 43//160
f 47//17 62//28 63//29 48//18
f 48//18 44//164 43//161 47//17
f 48//18 63//29 72//38 55//21
f 49//19 45//167 46//170 50//20
f 49//19 67//33 62//28 47//17
f 50//20 68//34 67//33 49//19
f 52//175 56//22 57//23 53//178
f 54//181 58//24 15//103 14//100 2//66
f 55//21 72//38 73//39 56//22
f 56//22 52//176 51//173 55//21
f 56//22 73//39 77//43 57//23
f 57//23 77//43 78//44 58//24
f 58//24 54//182 53//179 57//23
f 58//24 78//44 36//10 15//104
f 60//26 61//27 59//25
f 62//28 59//25 61//27 63//29
f 64//30 68//34 35//9 33//7
f 66//32 64//30 65//31
f 67//33 66//32 59//25 62//28
f 68//34 64//30 66//32 67//33
f 69//35 72//38 63//29 61//27
f 71//37 69//35 70//36
f 72//38 69//35 71//37 73//39
f 74//40 77//43 73//39 71//37
f 75//41 76//42 74//40
f 77//43 74//40 76//42 78//44
f 78//44 76//42 38//12 36//10
s 2
f 1//61 46//168 45//165 43//159 44//162 51//171 52//174 53//177 54//180 2//65
f 2//67 14//101 88//50 79//45 3//69
f 3//71 79//45 94//56 82//186
f 3//72 82//187 81//184 83//190 84//193 4//76
f 4//75 84//192 93//55 80//46
f 6//80 19//115 18//3 22//4 21//123 7//83 8//86 5//77
f 9//89 10//1 13//2 16//107 20//119 22//4 18//3 17//111
f 9//92 12//99 11//95 85//47 86//48 10//1
f 10//1 86//48 89//51 90//52 87//49 13//2
f 19//118 17//114 18//3
f 20//122 21//126 22//4
f 79//45 95//57 98//60 94//56
f 80//46 85//47 11//94 1//63 4//73
f 80//46 96//58 89//51
f 81//183 91//53 92//54 83//189
f 82//188 94//56 91//53 81//185
f 83//191 92//54 93//55 84//194
f 85//47 80//46 89//51 86//48
f 87//49 88//50 14//102 15//105 16//109 13//2
f 87//49 90//52 79//45 88//50
f 89//51 96//58 95//57 90//52
f 91//53 98//60 97//59 92//54
f 93//55 97//59 96//58 80//46
f 94//56 98//60 91//53
f 95//57 79//45 90//52
f 96//58 97//59 98//60 95//57
f 97//59 93//55 92//54
