# Exported from Wings 3D 1.5.3
mtllib plant.mtl
o Cylinder3
#107 vertices, 87 faces
v 1.00000000 -0.29371385 0.0000000e+0
v 1.00000000 -0.77971385 0.0000000e+0
v 0.62348980 -0.77971385 0.78183148
v -0.22252093 -0.77971385 0.97492791
v -0.90096887 -0.77971385 0.43388374
v -0.90096887 -0.77971385 -0.43388374
v -0.22252093 -0.77971385 -0.97492791
v 0.62348980 -0.77971385 -0.78183148
v 0.32200000 -0.18550541 2.0886715e-17
v 0.42562717 1.22444346 0.95856774
v 0.23576443 1.20825233 1.03725649
v -0.95012956 1.10576824 0.10437306
v -0.95012956 1.10576824 -0.10437306
v 0.16178524 1.11051269 -1.01210919
v 0.36226717 1.12186659 -0.95825213
v 0.63688721 2.45133759 1.53997030
v 0.61417869 2.44916681 1.54989488
v -1.71866004 2.36960186 1.2438711e-2
v -1.71866004 2.36960186 -1.2438711e-2
v 0.61915949 2.36875109 -2.07187631
v 0.64310282 2.37030410 -2.06530429
v 0.62974979 -0.29371385 0.76883249
v 0.62348980 -0.30814164 0.78183148
v 0.60942375 -0.29371385 0.78504197
v -0.20845488 -0.29371385 0.97171743
v -0.23380104 -0.29371385 0.96593233
v -0.22252093 -0.30814164 0.97492791
v -0.88968877 -0.29371385 0.44287932
v -0.90096887 -0.29371385 0.41945595
v -0.90096887 -0.30814164 0.43388374
v -0.90096887 -0.29371385 -0.41945595
v -0.88968877 -0.29371385 -0.44287932
v -0.90096887 -0.30814164 -0.43388374
v -0.23380104 -0.29371385 -0.96593233
v -0.20845488 -0.29371385 -0.97171743
v -0.22252093 -0.30814164 -0.97492791
v 0.60942375 -0.29371385 -0.78504197
v 0.62974979 -0.29371385 -0.76883249
v 0.62348980 -0.30814164 -0.78183148
v 0.22802100 1.07051123 1.21159248
v 0.21718736 1.08208991 1.21119215
v 0.62428660 1.12038327 1.03352612
v 0.62027129 1.10800772 1.04016262
v -1.11474644 1.00729215 -0.21485720
v -1.11036526 1.01947608 -0.22291960
v -1.11036526 1.01947608 0.22291960
v -1.11474644 1.00729215 0.21485720
v 0.53308261 1.02130379 -1.08444580
v 0.53867361 1.03375079 -1.07817758
v 0.10963396 1.00611134 -1.19586738
v 0.11950310 0.99447823 -1.19796606
v 0.62187559 2.39711043 1.58560585
v 0.60987094 2.40720295 1.58253288
v 0.67021393 2.41297134 1.55616046
v 0.66605909 2.40133408 1.56629580
v -1.75432819 2.31828133 -2.4201745e-2
v -1.74673401 2.32920809 -3.3053195e-2
v -1.74673401 2.32920809 3.3053195e-2
v -1.75432819 2.31828133 2.4201745e-2
v 0.66697028 2.31986642 -2.09581276
v 0.67281816 2.33131412 -2.08631717
v 0.60919393 2.32718733 -2.10378090
v 0.62038424 2.31684476 -2.10859980
v 0.20702370 -0.18550541 0.23875075
v 0.20280012 -0.17273667 0.25815080
v 0.20232254 -0.17288674 -0.25856885
v 0.20702370 -0.18550541 -0.23875075
v -8.2931842e-2 -0.18550541 -0.30493121
v -6.9392122e-2 -0.17296024 -0.32068504
v -0.29667654 -0.17266235 -0.13935910
v -0.27883187 -0.18550541 -0.14870614
v -0.27883187 -0.18550541 0.14870614
v -0.29667654 -0.17266235 0.13935910
v -6.8879802e-2 -0.17293805 0.32044897
v -8.2931842e-2 -0.18550541 0.30493121
v 0.62877039 -0.29356678 0.76895278
v 0.60975895 -0.29356678 0.78411389
v 0.61470389 -0.27725619 0.77333289
v -0.21504488 -0.27789247 0.96350499
v -0.20915957 -0.29356678 0.97102670
v -0.23286644 -0.29356678 0.96561576
v -0.88958810 -0.29356678 0.44189771
v -0.90013865 -0.29356678 0.41998927
v -0.89051570 -0.27738089 0.42550578
v -0.89051570 -0.27738089 -0.42550578
v -0.90013865 -0.29356678 -0.41998927
v -0.88958810 -0.29356678 -0.44189771
v -0.23286644 -0.29356678 -0.96561576
v -0.20915957 -0.29356678 -0.97102670
v -0.21585804 -0.27766503 -0.96353062
v 0.61380258 -0.27740738 -0.77394835
v 0.60975895 -0.29356678 -0.78411389
v 0.62877039 -0.29356678 -0.76895278
v 0.76600000 -1.12309529 7.2086894e-18
v 0.47759319 -1.12309529 0.59888292
v -0.17045104 -1.12309529 0.74679478
v -0.69014215 -1.12309529 0.33235494
v -0.69014215 -1.12309529 -0.33235494
v -0.17045104 -1.12309529 -0.74679478
v 0.47759319 -1.12309529 -0.59888292
v 0.32631600 -1.21254759 4.7843886e-17
v 0.20345470 -1.21254759 0.25512412
v -7.2612141e-2 -1.21254759 0.31813458
v -0.29400056 -1.21254759 0.14158321
v -0.29400056 -1.21254759 -0.14158321
v -7.2612141e-2 -1.21254759 -0.31813458
v 0.20345470 -1.21254759 -0.25512412
vn 0.73205874 0.68124151 -7.2009835e-17
vn 0.95419735 -0.29917792 -6.3482194e-17
vn 0.59493231 -0.29917792 0.74602153
vn -0.21232888 -0.29917792 0.93027363
vn -0.85970210 -0.29917792 0.41401071
vn -0.85970210 -0.29917792 -0.41401071
vn -0.21232888 -0.29917792 -0.93027363
vn 0.59493231 -0.29917792 -0.74602153
vn 0.10526228 0.99444449 -2.7886374e-17
vn 0.16372119 0.40339029 -0.90026199
vn -0.75616876 0.43557461 -0.48834779
vn 0.74545731 0.43895911 0.50160571
vn 0.74545731 0.43895911 -0.50160571
vn -0.68311915 0.52502678 0.50763678
vn 0.28200479 0.51668812 0.80839760
vn 0.25231021 0.81462849 -0.52222598
vn -0.63763009 0.76945169 3.7040005e-2
vn 0.26235706 0.82588213 0.49908665
vn 0.26235706 0.82588213 -0.49908665
vn -0.51875495 0.85398281 -4.0083124e-2
vn 0.34109044 0.89638919 0.28309668
vn 0.65383608 0.57699229 0.48946735
vn 0.61527355 0.16180866 0.77152862
vn 0.55742717 4.3770148e-2 0.82907124
vn -4.1496928e-2 5.8867648e-2 0.99740293
vn -0.37671403 0.57699229 0.72468368
vn -0.21958859 0.16180866 0.96208046
vn -0.62268759 0.57699229 0.52852631
vn -0.94963905 7.6142295e-2 0.30395400
vn -0.88909604 0.16180866 0.42816608
vn -0.94963905 7.6142295e-2 -0.30395400
vn -0.62268759 0.57699229 -0.52852631
vn -0.88909604 0.16180866 -0.42816608
vn -0.37671403 0.57699229 -0.72468368
vn -7.4313085e-2 5.7930486e-2 -0.99555091
vn -0.21958859 0.16180866 -0.96208046
vn 0.53006995 4.9782080e-2 -0.84649134
vn 0.65383608 0.57699229 -0.48946735
vn 0.61527355 0.16180866 -0.77152862
vn -2.1526183e-2 -0.20514930 0.97849394
vn -0.82227866 0.11148277 0.55805860
vn 0.96003633 8.1433428e-2 -0.26776640
vn 0.71366996 -0.21749961 0.66585967
vn -0.88740141 -0.22286383 -0.40354733
vn -0.15378362 0.10297279 -0.98272438
vn -0.15378362 0.10297279 0.98272438
vn -0.88740141 -0.22286383 0.40354733
vn 0.65746837 -0.32985354 -0.67744519
vn 0.98129556 8.7381535e-2 0.17153276
vn -0.89869946 9.1380987e-2 -0.42893916
vn -0.17426811 -0.32308653 -0.93018585
vn 0.14695999 1.5961483e-2 0.98901365
vn -0.45622384 0.30218646 0.83698456
vn 0.91510422 0.38537590 0.11861569
vn 0.65744625 2.9225772e-2 0.75293445
vn -0.95419963 -2.9857954e-2 -0.29767697
vn -0.51875890 0.33803206 -0.78525380
vn -0.51875890 0.33803206 0.78525380
vn -0.95419963 -2.9857954e-2 0.29767697
vn 0.59670736 -0.14286072 -0.78963988
vn 0.91034454 0.35283848 -0.21628183
vn -0.62198358 0.29504461 -0.72531725
vn -6.0629421e-2 -0.14847903 -0.98705524
vn 0.17981455 0.95623629 -0.23082218
vn 0.27818181 0.63791195 -0.71811087
vn 0.29717332 0.65709523 0.69275817
vn 0.17496540 0.95902035 0.22286112
vn -0.24616545 0.96159199 0.12142244
vn -0.57399920 0.67505121 0.46349842
vn 0.61173679 0.64747621 -0.45448065
vn 0.18267137 0.95838468 -0.21938543
vn 0.18267137 0.95838468 0.21938543
vn 0.61173679 0.64747621 0.45448065
vn -0.58273609 0.68076406 -0.44382310
vn -0.24180742 0.96271372 -0.12129080
vn 0.58415575 0.73246030 0.34966265
vn 0.73414636 0.24017322 0.63509523
vn 0.93316843 0.35886782 2.0262422e-2
vn -0.72334162 0.44330120 0.52939677
vn -0.29688073 0.27025177 0.91587434
vn -0.34713770 0.75166569 0.56079774
vn -0.46517272 0.74644292 0.47585430
vn -0.80553109 0.27687444 0.52388950
vn -0.29419539 0.41747097 0.85974825
vn -0.29419539 0.41747097 -0.85974825
vn -0.80553109 0.27687444 -0.52388950
vn -0.46517272 0.74644292 -0.47585430
vn -0.35416291 0.74648052 -0.56332536
vn -0.32350815 0.26514871 -0.90831638
vn -0.75438201 0.42454787 -0.50066645
vn 0.91951153 0.38729308 -6.7101507e-2
vn 0.71405770 0.24831188 -0.65457071
vn 0.57571658 0.73767062 -0.35269317
vn 0.54187778 -0.84045730 -4.2804961e-17
vn 0.33785527 -0.84045730 0.42365711
vn -0.12057915 -0.84045730 0.52829177
vn -0.48821501 -0.84045730 0.23511196
vn -0.48821501 -0.84045730 -0.23511196
vn -0.12057915 -0.84045730 -0.52829177
vn 0.33785527 -0.84045730 -0.42365711
vn 0.13330201 -0.99107546 1.8643836e-17
vn 8.3112443e-2 -0.99107546 0.10421971
vn -2.9662487e-2 -0.99107546 0.12995985
vn -0.12010096 -0.99107546 5.7837574e-2
vn -0.12010096 -0.99107546 -5.7837574e-2
vn -2.9662487e-2 -0.99107546 -0.12995985
vn 8.3112443e-2 -0.99107546 -0.10421971
g Cylinder3_default
usemtl default
s 1
f 1//1 2//2 8//8 39//39 38//38
f 1//1 9//9 64//64 76//76 22//22
f 2//2 94//94 100//100 8//8
f 3//3 23//23 24//24 25//25 27//27 4//4
f 3//3 95//95 94//94 2//2
f 4//4 27//27 26//26 28//28 30//30 5//5
f 4//4 96//96 95//95 3//3
f 5//5 30//30 29//29 31//31 33//33 6//6
f 5//5 97//97 96//96 4//4
f 6//6 33//33 32//32 34//34 36//36 7//7
f 6//6 98//98 97//97 5//5
f 7//7 36//36 35//35 37//37 39//39 8//8
f 7//7 99//99 98//98 6//6
f 8//8 100//100 99//99 7//7
f 9//9 67//67 68//68 71//71 72//72 75//75 64//64
f 10//10 16//16 54//54 42//42
f 10//10 65//65 74//74 11//11
f 11//11 17//17 16//16 10//10
f 11//11 41//41 53//53 17//17
f 11//11 74//74 79//79 41//41
f 12//12 18//18 58//58 46//46
f 12//12 73//73 70//70 13//13
f 13//13 19//19 18//18 12//12
f 13//13 45//45 57//57 19//19
f 13//13 70//70 85//85 45//45
f 14//14 20//20 62//62 50//50
f 14//14 69//69 66//66 15//15
f 15//15 21//21 20//20 14//14
f 15//15 49//49 61//61 21//21
f 15//15 66//66 91//91 49//49
f 17//17 53//53 52//52 55//55 54//54 16//16
f 19//19 57//57 56//56 59//59 58//58 18//18
f 21//21 61//61 60//60 63//63 62//62 20//20
f 22//22 23//23 3//3 2//2 1//1
f 24//24 43//43 40//40 25//25
f 25//25 80//80 81//81 26//26 27//27
f 26//26 81//81 75//75 72//72 82//82 28//28
f 29//29 47//47 44//44 31//31
f 30//30 28//28 82//82 83//83 29//29
f 32//32 87//87 71//71 68//68 88//88 34//34
f 33//33 31//31 86//86 87//87 32//32
f 35//35 51//51 48//48 37//37
f 37//37 92//92 93//93 38//38 39//39
f 38//38 93//93 67//67 9//9 1//1
f 40//40 52//52 53//53 41//41
f 41//41 79//79 80//80 25//25 40//40
f 42//42 54//54 55//55 43//43
f 42//42 78//78 65//65 10//10
f 43//43 24//24 77//77 78//78 42//42
f 43//43 55//55 52//52 40//40
f 44//44 56//56 57//57 45//45
f 45//45 85//85 86//86 31//31 44//44
f 46//46 58//58 59//59 47//47
f 46//46 84//84 73//73 12//12
f 47//47 29//29 83//83 84//84 46//46
f 47//47 59//59 56//56 44//44
f 48//48 60//60 61//61 49//49
f 49//49 91//91 92//92 37//37 48//48
f 50//50 62//62 63//63 51//51
f 50//50 90//90 69//69 14//14
f 51//51 35//35 89//89 90//90 50//50
f 51//51 63//63 60//60 48//48
f 65//65 78//78 76//76 64//64
f 66//66 69//69 68//68 67//67
f 67//67 93//93 91//91 66//66
f 69//69 90//90 88//88 68//68
f 70//70 73//73 72//72 71//71
f 71//71 87//87 85//85 70//70
f 73//73 84//84 82//82 72//72
f 74//74 65//65 64//64 75//75
f 75//75 81//81 79//79 74//74
f 76//76 77//77 24//24 23//23 22//22
f 77//77 76//76 78//78
f 79//79 81//81 80//80
f 83//83 82//82 84//84
f 86//86 85//85 87//87
f 88//88 89//89 35//35 36//36 34//34
f 89//89 88//88 90//90
f 91//91 93//93 92//92
f 94//94 101//101 107//107 100//100
f 95//95 102//102 101//101 94//94
f 96//96 103//103 102//102 95//95
f 97//97 104//104 103//103 96//96
f 98//98 105//105 104//104 97//97
f 99//99 106//106 105//105 98//98
f 100//100 107//107 106//106 99//99
f 102//102 103//103 104//104 105//105 106//106 107//107 101//101
