# Exported from Wings 3D 1.5.3
mtllib quad.mtl
o image1
#8 vertices, 6 faces
v -1.00000000 -1.00000000 -5.0000000e-4
v -1.00000000 1.00000000 -5.0000000e-4
v -1.00000000 1.00000000 5.0000000e-4
v -1.00000000 -1.00000000 5.0000000e-4
v 1.00000000 -1.00000000 -5.0000000e-4
v 1.00000000 1.00000000 -5.0000000e-4
v 1.00000000 1.00000000 5.0000000e-4
v 1.00000000 -1.00000000 5.0000000e-4
vt 0.0000000e+0 0.0000000e+0
vt 0.0000000e+0 1.00000000
vt 1.00000000 0.0000000e+0
vt 1.00000000 1.00000000
vn -1.00000000 0.0000000e+0 0.0000000e+0
vn 0.0000000e+0 -1.00000000 0.0000000e+0
vn -6.1257423e-17 0.0000000e+0 -1.00000000
vn -1.00000000 0.0000000e+0 0.0000000e+0
vn 0.0000000e+0 1.00000000 0.0000000e+0
vn -6.1257423e-17 0.0000000e+0 -1.00000000
vn -1.00000000 0.0000000e+0 0.0000000e+0
vn 6.1257423e-17 0.0000000e+0 1.00000000
vn 0.0000000e+0 1.00000000 0.0000000e+0
vn -1.00000000 0.0000000e+0 0.0000000e+0
vn 6.1257423e-17 0.0000000e+0 1.00000000
vn 0.0000000e+0 -1.00000000 0.0000000e+0
vn 0.0000000e+0 -1.00000000 0.0000000e+0
vn 1.00000000 0.0000000e+0 0.0000000e+0
vn -6.1257423e-17 0.0000000e+0 -1.00000000
vn 0.0000000e+0 1.00000000 0.0000000e+0
vn 1.00000000 0.0000000e+0 0.0000000e+0
vn -6.1257423e-17 0.0000000e+0 -1.00000000
vn 6.1257423e-17 0.0000000e+0 1.00000000
vn 0.0000000e+0 1.00000000 0.0000000e+0
vn 1.00000000 0.0000000e+0 0.0000000e+0
vn 6.1257423e-17 0.0000000e+0 1.00000000
vn 0.0000000e+0 -1.00000000 0.0000000e+0
vn 1.00000000 0.0000000e+0 0.0000000e+0
g image1_default
usemtl default
s 1
f 1//1 4//10 3//7 2//4
f 6//17 7//21 8//24 5//14
s 3
f 1//2 5//13 8//23 4//12
f 3//9 7//20 6//16 2//5
g image1_image
usemtl image
s 2
f 2/2/6 6/4/18 5/3/15 1/1/3
f 4/1/11 8/3/22 7/4/19 3/2/8
