# Exported from Wings 3D 1.5.3
mtllib stump.mtl
o Cylinder1
#136 vertices, 124 faces
v 0.18000000 2.00000000 -6.3143935e-18
v 0.12727922 2.00000000 0.12727922
v -4.0187216e-17 2.00000000 0.18000000
v -0.12727922 2.00000000 0.12727922
v -0.18000000 2.00000000 1.5729249e-17
v -0.12727922 2.00000000 -0.12727922
v -8.4274501e-17 2.00000000 -0.18000000
v 0.12727922 2.00000000 -0.12727922
v 0.73633071 6.7840000e-2 -6.2521980e-17
v 2.7074092e-17 6.7840000e-2 0.73633071
v -0.52066444 6.7840000e-2 0.52066444
v -0.73633071 6.7840000e-2 7.9564660e-17
v -0.52066444 6.7840000e-2 -0.52066444
v 0.52066444 6.7840000e-2 -0.52066444
v 0.94764869 -0.12643161 -3.9018155e-18
v 0.86366560 -0.39628417 -3.1725924e-16
v 1.5980791e-16 -0.12643161 0.94764869
v 2.8337778e-16 -0.39628417 0.86366560
v -0.67008882 -0.12643161 0.67008882
v -0.61070380 -0.39628417 0.61070380
v -0.94764869 -0.12643161 1.9874736e-16
v -0.86366560 -0.39628417 3.0373166e-16
v -0.67008882 -0.12643161 -0.67008882
v -0.61070380 -0.39628417 -0.61070380
v 0.67008882 -0.12643161 -0.67008882
v 0.61070380 -0.39628417 -0.61070380
v 0.67590044 -0.64018635 -4.3984479e-16
v -1.4924533e-16 -0.64018635 0.67590044
v -0.47793378 -0.64018635 0.47793378
v -0.67590044 -0.64018635 6.7050709e-18
v -0.47793378 -0.64018635 -0.47793378
v 0.47793378 -0.64018635 -0.47793378
v 0.33265307 -0.82043577 5.8038933e-16
v -4.0043184e-16 -0.82043577 0.33265307
v -0.23522124 -0.82043577 0.23522124
v -0.33265307 -0.82043577 2.9972441e-18
v -0.23522124 -0.82043577 -0.23522124
v 0.23522124 -0.82043577 -0.23522124
v 0.12727922 2.00978204 0.12727922
v 0.11062709 2.06360086 0.11062709
v 0.18000000 2.00978204 -9.0877830e-17
v 0.15645033 2.06360086 -1.7216523e-16
v 0.12727922 2.00978204 -0.12727922
v 0.11062709 2.06360086 -0.11062709
v -8.4274501e-17 2.00978204 -0.18000000
v -8.0029567e-17 2.06360086 -0.15645033
v -0.12727922 2.00978204 -0.12727922
v -0.11062709 2.06360086 -0.11062709
v -0.18000000 2.00978204 -6.8834188e-17
v -0.15645033 2.06360086 -1.5719648e-16
v -0.12727922 2.00978204 0.12727922
v -0.11062709 2.06360086 0.11062709
v -4.0187216e-17 2.00978204 0.18000000
v -4.3017172e-17 2.06360086 0.15645033
v 8.5651207e-2 2.09623342 8.5651207e-2
v 0.12112910 2.09623342 -2.1892451e-16
v 8.5651207e-2 2.09623342 -8.5651207e-2
v -7.3662755e-17 2.09623342 -0.12112910
v -8.5651207e-2 2.09623342 -8.5651207e-2
v -0.12112910 2.09623342 -2.1456711e-16
v -8.5651207e-2 2.09623342 8.5651207e-2
v -4.7261713e-17 2.09623342 0.12112910
v 4.4460069e-2 2.11799048 4.4460069e-2
v 6.2876032e-2 2.11799048 -2.4384481e-16
v 4.4460069e-2 2.11799048 -4.4460069e-2
v -6.2119803e-17 2.11799048 -6.2876032e-2
v -4.4460069e-2 2.11799048 -4.4460069e-2
v -6.2876032e-2 2.11799048 -2.6220091e-16
v -4.4460069e-2 2.11799048 4.4460069e-2
v -5.3219391e-17 2.11799048 6.2876032e-2
v 0.20213654 0.33901447 -0.20213654
v 0.21905257 0.30819289 -0.21905257
v -9.7110219e-17 0.33901447 -0.28586424
v -0.20213654 0.33901447 -0.20213654
v -0.21905257 0.30819289 -0.21905257
v -0.28586424 0.33901447 2.5694341e-17
v -0.30978711 0.30819289 2.8520992e-17
v -0.20213654 0.33901447 0.20213654
v -0.21905257 0.30819289 0.21905257
v -2.7093675e-17 0.33901447 0.28586424
v -2.4212374e-17 0.30819289 0.30978711
v 0.20213654 0.33901447 0.20213654
v 0.28586424 0.33901447 -9.3139313e-18
v 0.30978711 0.30819289 -1.2018904e-17
v -0.10952628 0.30819289 -0.26441984
v 0.10952628 0.30819289 -0.26441984
v 0.11761062 -0.82043577 -0.28393716
v -0.11761062 -0.82043577 -0.28393716
v -0.25422185 -0.38883588 -0.80088979
v 0.19330736 -0.61429772 -0.63680624
v -0.28780966 -0.13961721 -0.86534589
v -0.19330736 -0.61429772 -0.63680624
v 0.28780966 -0.13961721 -0.86534589
v 0.25422185 -0.38883588 -0.80088979
v 0.22246329 4.4182817e-2 -0.67393080
v -0.22246329 4.4182817e-2 -0.67393080
v 0.26441984 0.30819289 0.10952628
v 0.10952628 0.30819289 0.26441984
v 0.11761062 -0.82043577 0.28393716
v 0.28393716 -0.82043577 0.11761062
v 0.43251065 -0.37512641 0.73140336
v 0.73140336 -0.37512641 0.43251065
v 0.79911227 -0.15412546 0.44934864
v 0.57443517 -0.58302309 0.35786616
v 0.44934864 -0.15412546 0.79911227
v 0.35786616 -0.58302309 0.57443517
v 0.35352247 1.2982639e-2 0.61806536
v 0.61806536 1.2982639e-2 0.35352247
v 0.67878223 7.6211303e-2 0.70581688
v 0.70581688 7.6211303e-2 0.67878223
v 0.86732129 -0.14574523 0.89646437
v 0.89646437 -0.14574523 0.86732129
v 0.82580867 -0.44540468 0.85137318
v 0.85137318 -0.44540468 0.82580867
v 0.67015271 -0.62109382 0.69267916
v 0.69267916 -0.62109382 0.67015271
v 0.19917485 -0.82043577 0.25015215
v 0.25015215 -0.82043577 0.19917485
v 0.18300618 0.30819289 0.23398347
v 0.20213654 0.33901447 0.20213654
v 0.23398347 0.30819289 0.18300618
v 2.5184205e-2 9.3146588e-2 -0.90217320
v -2.5184205e-2 9.3146588e-2 -0.90217320
v 2.6116574e-2 -0.10636270 -1.15388296
v -2.6116574e-2 -0.10636270 -1.15388296
v 2.4424427e-2 -0.42273395 -1.08513580
v -2.4424427e-2 -0.42273395 -1.08513580
v 2.2827362e-2 -0.59889082 -0.87260957
v -2.2827362e-2 -0.59889082 -0.87260957
v 3.6046388e-2 -0.82043577 -0.31772217
v -3.6046388e-2 -0.82043577 -0.31772217
v 3.6046388e-2 0.30819289 -0.29485621
v -9.7110219e-17 0.33901447 -0.28586424
v -3.6046388e-2 0.30819289 -0.29485621
v 0.10106827 0.33901447 -0.24400039
v -0.10106827 0.33901447 -0.24400039
vn 0.99949348 3.1824194e-2 1.5026593e-17
vn 0.70674862 3.1824194e-2 0.70674862
vn 1.5026593e-16 3.1824194e-2 0.99949348
vn -0.70674862 3.1824194e-2 0.70674862
vn -0.99949348 3.1824194e-2 3.3058504e-16
vn -0.70674862 3.1824194e-2 -0.70674862
vn -1.8031911e-16 3.1824194e-2 -0.99949348
vn 0.70674862 3.1824194e-2 -0.70674862
vn 0.57999586 0.81434993 2.0952318e-2
vn 2.0952318e-2 0.81434993 0.57999586
vn -0.41501649 0.80964352 0.41501649
vn -0.58692195 0.80964352 1.0786039e-16
vn -0.41515686 0.81170106 -0.41083594
vn 0.41515686 0.81170106 -0.41083594
vn 0.96091412 0.27597802 -2.1913179e-2
vn 0.88168706 -0.47088341 -2.9945590e-2
vn -2.1913179e-2 0.27597802 0.96091412
vn -2.9945590e-2 -0.47088341 0.88168706
vn -0.68075332 0.27046224 0.68075332
vn -0.62693130 -0.46250870 0.62693130
vn -0.96273058 0.27046224 3.1241151e-16
vn -0.88661474 -0.46250870 3.4495494e-16
vn -0.70371089 0.27187390 -0.65641113
vn -0.65248145 -0.46406500 -0.59909234
vn 0.70371089 0.27187390 -0.65641113
vn 0.65248145 -0.46406500 -0.59909234
vn 0.63870249 -0.76941899 7.3178715e-3
vn 7.3178715e-3 -0.76941899 0.63870249
vn -0.45310691 -0.76771626 0.45310691
vn -0.64078994 -0.76771626 4.1911852e-16
vn -0.46164637 -0.76858748 -0.44289492
vn 0.46164637 -0.76858748 -0.44289492
vn 0.32105059 -0.94683160 2.0891120e-2
vn 2.0891120e-2 -0.94683160 0.32105059
vn -0.22364060 -0.94866736 0.22364060
vn -0.31627557 -0.94866736 2.2875900e-16
vn -0.22193213 -0.94841491 -0.22639629
vn 0.22193213 -0.94841491 -0.22639629
vn 0.69194133 0.20599608 0.69194133
vn 0.57477224 0.58247210 0.57477224
vn 0.97855282 0.20599608 1.5255040e-16
vn 0.81285070 0.58247210 7.4714830e-17
vn 0.69194133 0.20599608 -0.69194133
vn 0.57477224 0.58247210 -0.57477224
vn -1.5255040e-16 0.20599608 -0.97855282
vn -8.9657796e-17 0.58247210 -0.81285070
vn -0.69194133 0.20599608 -0.69194133
vn -0.57477224 0.58247210 -0.57477224
vn -0.97855282 0.20599608 4.4239615e-16
vn -0.81285070 0.58247210 3.5863119e-16
vn -0.69194133 0.20599608 0.69194133
vn -0.57477224 0.58247210 0.57477224
vn 6.1020158e-17 0.20599608 0.97855282
vn 5.9771864e-17 0.58247210 0.81285070
vn 0.36895257 0.85308147 0.36895257
vn 0.52177773 0.85308147 -3.6221955e-17
vn 0.36895257 0.85308147 -0.36895257
vn -8.6932693e-17 0.85308147 -0.52177773
vn -0.36895257 0.85308147 -0.36895257
vn -0.52177773 0.85308147 1.9559856e-16
vn -0.36895257 0.85308147 0.36895257
vn 7.2443911e-17 0.85308147 0.52177773
vn 0.16673160 0.97180304 0.16673160
vn 0.23579410 0.97180304 -8.6942033e-16
vn 0.16673160 0.97180304 -0.16673160
vn -5.6701326e-17 0.97180304 -0.23579410
vn -0.16673160 0.97180304 -0.16673160
vn -0.23579410 0.97180304 -7.7491812e-16
vn -0.16673160 0.97180304 0.16673160
vn 3.7800884e-17 0.97180304 0.23579410
vn 0.66023410 0.35802495 -0.66023410
vn 0.45820236 0.75849036 -0.46340369
vn 4.6469570e-17 0.35802495 -0.93371202
vn -0.66023410 0.35802495 -0.66023410
vn -0.45820236 0.75849036 -0.46340369
vn -0.93371202 0.35802495 1.3940871e-16
vn -0.65097275 0.75910110 0.0000000e+0
vn -0.66023410 0.35802495 0.66023410
vn -0.46030725 0.75910110 0.46030725
vn 1.2546784e-15 0.35802495 0.93371202
vn 1.8811753e-2 0.75576848 0.65456865
vn 0.66023410 0.35802495 0.66023410
vn 0.93371202 0.35802495 8.9841169e-16
vn 0.65456865 0.75576848 1.8811753e-2
vn -0.33001386 0.72879881 -0.59995262
vn 0.33001386 0.72879881 -0.59995262
vn 0.18504009 -0.93876619 -0.29065134
vn -0.18504009 -0.93876619 -0.29065134
vn -0.57395703 -0.42639914 -0.69911165
vn 0.40304061 -0.74623435 -0.52980426
vn -0.61107947 0.25654829 -0.74884234
vn -0.40304061 -0.74623435 -0.52980426
vn 0.61107947 0.25654829 -0.74884234
vn 0.57395703 -0.42639914 -0.69911165
vn 0.40126306 0.77438934 -0.48919229
vn -0.40126306 0.77438934 -0.48919229
vn 0.65595978 0.74366966 0.12912091
vn 0.12912091 0.74366966 0.65595978
vn 1.4243621e-2 -0.91919499 0.39354502
vn 0.39354502 -0.91919499 1.4243621e-2
vn -1.2259479e-2 -0.41130656 0.91141462
vn 0.91141462 -0.41130656 -1.2259479e-2
vn 0.96826322 0.24948078 1.5022812e-2
vn 0.70741565 -0.70676168 -7.1432663e-3
vn 1.5022812e-2 0.24948078 0.96826322
vn -7.1432663e-3 -0.70676168 0.70741565
vn 2.3624659e-2 0.74864155 0.66255393
vn 0.66255393 0.74864155 2.3624659e-2
vn 5.9273780e-2 0.81694832 0.57365675
vn 0.57365675 0.81694832 5.9273780e-2
vn 0.20228042 0.31057954 0.92877499
vn 0.92877499 0.31057954 0.20228042
vn 0.15408559 -0.48330663 0.86178439
vn 0.86178439 -0.48330663 0.15408559
vn 2.5282050e-2 -0.81290532 0.58184685
vn 0.58184685 -0.81290532 2.5282050e-2
vn -1.7406273e-4 -0.95355307 0.30122501
vn 0.30122501 -0.95355307 -1.7406273e-4
vn 0.28173686 0.70969592 0.64572133
vn 0.60974152 0.50638972 0.60974152
vn 0.64572133 0.70969592 0.28173686
vn 0.28925253 0.83875160 -0.46133364
vn -0.28925253 0.83875160 -0.46133364
vn 0.43021775 0.31674340 -0.84533207
vn -0.43021775 0.31674340 -0.84533207
vn 0.39744376 -0.49188498 -0.77465323
vn -0.39744376 -0.49188498 -0.77465323
vn 0.26904646 -0.82493899 -0.49708114
vn -0.26904646 -0.82493899 -0.49708114
vn 0.12147418 -0.95846572 -0.25804550
vn -0.12147418 -0.95846572 -0.25804550
vn 0.21526046 0.72276404 -0.65671537
vn 1.5556752e-16 0.50638972 -0.86230473
vn -0.21526046 0.72276404 -0.65671537
vn 0.34678440 0.42286796 -0.83721160
vn -0.34678440 0.42286796 -0.83721160
g Cylinder1_default
usemtl default
s 1
f 1//1 41//41 39//39 2//2
f 1//1 83//83 71//71 8//8
f 2//2 39//39 53//53 3//3
f 2//2 82//82 83//83 1//1
f 3//3 53//53 51//51 4//4
f 3//3 80//80 82//82 2//2
f 4//4 51//51 49//49 5//5
f 4//4 78//78 80//80 3//3
f 5//5 49//49 47//47 6//6
f 5//5 76//76 78//78 4//4
f 6//6 47//47 45//45 7//7
f 6//6 74//74 76//76 5//5
f 7//7 45//45 43//43 8//8
f 7//7 73//73 136//136 74//74 6//6
f 8//8 43//43 41//41 1//1
f 8//8 71//71 135//135 73//73 7//7
f 9//9 15//15 25//25 14//14
f 9//9 84//84 97//97 108//108
f 10//10 81//81 79//79 11//11
f 10//10 107//107 98//98 81//81
f 11//11 19//19 17//17 10//10
f 11//11 79//79 77//77 12//12
f 12//12 21//21 19//19 11//11
f 12//12 77//77 75//75 13//13
f 13//13 23//23 21//21 12//12
f 13//13 75//75 85//85 96//96
f 14//14 72//72 84//84 9//9
f 14//14 95//95 86//86 72//72
f 15//15 103//103 102//102 16//16
f 16//16 26//26 25//25 15//15
f 16//16 102//102 104//104 27//27
f 17//17 19//19 20//20 18//18
f 17//17 105//105 107//107 10//10
f 18//18 20//20 29//29 28//28
f 18//18 101//101 105//105 17//17
f 20//20 22//22 30//30 29//29
f 21//21 23//23 24//24 22//22
f 22//22 20//20 19//19 21//21
f 22//22 24//24 31//31 30//30
f 23//23 91//91 89//89 24//24
f 24//24 89//89 92//92 31//31
f 25//25 93//93 95//95 14//14
f 26//26 94//94 93//93 25//25
f 27//27 32//32 26//26 16//16
f 28//28 29//29 35//35 34//34
f 28//28 106//106 101//101 18//18
f 29//29 30//30 36//36 35//35
f 30//30 31//31 37//37 36//36
f 31//31 92//92 88//88 37//37
f 32//32 27//27 33//33 38//38
f 32//32 90//90 94//94 26//26
f 34//34 35//35 36//36 37//37 88//88 131//131 130//130 87//87 38//38 33//33 100//100 118//118 117//117 99//99
f 34//34 99//99 106//106 28//28
f 38//38 87//87 90//90 32//32
f 40//40 42//42 56//56 55//55
f 41//41 43//43 44//44 42//42
f 42//42 40//40 39//39 41//41
f 42//42 44//44 57//57 56//56
f 43//43 45//45 46//46 44//44
f 44//44 46//46 58//58 57//57
f 46//46 48//48 59//59 58//58
f 47//47 49//49 50//50 48//48
f 48//48 46//46 45//45 47//47
f 48//48 50//50 60//60 59//59
f 50//50 52//52 61//61 60//60
f 51//51 53//53 54//54 52//52
f 52//52 50//50 49//49 51//51
f 52//52 54//54 62//62 61//61
f 53//53 39//39 40//40 54//54
f 55//55 62//62 54//54 40//40
f 56//56 57//57 65//65 64//64
f 57//57 58//58 66//66 65//65
f 58//58 59//59 67//67 66//66
f 59//59 60//60 68//68 67//67
f 60//60 61//61 69//69 68//68
f 61//61 62//62 70//70 69//69
f 62//62 55//55 63//63 70//70
f 64//64 63//63 55//55 56//56
f 64//64 65//65 66//66 67//67 68//68 69//69 70//70 63//63
f 71//71 83//83 84//84 72//72
f 72//72 86//86 135//135 71//71
f 73//73 135//135 86//86 132//132 133//133
f 74//74 136//136 85//85 75//75
f 75//75 77//77 76//76 74//74
f 77//77 79//79 78//78 76//76
f 79//79 81//81 80//80 78//78
f 81//81 98//98 119//119 120//120 82//82 80//80
f 86//86 95//95 122//122 132//132
f 91//91 96//96 123//123 125//125
f 92//92 89//89 127//127 129//129
f 93//93 124//124 122//122 95//95
f 94//94 90//90 128//128 126//126
f 96//96 85//85 134//134 123//123
f 96//96 91//91 23//23 13//13
f 98//98 107//107 109//109 119//119
f 101//101 106//106 115//115 113//113
f 103//103 108//108 110//110 112//112
f 104//104 100//100 33//33 27//27
f 104//104 102//102 114//114 116//116
f 105//105 111//111 109//109 107//107
f 108//108 97//97 121//121 110//110
f 108//108 103//103 15//15 9//9
f 109//109 111//111 112//112 110//110
f 110//110 121//121 119//119 109//109
f 111//111 113//113 114//114 112//112
f 112//112 114//114 102//102 103//103
f 113//113 111//111 105//105 101//101
f 113//113 115//115 116//116 114//114
f 115//115 117//117 118//118 116//116
f 116//116 118//118 100//100 104//104
f 117//117 115//115 106//106 99//99
f 120//120 119//119 121//121
f 120//120 121//121 97//97 84//84 83//83 82//82
f 122//122 124//124 125//125 123//123
f 123//123 134//134 132//132 122//122
f 124//124 126//126 127//127 125//125
f 125//125 127//127 89//89 91//91
f 126//126 124//124 93//93 94//94
f 126//126 128//128 129//129 127//127
f 128//128 130//130 131//131 129//129
f 129//129 131//131 88//88 92//92
f 130//130 128//128 90//90 87//87
f 132//132 134//134 133//133
f 133//133 134//134 85//85 136//136 73//73
