# Exported from Wings 3D 1.5.3
mtllib VineSegment.mtl
o Cube3
#13 vertices, 12 faces
v 0.0000000e+0 -1.62959039 -3.2000000e-3
v 0.0000000e+0 -1.62959039 2.00320000
v 0.0000000e+0 -0.15282973 -3.2000000e-3
v 0.0000000e+0 -0.15282973 2.00320000
v -4.1040000e-2 -0.15282973 0.49840000
v -4.1040000e-2 -0.15282973 1.00000000
v -4.1040000e-2 -0.15282973 1.50160000
v 0.0000000e+0 -1.75173926 0.49840000
v 0.0000000e+0 -1.79812491 1.00000000
v 0.0000000e+0 -1.75173926 1.50160000
v 4.1040000e-2 -0.15282973 0.49840000
v 4.1040000e-2 -0.15282973 1.00000000
v 4.1040000e-2 -0.15282973 1.50160000
vt 2.7522936e-3 6.9449376e-4
vt 2.7522936e-3 7.6436094e-4
vt 2.7522936e-3 0.99694050
vt 2.7522936e-3 0.99751828
vt 0.25137615 7.3330886e-4
vt 0.25137615 0.99694050
vt 0.25137615 6.8673074e-4
vt 0.25137615 0.99751828
vt 0.50000000 6.8673074e-4
vt 0.50000000 7.3330886e-4
vt 0.50000000 0.99694050
vt 0.50000000 0.99751828
vt 0.74862385 6.8673074e-4
vt 0.74862385 7.3330886e-4
vt 0.74862385 0.99694050
vt 0.74862385 0.99751828
vt 0.99724771 6.9449376e-4
vt 0.99724771 7.6436094e-4
vt 0.99724771 0.99694050
vt 0.99724771 0.99751828
vn 0.99900789 -1.3330195e-2 -4.2491579e-2
vn -0.99900789 -1.3330195e-2 -4.2491579e-2
vn -0.99900789 -1.3330195e-2 4.2491579e-2
vn 0.99900789 -1.3330195e-2 4.2491579e-2
vn 0.0000000e+0 1.00000000 0.0000000e+0
vn 0.99900789 -1.3330195e-2 -4.2491579e-2
vn -0.99900789 -1.3330195e-2 -4.2491579e-2
vn -0.99900789 -1.3330195e-2 4.2491579e-2
vn 0.99900789 -1.3330195e-2 4.2491579e-2
vn 0.0000000e+0 1.00000000 0.0000000e+0
vn 0.0000000e+0 1.00000000 0.0000000e+0
vn 0.0000000e+0 1.00000000 0.0000000e+0
vn -0.99957496 -1.9315762e-2 -2.1835573e-2
vn -0.99957496 -1.9315762e-2 -2.1835573e-2
vn 0.0000000e+0 1.00000000 0.0000000e+0
vn 0.0000000e+0 1.00000000 0.0000000e+0
vn -0.99968010 -2.5292406e-2 0.0000000e+0
vn -0.99968010 -2.5292406e-2 0.0000000e+0
vn -0.99957496 -1.9315762e-2 2.1835573e-2
vn 0.0000000e+0 1.00000000 0.0000000e+0
vn -0.99957496 -1.9315762e-2 2.1835573e-2
vn 0.0000000e+0 1.00000000 0.0000000e+0
vn 0.99957496 -1.9315762e-2 -2.1835573e-2
vn 0.99957496 -1.9315762e-2 -2.1835573e-2
vn -0.99957496 -1.9315762e-2 -2.1835573e-2
vn -0.99957496 -1.9315762e-2 -2.1835573e-2
vn 0.99968010 -2.5292406e-2 0.0000000e+0
vn 0.99968010 -2.5292406e-2 0.0000000e+0
vn -0.99968010 -2.5292406e-2 0.0000000e+0
vn -0.99968010 -2.5292406e-2 0.0000000e+0
vn -0.99957496 -1.9315762e-2 2.1835573e-2
vn 0.99957496 -1.9315762e-2 2.1835573e-2
vn 0.99957496 -1.9315762e-2 2.1835573e-2
vn -0.99957496 -1.9315762e-2 2.1835573e-2
vn 0.0000000e+0 1.00000000 0.0000000e+0
vn 0.99957496 -1.9315762e-2 -2.1835573e-2
vn 0.0000000e+0 1.00000000 0.0000000e+0
vn 0.99957496 -1.9315762e-2 -2.1835573e-2
vn 0.0000000e+0 1.00000000 0.0000000e+0
vn 0.0000000e+0 1.00000000 0.0000000e+0
vn 0.99968010 -2.5292406e-2 0.0000000e+0
vn 0.99968010 -2.5292406e-2 0.0000000e+0
vn 0.0000000e+0 1.00000000 0.0000000e+0
vn 0.99957496 -1.9315762e-2 2.1835573e-2
vn 0.99957496 -1.9315762e-2 2.1835573e-2
vn 0.0000000e+0 1.00000000 0.0000000e+0
g Cube3_Cube3_auv
usemtl Cube3_auv
s 1
f 2/19/4 10/15/33 13/14/45 4/17/9
f 3/1/6 11/5/36 8/6/23 1/3/1
f 8/6/24 11/5/38 12/10/41 9/11/27
f 9/11/28 12/10/42 13/14/44 10/15/32
s 2
f 4//10 13//46 7//22
f 5//11 11//35 3//5
f 6//15 12//39 11//37 5//12
f 7//20 13//43 12//40 6//16
s 3
f 1/4/2 8/8/26 5/7/14 3/2/7
f 4/18/8 7/13/19 10/16/31 2/20/3
f 5/7/13 8/8/25 9/12/30 6/9/18
f 6/9/17 9/12/29 10/16/34 7/13/21
o Cylinder1
#160 vertices, 146 faces
v 0.17200000 6.3130127e-17 0.0000000e+0
v 0.15890728 6.5821550e-2 0.0000000e+0
v 0.12162237 0.12162237 0.0000000e+0
v 6.5821550e-2 0.15890728 0.0000000e+0
v -2.6813165e-17 0.17200000 0.0000000e+0
v -6.5821550e-2 0.15890728 0.0000000e+0
v -0.12162237 0.12162237 0.0000000e+0
v -0.15890728 6.5821550e-2 0.0000000e+0
v -0.17200000 8.4194052e-17 0.0000000e+0
v -0.15890728 -6.5821550e-2 0.0000000e+0
v -0.12162237 -0.12162237 0.0000000e+0
v -6.5821550e-2 -0.15890728 0.0000000e+0
v -6.8941014e-17 -0.17200000 0.0000000e+0
v 6.5821550e-2 -0.15890728 0.0000000e+0
v 0.12162237 -0.12162237 0.0000000e+0
v 0.15890728 -6.5821550e-2 0.0000000e+0
v 0.17200000 -5.9334552e-17 2.00000000
v 0.15890728 6.5821550e-2 2.00000000
v 0.12162237 0.12162237 2.00000000
v 6.5821550e-2 0.15890728 2.00000000
v -2.6813165e-17 0.17200000 2.00000000
v -6.5821550e-2 0.15890728 2.00000000
v -0.12162237 0.12162237 2.00000000
v -0.15890728 6.5821550e-2 2.00000000
v -0.17200000 -3.8270628e-17 2.00000000
v -0.15890728 -6.5821550e-2 2.00000000
v -0.12162237 -0.12162237 2.00000000
v -6.5821550e-2 -0.15890728 2.00000000
v -6.8941014e-17 -0.17200000 2.00000000
v 6.5821550e-2 -0.15890728 2.00000000
v 0.12162237 -0.12162237 2.00000000
v 0.15890728 -6.5821550e-2 2.00000000
v 3.5432000e-2 -5.7865879e-17 2.16357786
v 3.2734900e-2 1.3559239e-2 2.16357786
v 2.5054207e-2 2.5054207e-2 2.16357786
v 1.3559239e-2 3.2734900e-2 2.16357786
v -4.1335143e-17 3.5432000e-2 2.16357786
v -1.3559239e-2 3.2734900e-2 2.16357786
v -2.5054207e-2 2.5054207e-2 2.16357786
v -3.2734900e-2 1.3559239e-2 2.16357786
v -3.5432000e-2 -5.3526710e-17 2.16357786
v -3.2734900e-2 -1.3559239e-2 2.16357786
v -2.5054207e-2 -2.5054207e-2 2.16357786
v -1.3559239e-2 -3.2734900e-2 2.16357786
v -5.0013480e-17 -3.5432000e-2 2.16357786
v 1.3559239e-2 -3.2734900e-2 2.16357786
v 2.5054207e-2 -2.5054207e-2 2.16357786
v 3.2734900e-2 -1.3559239e-2 2.16357786
v 3.2734900e-2 1.3559239e-2 -0.16357786
v 3.5432000e-2 6.5344883e-17 -0.16357786
v 3.2734900e-2 -1.3559239e-2 -0.16357786
v 2.5054207e-2 -2.5054207e-2 -0.16357786
v 1.3559239e-2 -3.2734900e-2 -0.16357786
v -3.6795351e-17 -3.5432000e-2 -0.16357786
v -1.3559239e-2 -3.2734900e-2 -0.16357786
v -2.5054207e-2 -2.5054207e-2 -0.16357786
v -3.2734900e-2 -1.3559239e-2 -0.16357786
v -3.5432000e-2 6.9684052e-17 -0.16357786
v -3.2734900e-2 1.3559239e-2 -0.16357786
v -2.5054207e-2 2.5054207e-2 -0.16357786
v -1.3559239e-2 3.2734900e-2 -0.16357786
v -2.8117014e-17 3.5432000e-2 -0.16357786
v 1.3559239e-2 3.2734900e-2 -0.16357786
v 2.5054207e-2 2.5054207e-2 -0.16357786
v 9.2468286e-2 9.2468286e-2 -0.10437571
v 5.0043476e-2 0.12081564 -0.10437571
v -2.6970324e-17 0.13076990 -0.10437571
v -5.0043476e-2 0.12081564 -0.10437571
v -9.2468286e-2 9.2468286e-2 -0.10437571
v -0.12081564 5.0043476e-2 -0.10437571
v -0.13076990 8.6834354e-17 -0.10437571
v -0.12081564 -5.0043476e-2 -0.10437571
v -9.2468286e-2 -9.2468286e-2 -0.10437571
v -5.0043476e-2 -0.12081564 -0.10437571
v -5.2868183e-17 -0.13076990 -0.10437571
v 5.0043476e-2 -0.12081564 -0.10437571
v 9.2468286e-2 -9.2468286e-2 -0.10437571
v 0.12081564 -5.0043476e-2 -0.10437571
v 0.13076990 6.5721801e-17 -0.10437571
v 0.12081564 5.0043476e-2 -0.10437571
v 0.12081564 -5.0043476e-2 2.10437571
v 9.2468286e-2 -9.2468286e-2 2.10437571
v 5.0043476e-2 -0.12081564 2.10437571
v -5.9477247e-17 -0.13076990 2.10437571
v -5.0043476e-2 -0.12081564 2.10437571
v -9.2468286e-2 -9.2468286e-2 2.10437571
v -0.12081564 -5.0043476e-2 2.10437571
v -0.13076990 -4.2930078e-17 2.10437571
v -0.12081564 5.0043476e-2 2.10437571
v -9.2468286e-2 9.2468286e-2 2.10437571
v -5.0043476e-2 0.12081564 2.10437571
v -3.4074154e-17 0.13076990 2.10437571
v 5.0043476e-2 0.12081564 2.10437571
v 9.2468286e-2 9.2468286e-2 2.10437571
v 0.12081564 5.0043476e-2 2.10437571
v 0.13076990 -5.8600216e-17 2.10437571
v 8.9152502e-2 -5.8393118e-17 2.14372207
v 8.2366172e-2 3.4117185e-2 2.14372207
v 6.3040339e-2 6.3040339e-2 2.14372207
v 3.4117185e-2 8.2366172e-2 2.14372207
v -3.7624613e-17 8.9152502e-2 2.14372207
v -3.4117185e-2 8.2366172e-2 2.14372207
v -6.3040339e-2 6.3040339e-2 2.14372207
v -8.2366172e-2 3.4117185e-2 2.14372207
v -8.9152502e-2 -4.6467612e-17 2.14372207
v -8.2366172e-2 -3.4117185e-2 2.14372207
v -6.3040339e-2 -6.3040339e-2 2.14372207
v -3.4117185e-2 -8.2366172e-2 2.14372207
v -5.5065506e-17 -8.9152502e-2 2.14372207
v 3.4117185e-2 -8.2366172e-2 2.14372207
v 6.3040339e-2 -6.3040339e-2 2.14372207
v 8.2366172e-2 -3.4117185e-2 2.14372207
v 8.2366172e-2 3.4117185e-2 -0.14372207
v 8.9152502e-2 6.5133164e-17 -0.14372207
v 8.2366172e-2 -3.4117185e-2 -0.14372207
v 6.3040339e-2 -6.3040339e-2 -0.14372207
v 3.4117185e-2 -8.2366172e-2 -0.14372207
v -4.4991838e-17 -8.9152502e-2 -0.14372207
v -3.4117185e-2 -8.2366172e-2 -0.14372207
v -6.3040339e-2 -6.3040339e-2 -0.14372207
v -8.2366172e-2 -3.4117185e-2 -0.14372207
v -8.9152502e-2 7.9939949e-17 -0.14372207
v -8.2366172e-2 3.4117185e-2 -0.14372207
v -6.3040339e-2 6.3040339e-2 -0.14372207
v -3.4117185e-2 8.2366172e-2 -0.14372207
v -2.7383598e-17 8.9152502e-2 -0.14372207
v 3.4117185e-2 8.2366172e-2 -0.14372207
v 6.3040339e-2 6.3040339e-2 -0.14372207
v 0.11450438 0.11450438 -5.6354763e-2
v 6.1969326e-2 0.14960719 -5.6354763e-2
v -2.6571602e-17 0.16193365 -5.6354763e-2
v -6.1969326e-2 0.14960719 -5.6354763e-2
v -0.11450438 0.11450438 -5.6354763e-2
v -0.14960719 6.1969326e-2 -5.6354763e-2
v -0.16193365 8.6954843e-17 -5.6354763e-2
v -0.14960719 -6.1969326e-2 -5.6354763e-2
v -0.11450438 -0.11450438 -5.6354763e-2
v -6.1969326e-2 -0.14960719 -5.6354763e-2
v -6.0904599e-17 -0.16193365 -5.6354763e-2
v 6.1969326e-2 -0.14960719 -5.6354763e-2
v 0.11450438 -0.11450438 -5.6354763e-2
v 0.14960719 -6.1969326e-2 -5.6354763e-2
v 0.16193365 6.2665182e-17 -5.6354763e-2
v 0.14960719 6.1969326e-2 -5.6354763e-2
v 0.14960719 -6.1969326e-2 2.05635476
v 0.11450438 -0.11450438 2.05635476
v 6.1969326e-2 -0.14960719 2.05635476
v -6.4689344e-17 -0.16193365 2.05635476
v -6.1969326e-2 -0.14960719 2.05635476
v -0.11450438 -0.11450438 2.05635476
v -0.14960719 -6.1969326e-2 2.05635476
v -0.16193365 -3.8839571e-17 2.05635476
v -0.14960719 6.1969326e-2 2.05635476
v -0.11450438 0.11450438 2.05635476
v -6.1969326e-2 0.14960719 2.05635476
v -3.0123517e-17 0.16193365 2.05635476
v 6.1969326e-2 0.14960719 2.05635476
v 0.11450438 0.11450438 2.05635476
v 0.14960719 6.1969326e-2 2.05635476
v 0.16193365 -5.9287526e-17 2.05635476
vn 0.99609471 -8.5205583e-17 -8.8291176e-2
vn 0.92027151 0.38118894 -8.8291176e-2
vn 0.70434532 0.70434532 -8.8291176e-2
vn 0.38118894 0.92027151 -8.8291176e-2
vn 1.4200930e-17 0.99609471 -8.8291176e-2
vn -0.38118894 0.92027151 -8.8291176e-2
vn -0.70434532 0.70434532 -8.8291176e-2
vn -0.92027151 0.38118894 -8.8291176e-2
vn -0.99609471 1.4200930e-16 -8.8291176e-2
vn -0.92027151 -0.38118894 -8.8291176e-2
vn -0.70434532 -0.70434532 -8.8291176e-2
vn -0.38118894 -0.92027151 -8.8291176e-2
vn 2.1301396e-17 -0.99609471 -8.8291176e-2
vn 0.38118894 -0.92027151 -8.8291176e-2
vn 0.70434532 -0.70434532 -8.8291176e-2
vn 0.92027151 -0.38118894 -8.8291176e-2
vn 0.99609471 -6.3904187e-17 8.8291176e-2
vn 0.92027151 0.38118894 8.8291176e-2
vn 0.70434532 0.70434532 8.8291176e-2
vn 0.38118894 0.92027151 8.8291176e-2
vn 2.8401861e-17 0.99609471 8.8291176e-2
vn -0.38118894 0.92027151 8.8291176e-2
vn -0.70434532 0.70434532 8.8291176e-2
vn -0.92027151 0.38118894 8.8291176e-2
vn -0.99609471 1.7751163e-16 8.8291176e-2
vn -0.92027151 -0.38118894 8.8291176e-2
vn -0.70434532 -0.70434532 8.8291176e-2
vn -0.38118894 -0.92027151 8.8291176e-2
vn 0.0000000e+0 -0.99609471 8.8291176e-2
vn 0.38118894 -0.92027151 8.8291176e-2
vn 0.70434532 -0.70434532 8.8291176e-2
vn 0.92027151 -0.38118894 8.8291176e-2
vn 0.23419630 -4.6985080e-18 0.97218933
vn 0.21636917 8.9623044e-2 0.97218933
vn 0.16560179 0.16560179 0.97218933
vn 8.9623044e-2 0.21636917 0.97218933
vn 4.6985080e-18 0.23419630 0.97218933
vn -8.9623044e-2 0.21636917 0.97218933
vn -0.16560179 0.16560179 0.97218933
vn -0.21636917 8.9623044e-2 0.97218933
vn -0.23419630 5.6382096e-17 0.97218933
vn -0.21636917 -8.9623044e-2 0.97218933
vn -0.16560179 -0.16560179 0.97218933
vn -8.9623044e-2 -0.21636917 0.97218933
vn 0.0000000e+0 -0.23419630 0.97218933
vn 8.9623044e-2 -0.21636917 0.97218933
vn 0.16560179 -0.16560179 0.97218933
vn 0.21636917 -8.9623044e-2 0.97218933
vn 0.21636917 8.9623044e-2 -0.97218933
vn 0.23419630 -3.7588064e-17 -0.97218933
vn 0.21636917 -8.9623044e-2 -0.97218933
vn 0.16560179 -0.16560179 -0.97218933
vn 8.9623044e-2 -0.21636917 -0.97218933
vn -7.5176128e-17 -0.23419630 -0.97218933
vn -8.9623044e-2 -0.21636917 -0.97218933
vn -0.16560179 -0.16560179 -0.97218933
vn -0.21636917 -8.9623044e-2 -0.97218933
vn -0.23419630 9.8668669e-17 -0.97218933
vn -0.21636917 8.9623044e-2 -0.97218933
vn -0.16560179 0.16560179 -0.97218933
vn -8.9623044e-2 0.21636917 -0.97218933
vn -2.8191048e-17 0.23419630 -0.97218933
vn 8.9623044e-2 0.21636917 -0.97218933
vn 0.16560179 0.16560179 -0.97218933
vn 0.54318182 0.54318182 -0.64023981
vn 0.29396788 0.70970125 -0.64023981
vn 7.0689750e-18 0.76817510 -0.64023981
vn -0.29396788 0.70970125 -0.64023981
vn -0.54318182 0.54318182 -0.64023981
vn -0.70970125 0.29396788 -0.64023981
vn -0.76817510 1.6965540e-16 -0.64023981
vn -0.70970125 -0.29396788 -0.64023981
vn -0.54318182 -0.54318182 -0.64023981
vn -0.29396788 -0.70970125 -0.64023981
vn -7.0689750e-17 -0.76817510 -0.64023981
vn 0.29396788 -0.70970125 -0.64023981
vn 0.54318182 -0.54318182 -0.64023981
vn 0.70970125 -0.29396788 -0.64023981
vn 0.76817510 -1.4137950e-16 -0.64023981
vn 0.70970125 0.29396788 -0.64023981
vn 0.70970125 -0.29396788 0.64023981
vn 0.54318182 -0.54318182 0.64023981
vn 0.29396788 -0.70970125 0.64023981
vn -5.6551800e-17 -0.76817510 0.64023981
vn -0.29396788 -0.70970125 0.64023981
vn -0.54318182 -0.54318182 0.64023981
vn -0.70970125 -0.29396788 0.64023981
vn -0.76817510 1.7672438e-16 0.64023981
vn -0.70970125 0.29396788 0.64023981
vn -0.54318182 0.54318182 0.64023981
vn -0.29396788 0.70970125 0.64023981
vn 1.4137950e-17 0.76817510 0.64023981
vn 0.29396788 0.70970125 0.64023981
vn 0.54318182 0.54318182 0.64023981
vn 0.70970125 0.29396788 0.64023981
vn 0.76817510 -2.8275900e-17 0.64023981
vn 0.52693839 -1.0685473e-17 0.84990349
vn 0.48682759 0.20165059 0.84990349
vn 0.37260171 0.37260171 0.84990349
vn 0.20165059 0.48682759 0.84990349
vn 1.0685473e-17 0.52693839 0.84990349
vn -0.20165059 0.48682759 0.84990349
vn -0.37260171 0.37260171 0.84990349
vn -0.48682759 0.20165059 0.84990349
vn -0.52693839 1.3534933e-16 0.84990349
vn -0.48682759 -0.20165059 0.84990349
vn -0.37260171 -0.37260171 0.84990349
vn -0.20165059 -0.48682759 0.84990349
vn -2.8494596e-17 -0.52693839 0.84990349
vn 0.20165059 -0.48682759 0.84990349
vn 0.37260171 -0.37260171 0.84990349
vn 0.48682759 -0.20165059 0.84990349
vn 0.48682759 0.20165059 -0.84990349
vn 0.52693839 -8.5483788e-17 -0.84990349
vn 0.48682759 -0.20165059 -0.84990349
vn 0.37260171 -0.37260171 -0.84990349
vn 0.20165059 -0.48682759 -0.84990349
vn -8.5483788e-17 -0.52693839 -0.84990349
vn -0.20165059 -0.48682759 -0.84990349
vn -0.37260171 -0.37260171 -0.84990349
vn -0.48682759 -0.20165059 -0.84990349
vn -0.52693839 1.8877670e-16 -0.84990349
vn -0.48682759 0.20165059 -0.84990349
vn -0.37260171 0.37260171 -0.84990349
vn -0.20165059 0.48682759 -0.84990349
vn 1.4247298e-17 0.52693839 -0.84990349
vn 0.20165059 0.48682759 -0.84990349
vn 0.37260171 0.37260171 -0.84990349
vn 0.65752277 0.65752277 -0.36786903
vn 0.35584876 0.85909489 -0.36786903
vn 1.4390664e-17 0.92987761 -0.36786903
vn -0.35584876 0.85909489 -0.36786903
vn -0.65752277 0.65752277 -0.36786903
vn -0.85909489 0.35584876 -0.36786903
vn -0.92987761 1.0792998e-16 -0.36786903
vn -0.85909489 -0.35584876 -0.36786903
vn -0.65752277 -0.65752277 -0.36786903
vn -0.35584876 -0.85909489 -0.36786903
vn 7.1953319e-18 -0.92987761 -0.36786903
vn 0.35584876 -0.85909489 -0.36786903
vn 0.65752277 -0.65752277 -0.36786903
vn 0.85909489 -0.35584876 -0.36786903
vn 0.92987761 -1.4390664e-16 -0.36786903
vn 0.85909489 0.35584876 -0.36786903
vn 0.85909489 -0.35584876 0.36786903
vn 0.65752277 -0.65752277 0.36786903
vn 0.35584876 -0.85909489 0.36786903
vn -2.8781328e-17 -0.92987761 0.36786903
vn -0.35584876 -0.85909489 0.36786903
vn -0.65752277 -0.65752277 0.36786903
vn -0.85909489 -0.35584876 0.36786903
vn -0.92987761 1.7268797e-16 0.36786903
vn -0.85909489 0.35584876 0.36786903
vn -0.65752277 0.65752277 0.36786903
vn -0.35584876 0.85909489 0.36786903
vn 3.5976659e-17 0.92987761 0.36786903
vn 0.35584876 0.85909489 0.36786903
vn 0.65752277 0.65752277 0.36786903
vn 0.85909489 0.35584876 0.36786903
vn 0.92987761 -5.7562655e-17 0.36786903
g Cylinder1_default
usemtl default
s 1
f 14//47 30//63 45//78 29//62
f 14//47 156//189 157//190 15//48
f 15//48 31//64 30//63 14//47
f 15//48 157//190 142//175 16//49
f 16//49 32//65 31//64 15//48
f 16//49 142//175 143//176 17//50
f 17//50 33//66 32//65 16//49
f 17//50 143//176 144//177 18//51
f 18//51 34//67 33//66 17//50
f 18//51 144//177 145//178 19//52
f 19//52 35//68 34//67 18//51
f 19//52 145//178 146//179 20//53
f 20//53 36//69 35//68 19//52
f 20//53 146//179 147//180 21//54
f 21//54 37//70 36//69 20//53
f 21//54 147//180 148//181 22//55
f 22//55 38//71 37//70 21//54
f 22//55 148//181 149//182 23//56
f 23//56 39//72 38//71 22//55
f 23//56 149//182 150//183 24//57
f 24//57 40//73 39//72 23//56
f 24//57 150//183 151//184 25//58
f 25//58 41//74 40//73 24//57
f 25//58 151//184 152//185 26//59
f 26//59 42//75 41//74 25//58
f 26//59 152//185 153//186 27//60
f 27//60 43//76 42//75 26//59
f 27//60 153//186 154//187 28//61
f 28//61 44//77 43//76 27//60
f 28//61 154//187 155//188 29//62
f 29//62 45//78 44//77 28//61
f 29//62 155//188 156//189 14//47
f 30//63 173//206 158//191 45//78
f 31//64 172//205 173//206 30//63
f 32//65 171//204 172//205 31//64
f 33//66 170//203 171//204 32//65
f 34//67 169//202 170//203 33//66
f 35//68 168//201 169//202 34//67
f 36//69 167//200 168//201 35//68
f 37//70 166//199 167//200 36//69
f 38//71 165//198 166//199 37//70
f 39//72 164//197 165//198 38//71
f 40//73 163//196 164//197 39//72
f 41//74 162//195 163//196 40//73
f 42//75 161//194 162//195 41//74
f 43//76 160//193 161//194 42//75
f 44//77 159//192 160//193 43//76
f 45//78 158//191 159//192 44//77
f 46//79 110//143 111//144 47//80
f 47//80 48//81 49//82 50//83 51//84 52//85 53//86 54//87 55//88 56//89 57//90 58//91 59//92 60//93 61//94 46//79
f 47//80 111//144 112//145 48//81
f 48//81 112//145 113//146 49//82
f 49//82 113//146 114//147 50//83
f 50//83 114//147 115//148 51//84
f 51//84 115//148 116//149 52//85
f 52//85 116//149 117//150 53//86
f 53//86 117//150 118//151 54//87
f 54//87 118//151 119//152 55//88
f 55//88 119//152 120//153 56//89
f 56//89 120//153 121//154 57//90
f 57//90 121//154 122//155 58//91
f 58//91 122//155 123//156 59//92
f 59//92 123//156 124//157 60//93
f 60//93 124//157 125//158 61//94
f 61//94 125//158 110//143 46//79
f 62//95 126//159 127//160 63//96
f 63//96 64//97 65//98 66//99 67//100 68//101 69//102 70//103 71//104 72//105 73//106 74//107 75//108 76//109 77//110 62//95
f 63//96 127//160 128//161 64//97
f 64//97 128//161 129//162 65//98
f 65//98 129//162 130//163 66//99
f 66//99 130//163 131//164 67//100
f 67//100 131//164 132//165 68//101
f 68//101 132//165 133//166 69//102
f 69//102 133//166 134//167 70//103
f 70//103 134//167 135//168 71//104
f 71//104 135//168 136//169 72//105
f 72//105 136//169 137//170 73//106
f 73//106 137//170 138//171 74//107
f 74//107 138//171 139//172 75//108
f 75//108 139//172 140//173 76//109
f 76//109 140//173 141//174 77//110
f 77//110 141//174 126//159 62//95
f 78//111 93//126 126//159 141//174
f 78//111 142//175 157//190 93//126
f 79//112 143//176 142//175 78//111
f 80//113 144//177 143//176 79//112
f 81//114 145//178 144//177 80//113
f 82//115 146//179 145//178 81//114
f 83//116 147//180 146//179 82//115
f 84//117 148//181 147//180 83//116
f 85//118 149//182 148//181 84//117
f 86//119 150//183 149//182 85//118
f 87//120 151//184 150//183 86//119
f 88//121 152//185 151//184 87//120
f 89//122 153//186 152//185 88//121
f 90//123 154//187 153//186 89//122
f 91//124 155//188 154//187 90//123
f 92//125 156//189 155//188 91//124
f 93//126 157//190 156//189 92//125
f 94//127 109//142 110//143 125//158
f 94//127 158//191 173//206 109//142
f 95//128 159//192 158//191 94//127
f 96//129 160//193 159//192 95//128
f 97//130 161//194 160//193 96//129
f 98//131 162//195 161//194 97//130
f 99//132 163//196 162//195 98//131
f 100//133 164//197 163//196 99//132
f 101//134 165//198 164//197 100//133
f 102//135 166//199 165//198 101//134
f 103//136 167//200 166//199 102//135
f 104//137 168//201 167//200 103//136
f 105//138 169//202 168//201 104//137
f 106//139 170//203 169//202 105//138
f 107//140 171//204 170//203 106//139
f 108//141 172//205 171//204 107//140
f 109//142 173//206 172//205 108//141
f 111//144 110//143 109//142 108//141
f 112//145 111//144 108//141 107//140
f 113//146 112//145 107//140 106//139
f 114//147 113//146 106//139 105//138
f 115//148 114//147 105//138 104//137
f 116//149 115//148 104//137 103//136
f 117//150 116//149 103//136 102//135
f 118//151 117//150 102//135 101//134
f 119//152 118//151 101//134 100//133
f 120//153 119//152 100//133 99//132
f 121//154 120//153 99//132 98//131
f 122//155 121//154 98//131 97//130
f 123//156 122//155 97//130 96//129
f 124//157 123//156 96//129 95//128
f 125//158 124//157 95//128 94//127
f 127//160 126//159 93//126 92//125
f 128//161 127//160 92//125 91//124
f 129//162 128//161 91//124 90//123
f 130//163 129//162 90//123 89//122
f 131//164 130//163 89//122 88//121
f 132//165 131//164 88//121 87//120
f 133//166 132//165 87//120 86//119
f 134//167 133//166 86//119 85//118
f 135//168 134//167 85//118 84//117
f 136//169 135//168 84//117 83//116
f 137//170 136//169 83//116 82//115
f 138//171 137//170 82//115 81//114
f 139//172 138//171 81//114 80//113
f 140//173 139//172 80//113 79//112
f 141//174 140//173 79//112 78//111
