# Blender v2.75 (sub 0) OBJ File: ''
# www.blender.org
mtllib VineSegmentLo.mtl
g Cylinder1_default
v 0.167614 -0.028992 -0.045163
v 0.167614 0.028992 2.045163
v 0.139021 -0.098021 2.045161
v 0.139021 0.098020 -0.045163
v 0.098021 0.139021 2.045162
v 0.028992 0.167614 -0.045163
v -0.028992 0.167613 2.045163
v -0.098020 0.139021 -0.045163
v -0.139021 0.098020 2.045161
v -0.167614 0.028992 -0.045163
v -0.167614 -0.028992 2.045163
v -0.139021 -0.098020 -0.045163
v -0.098021 -0.139022 2.045162
v -0.028992 -0.167614 -0.045163
v 0.028992 -0.167614 2.045163
v 0.098020 -0.139021 -0.045163
v 0.095292 -0.023439 2.142745
v 0.069653 0.039643 2.150568
v 0.032735 0.013559 2.163578
v 0.013559 0.032735 2.163578
v 0.023441 0.095291 2.142746
v -0.013559 0.032735 2.163578
v -0.032735 0.013559 2.163578
v -0.095290 0.023440 2.142745
v -0.032735 -0.013560 2.163578
v -0.013559 -0.032735 2.163578
v -0.023440 -0.095291 2.142747
v 0.013559 -0.032735 2.163578
v 0.032735 -0.013560 2.163578
v -0.039643 0.069657 2.150570
v -0.069655 -0.039645 2.150569
v 0.039647 -0.069660 2.150572
v 0.032735 0.013559 -0.163578
v 0.077546 0.020144 -0.150661
v 0.032735 -0.013559 -0.163578
v 0.013559 -0.032735 -0.163578
v 0.023440 -0.095291 -0.142746
v -0.013559 -0.032735 -0.163578
v -0.032735 -0.013559 -0.163578
v -0.095291 -0.023440 -0.142746
v -0.032735 0.013559 -0.163578
v -0.013559 0.032735 -0.163578
v -0.023440 0.095291 -0.142746
v 0.013559 0.032735 -0.163578
v 0.069656 -0.039649 -0.150568
v -0.039649 -0.069656 -0.150568
v -0.069656 0.039649 -0.150568
v 0.039649 0.069656 -0.150568
v 0.070518 0.108460 -0.108896
v 0.126557 0.026829 -0.108895
v -0.108459 0.070518 -0.108895
v -0.070518 -0.108460 -0.108896
v 0.108459 -0.070518 -0.108895
v 0.070515 -0.108458 2.108894
v -0.108458 -0.070515 2.108894
v -0.070515 0.108457 2.108894
v 0.108458 0.070514 2.108894
vt 0.002752 0.000694
vn 0.949400 0.151600 0.275000
vn 0.792000 -0.547300 0.270500
vn 0.953100 -0.160300 -0.256600
vn 0.543300 0.794200 0.272300
vn 0.792200 0.553200 -0.257600
vn -0.151600 0.949400 0.275000
vn 0.155300 0.949300 -0.273300
vn -0.794200 0.543300 0.272300
vn -0.540500 0.796600 -0.270600
vn -0.949400 -0.151600 0.275000
vn -0.949300 0.155300 -0.273300
vn -0.543300 -0.794200 0.272300
vn -0.796600 -0.540500 -0.270600
vn 0.151600 -0.949400 0.275000
vn -0.155300 -0.949300 -0.273300
vn 0.540500 -0.796600 -0.270600
vn 0.576600 -0.133800 0.806000
vn 0.433400 0.206600 0.877200
vn 0.176100 0.044400 0.983400
vn 0.129400 0.130100 0.983000
vn 0.164600 0.587600 0.792200
vn 0.029000 0.179000 0.983400
vn -0.199300 0.423100 0.883900
vn -0.130100 0.129400 0.983000
vn -0.587600 0.164600 0.792200
vn -0.179000 0.029000 0.983400
vn -0.423100 -0.199200 0.883900
vn -0.129400 -0.130100 0.983000
vn -0.164600 -0.587600 0.792200
vn -0.029000 -0.179000 0.983400
vn 0.199300 -0.423100 0.883900
vn 0.130200 -0.129400 0.983000
vn 0.454700 0.135800 -0.880200
vn 0.164200 0.014700 -0.986300
vn 0.440200 -0.191500 -0.877200
vn 0.123600 -0.130300 -0.983700
vn 0.163800 -0.587700 -0.792300
vn 0.023000 -0.179100 -0.983600
vn -0.200200 -0.423000 -0.883800
vn -0.136000 -0.129300 -0.982200
vn -0.588100 -0.164500 -0.791900
vn -0.184800 -0.028900 -0.982400
vn -0.423900 0.199200 -0.883600
vn -0.135200 0.130000 -0.982200
vn -0.165300 0.587600 -0.792100
vn -0.034900 0.179000 -0.983200
vn 0.224700 0.423400 -0.877600
vn 0.156800 0.102300 -0.982300
vn 0.654600 -0.417400 -0.630300
vn 0.741400 0.158000 -0.652200
vn 0.428700 0.639500 -0.638200
vn -0.646200 0.421000 -0.636500
vn -0.421000 -0.646200 -0.636500
vn 0.421000 -0.646200 0.636500
vn -0.646200 -0.421000 0.636500
vn -0.421000 0.646200 0.636500
vn 0.646200 0.421000 0.636500
usemtl default
s 1
f 2/1/1 3/1/2 1/1/3
f 5/1/4 2/1/1 4/1/5
f 7/1/6 5/1/4 6/1/7
f 9/1/8 7/1/6 8/1/9
f 11/1/10 9/1/8 10/1/11
f 13/1/12 11/1/10 12/1/13
f 15/1/14 13/1/12 14/1/15
f 3/1/2 15/1/14 16/1/16
f 17/1/17 18/1/18 19/1/19
f 19/1/19 18/1/18 20/1/20 21/1/21 22/1/22 30/1/23 23/1/24 24/1/25 25/1/26 31/1/27 26/1/28 27/1/29 28/1/30 32/1/31 29/1/32 17/1/17
f 21/1/21 30/1/23 22/1/22
f 24/1/25 31/1/27 25/1/26
f 27/1/29 32/1/31 28/1/30
f 34/1/33 35/1/34 45/1/35 36/1/36 37/1/37 38/1/38 46/1/39 39/1/40 40/1/41 41/1/42 47/1/43 42/1/44 43/1/45 44/1/46 48/1/47 33/1/48
f 34/1/33 45/1/35 35/1/34
f 37/1/37 46/1/39 38/1/38
f 40/1/41 47/1/43 41/1/42
f 43/1/45 48/1/47 44/1/46
f 53/1/49 45/1/35 34/1/33 50/1/50
f 49/1/51 6/1/7 4/1/5
f 43/1/45 8/1/9 6/1/7
f 51/1/52 10/1/11 8/1/9
f 40/1/41 12/1/13 10/1/11
f 52/1/53 14/1/15 12/1/13
f 37/1/37 16/1/16 14/1/15
f 53/1/49 1/1/3 16/1/16
f 50/1/50 4/1/5 1/1/3
f 17/1/17 3/1/2 2/1/1
f 54/1/54 15/1/14 3/1/2
f 27/1/29 13/1/12 15/1/14
f 55/1/55 11/1/10 13/1/12
f 24/1/25 9/1/8 11/1/10
f 56/1/56 7/1/6 9/1/8
f 21/1/21 5/1/4 7/1/6
f 57/1/57 2/1/1 5/1/4
f 21/1/21 18/1/18 57/1/57
f 24/1/25 30/1/23 56/1/56
f 27/1/29 31/1/27 55/1/55
f 17/1/17 32/1/31 54/1/54
f 37/1/37 45/1/35 53/1/49
f 48/1/47 49/1/51 50/1/50 34/1/33
f 40/1/41 46/1/39 52/1/53
f 43/1/45 47/1/43 51/1/52
f 4/1/5 2/1/1 1/1/3
f 6/1/7 5/1/4 4/1/5
f 8/1/9 7/1/6 6/1/7
f 10/1/11 9/1/8 8/1/9
f 12/1/13 11/1/10 10/1/11
f 14/1/15 13/1/12 12/1/13
f 16/1/16 15/1/14 14/1/15
f 1/1/3 3/1/2 16/1/16
f 20/1/20 18/1/18 21/1/21
f 23/1/24 30/1/23 24/1/25
f 26/1/28 31/1/27 27/1/29
f 29/1/32 32/1/31 17/1/17
f 36/1/36 45/1/35 37/1/37
f 39/1/40 46/1/39 40/1/41
f 42/1/44 47/1/43 43/1/45
f 33/1/48 48/1/47 34/1/33
f 49/1/51 4/1/5 50/1/50
f 43/1/45 6/1/7 49/1/51
f 51/1/52 8/1/9 43/1/45
f 40/1/41 10/1/11 51/1/52
f 52/1/53 12/1/13 40/1/41
f 37/1/37 14/1/15 52/1/53
f 53/1/49 16/1/16 37/1/37
f 50/1/50 1/1/3 53/1/49
f 54/1/54 3/1/2 17/1/17
f 27/1/29 15/1/14 54/1/54
f 55/1/55 13/1/12 27/1/29
f 24/1/25 11/1/10 55/1/55
f 56/1/56 9/1/8 24/1/25
f 21/1/21 7/1/6 56/1/56
f 57/1/57 5/1/4 21/1/21
f 17/1/17 2/1/1 57/1/57
f 57/1/57 18/1/18 17/1/17
f 56/1/56 30/1/23 21/1/21
f 55/1/55 31/1/27 24/1/25
f 54/1/54 32/1/31 27/1/29
f 52/1/53 46/1/39 37/1/37
f 51/1/52 47/1/43 40/1/41
f 49/1/51 48/1/47 43/1/45
g Cube3_Cube3_auv
v 0.000000 -1.629591 2.003200
v 0.000000 -1.751740 1.501600
v 0.041040 -0.152830 1.501600
v 0.000000 -0.152830 2.003200
v 0.000000 -0.152830 -0.003200
v 0.041040 -0.152830 0.498400
v 0.000000 -1.751739 0.498400
v 0.000000 -1.629590 -0.003200
v 0.041040 -0.152830 1.000000
v 0.000000 -1.798125 1.000000
v -0.041040 -0.152830 1.501600
v -0.041040 -0.152830 0.498400
v -0.041040 -0.152830 1.000000
vt 0.997248 0.996940
vt 0.748624 0.996940
vt 0.748624 0.000733
vt 0.997248 0.000694
vt 0.002752 0.000694
vt 0.251376 0.000733
vt 0.251376 0.996940
vt 0.002752 0.996940
vt 0.500000 0.000733
vt 0.500000 0.996940
vt 0.002752 0.997518
vt 0.251376 0.997518
vt 0.002752 0.000764
vt 0.997248 0.000764
vt 0.748624 0.997518
vt 0.997248 0.997518
vt 0.500000 0.997518
vn 0.999000 -0.013300 0.042500
vn 0.999600 -0.019300 0.021800
vn 0.999000 -0.013300 -0.042500
vn 0.999600 -0.019300 -0.021800
vn 0.999700 -0.025300 -0.000000
vn 0.000000 1.000000 0.000000
vn -0.999000 -0.013300 -0.042500
vn -0.999600 -0.019300 -0.021800
vn -0.999000 -0.013300 0.042500
vn -0.999600 -0.019300 0.021800
vn -0.999700 -0.025300 -0.000000
usemtl Cube3_auv
s 1
f 58/2/58 59/3/59 60/4/59 61/5/58
f 62/6/60 63/7/61 64/8/61 65/9/60
f 64/8/61 63/7/61 66/10/62 67/11/62
f 67/11/62 66/10/62 60/4/59 59/3/59
f 61/6/63 60/6/63 68/6/63
f 69/6/63 63/6/63 62/6/63
f 70/6/63 66/6/63 63/6/63 69/6/63
f 68/6/63 60/6/63 66/6/63 70/6/63
f 65/12/64 64/13/65 69/7/65 62/14/64
f 61/15/66 68/4/67 59/16/67 58/17/66
f 69/7/65 64/13/65 67/18/68 70/10/68
f 70/10/68 67/18/68 59/16/67 68/4/67
